<svg id="Layer_1" data-name="Layer 1" xmlns="http://www.w3.org/2000/svg" viewBox="0 0 1920 4380"><defs><style>.cls-1,.cls-10,.cls-2,.cls-3,.cls-4,.cls-5,.cls-6,.cls-8,.cls-9{fill:none;stroke:#fff;stroke-miterlimit:10;}.cls-1{stroke-width:3px;}.cls-2{stroke-width:3.126px;}.cls-3{stroke-width:3.306px;}.cls-4{stroke-width:2.884px;}.cls-5{stroke-width:2.849px;}.cls-6{stroke-width:3.135px;}.cls-7{fill:#fff;}.cls-8{stroke-width:2.5px;}.cls-9{stroke-width:2.183px;}.cls-10{stroke-width:2px;}</style></defs><path class="cls-1" d="M1738.668,2554.434c-93.26-75.461-234.5-161.864-420.168-196.934v-1338l712-481,83,2096-93.192,20.025"/><path class="cls-2" d="M158.25,2804.533C200,2842.259,311.232,2933.488,453,2976.5V4022.357"/><path class="cls-1" d="M-80,127S221,91,202,381c0,0,270.5-21.5,293.5,291.5,0,0,43-4,74,35,0,0,113-34,129,77s-81,132-115,115c0,0-82,147-245,14,0,0-231,125-382-145S-80,127-80,127Z"/><path class="cls-1" d="M-230,2170.394l-93.5-10.894,299-1107H761.511s3.989,380-280.011,619c-132.822,111.776-159.78,244.113-150.844,353.33"/><path class="cls-1" d="M-133.5,2010.5s0-246,75-303,178-50,227,37,96,242,96,242l523,303s106,58,72,147-118,92-158,72-290-165-290-165,114,64,68,152-110.979,82.188-197.989,23.094c0,0,99.989,73.906,42.989,156.906s-128,59-202,10c0,0,80,78,13,156s-154,24-154,24l-287-570Z"/><line class="cls-1" x1="76.5" y1="1879.5" x2="264.5" y2="1986.5"/><line class="cls-1" x1="250.5" y1="2254.5" x2="411.5" y2="2343.5"/><line class="cls-1" x1="200.5" y1="2473.5" x2="281.511" y2="2518.594"/><line class="cls-1" x1="47.5" y1="2640.5" x2="122.5" y2="2685.5"/><path class="cls-1" d="M-75.426,4380S8.5,4390.5,88.5,4311.5c0,0,45,78,129,59s83.926-59,83.926-59,130.074,53,185.074-76c0,0,78-2,46-86,0,0,52-61-20-110s-107,18-107,18l-20-15s-16-146-187-129c0,0-62-169-256-60S-75.426,4380-75.426,4380Z"/><line class="cls-3" x1="-136.5" y1="2980.5" x2="453" y2="2980.5"/><path class="cls-1" d="M2012.5,2442.5s-248-121-281,153c0,0-27,2-35,19,0,0-54.979-9.681-71.989,24.16s-15.011,80.84,53.989,88.84c0,0,4,48,87,43s65.819-35.794,65.819-35.794S1875.5,2769.5,1967.5,2745.5,2012.5,2442.5,2012.5,2442.5Z"/><line class="cls-1" x1="1318.5" y1="2357.5" x2="1946.702" y2="2357.5"/><path class="cls-1" d="M1932.915,888.5s-10.883,77-127.149,131H1318.5"/><path class="cls-1" d="M1932.915,1151.574c-12.891-68.262-64.209-110.769-127.149-132.074"/><ellipse class="cls-4" cx="1335.71" cy="3701.658" rx="69.006" ry="149.09" transform="translate(-2529.015 2959.837) rotate(-59.293)"/><ellipse class="cls-5" cx="1593.251" cy="3670.266" rx="147.021" ry="68.316" transform="translate(-1657.021 1336.806) rotate(-30.859)"/><line class="cls-4" x1="1364" y1="3722" x2="1462.132" y2="3780.447"/><line class="cls-1" x1="1645" y1="3638" x2="1470.012" y2="3751.083"/><ellipse class="cls-6" cx="1466" cy="4053" rx="215.5" ry="161.5"/><path class="cls-6" d="M1253.727,4081c17.692-75.847,106-133.5,212.273-133.5s194.581,57.652,212.273,133.5"/><line class="cls-1" x1="1462.617" y1="4214.5" x2="1462.617" y2="3489"/><path class="cls-7" d="M1392.555,3370.453c4.792-25.474-8.732-49.914-26.37-67.355-19.959-19.734-45.859-31.9-68.131-48.632-21.773-16.358-39.073-37.72-52.793-61.118-14.123-24.084-25.118-50.286-33.424-76.915-9.113-29.215-14.332-60.223-10.009-90.778,4.2-29.686,16.538-57.554,30.132-84.016,25.472-49.585,58.853-96.211,103.6-130.152,42.295-32.08,93.322-51.3,146.75-49.916,50.322,1.3,99.343,19.251,141.007,47.01a305.2,305.2,0,0,1,57.341,49.5c18.723,20.759,35.159,44.165,45.639,70.207,11.269,28,14.438,58.29,13.1,88.27a371.683,371.683,0,0,1-14.5,87.924c-7.989,27.16-19.826,53.036-36.03,76.291-14.975,21.491-33.216,40.592-53.255,57.411a411.967,411.967,0,0,1-65.407,44.431c-22.522,12.474-48.866,24.139-60.032,49.08-4.726,10.555-6.221,22.472-2.122,33.474.605,1.626,3.235.923,2.622-.723-4.775-12.82-1.585-26.732,5.409-38.105,7.376-11.994,18.866-20.575,30.775-27.707,11.7-7.008,23.966-13.029,35.72-19.956,11.5-6.777,22.711-14.056,33.527-21.883,42.959-31.083,79.451-71.122,100.286-120.331,11.458-27.062,18.428-55.843,22.427-84.905,4.084-29.674,5.448-60.075,0-89.672-9.916-53.9-45.436-100.466-86.672-135.066-38.532-32.332-85.272-55.841-135.012-64.466a222.7,222.7,0,0,0-148.493,24.5c-48.661,26.394-87.236,67.73-116.646,114.131-15.426,24.339-29.173,50.214-39.782,77.026-11.184,28.261-16.717,57.688-13.774,88.082,2.88,29.755,12.157,58.589,23.572,86.083,10.174,24.505,22.569,48.255,38.9,69.253a190.3,190.3,0,0,0,28.108,29.351c10.64,8.88,22.326,16.365,33.986,23.811,23.631,15.091,47.98,31.056,60.8,56.989,5.845,11.821,8.57,25.083,6.11,38.157-.321,1.71,2.3,2.443,2.623.723Z"/><path class="cls-7" d="M1390.2,3373.53c12.065,2.508,24.408,1.949,36.626,1.217q19.061-1.14,38.121-2.3l18.958-1.143c6.158-.371,12.332-.9,18.5-1.035,5.452-.119,11.161.3,16.009,3.024,3.983,2.24,7.372,5.985,7.83,10.7.9,9.264-8.659,15.841-15.95,19.325a109.752,109.752,0,0,1-15.729,5.761c-5.576,1.677-11.239,3.055-16.946,4.21-11.516,2.332-23.189,3.756-34.871,4.938-6.015.609-12.043,1.278-18.078,1.638a53.93,53.93,0,0,1-17-1.256,43.437,43.437,0,0,1-24.1-16.422c-3.166-4.428-5.62-9.684-5.638-15.221a15,15,0,0,1,5.874-12.175,11.045,11.045,0,0,1,6.111-2.2c1.745-.068,1.754-2.789,0-2.72a15.061,15.061,0,0,0-11.847,7.151,19.362,19.362,0,0,0-2.268,14.949c2.349,10.5,10.791,19.423,19.911,24.643a45.809,45.809,0,0,0,14.446,5.329c6.317,1.155,12.74.847,19.1.287,12.371-1.089,24.757-2.306,37.035-4.2a198.087,198.087,0,0,0,35.97-8.619c9.208-3.253,19.8-7.684,24.736-16.741a15.061,15.061,0,0,0,.931-12.955c-1.891-4.605-5.957-7.985-10.463-9.9-5.463-2.321-11.554-2.453-17.4-2.192-6.643.3-13.282.781-19.92,1.181l-40.16,2.421c-13.09.789-26.347,2.149-39.456,1.059a79.859,79.859,0,0,1-9.624-1.386c-1.708-.355-2.438,2.267-.723,2.623Z"/><path class="cls-7" d="M1389,3410.907a70.668,70.668,0,0,0-4.8,22.979c-.118,6.594,2.176,13,8.3,16.19,5.384,2.8,11.828,2.891,17.75,2.569,8.311-.453,16.62-1.148,24.912-1.86,16.922-1.453,33.819-3.371,50.555-6.292,13.028-2.273,28.626-4.509,37.692-15.249,6.359-7.532,7.694-21.391-.575-28.168a14.264,14.264,0,0,0-3.237-2.01c-1.585-.708-2.97,1.635-1.373,2.349,9.377,4.191,9.282,17.3,4.141,24.753-3.352,4.861-8.888,8.084-14.287,10.171-6.177,2.388-12.727,3.641-19.217,4.838-15.663,2.887-31.481,4.839-47.334,6.319-7.994.746-16,1.372-24.007,1.938-6.228.44-12.742,1.255-18.916-.082a15.712,15.712,0,0,1-7.886-3.885,14.118,14.118,0,0,1-3.765-9.534,49,49,0,0,1,1.125-11.751,79.121,79.121,0,0,1,3.547-12.552c.612-1.642-2.016-2.351-2.623-.723Z"/><path class="cls-7" d="M1413.288,3453.313a67.032,67.032,0,0,1,13.534,24.325c1.291,4,3.03,7.971,6.993,9.949,3.867,1.931,8.334,1.881,12.552,1.841a307.519,307.519,0,0,0,32.81-2.069q3.989-.466,7.963-1.034a27.951,27.951,0,0,0,6.7-1.465c4.3-1.754,5.994-5.751,7.2-9.943a86.564,86.564,0,0,0,2.717-34.443c-.21-1.715-2.933-1.736-2.72,0a84.612,84.612,0,0,1-1.5,29.414,63.322,63.322,0,0,1-1.855,6.654,9.715,9.715,0,0,1-3.337,5.007,14.059,14.059,0,0,1-5.875,1.852c-2.52.39-5.051.722-7.582,1.033a307.985,307.985,0,0,1-31.067,2.222c-4.225.088-8.8.485-12.908-.749A9.271,9.271,0,0,1,1432,3482.6a19.05,19.05,0,0,1-2.5-5.5,70.918,70.918,0,0,0-14.3-25.713c-1.165-1.311-3.083.618-1.923,1.924Z"/><path class="cls-7" d="M1427.641,3366.986c-1.386-23.6-2.786-47.193-4.693-70.754-1.9-23.471-4.3-46.91-7.691-70.216a657.455,657.455,0,0,0-13.619-69.193q-4.395-17.085-9.946-33.846c-3.24-9.723-6.679-19.479-11.576-28.512-4.666-8.606-10.828-16.605-18.995-22.149-7.751-5.261-18.071-7.641-26.55-2.563a12.129,12.129,0,0,0-4.071,3.8,10.7,10.7,0,0,0-1.375,5.76c-.1,3.914.088,8.028,1.659,11.671a18.757,18.757,0,0,0,5.121,6.57,84.743,84.743,0,0,0,9.046,7.033c14.82,9.785,33.328,13.188,50.79,10.672a71.756,71.756,0,0,0,25.168-8.529c7.817-4.444,15.825-10.73,19.927-18.917,3.115-6.217,3.611-14.931.776-21.4-3.025-6.905-11.51-9.056-18.258-6.388a9.346,9.346,0,0,0-5.564,6.074c-.783,2.46-.741,5.062-1.224,7.577a25.413,25.413,0,0,0-.623,6.812,28.632,28.632,0,0,0,1.807,7.92,43.373,43.373,0,0,0,7.061,12.125,44.55,44.55,0,0,0,23.041,14.926,38.7,38.7,0,0,0,26.222-2.55,37.208,37.208,0,0,0,18.483-18.738,35.307,35.307,0,0,0,1.906-21.729c-.777-3-2.29-6-4.993-7.682-3.1-1.934-6.66-1.257-9.768.283-7.781,3.856-13.743,11.716-13.514,20.579.246,9.54,5.806,18.382,13.019,24.317a49.656,49.656,0,0,0,25.345,10.653c11.521,1.459,23.229-.605,34.206-4.107a99.609,99.609,0,0,0,14.856-5.829,35.264,35.264,0,0,0,10.986-8.765c5.07-5.881,11.483-13.188,7.107-21.333a10.249,10.249,0,0,0-8.805-5.715,31.1,31.1,0,0,0-12.046,1.99,35.234,35.234,0,0,0-10.876,5.565c-3.944,3.143-7,7.252-9.782,11.416a258.819,258.819,0,0,0-16.564,28.78,333.851,333.851,0,0,0-23.2,62.357,484.672,484.672,0,0,0-12.7,68.277c-2.907,24.523-4.383,49.19-5.391,73.857-.488,11.941-.866,23.886-1.244,35.831-.055,1.751,2.665,1.749,2.72,0,.73-23.085,1.462-46.177,2.984-69.227a668.664,668.664,0,0,1,7.707-68.663,411.7,411.7,0,0,1,14.942-60.727,299.792,299.792,0,0,1,25.548-57.032c2.566-4.376,5.237-8.7,8.092-12.9,2.7-3.968,5.74-7.908,9.695-10.707a35.435,35.435,0,0,1,10.333-4.7c3.443-1.032,7.37-1.951,10.967-1.242,3.83.756,6.34,4.581,6.387,8.395.047,3.862-2.338,7.344-4.681,10.218-2.39,2.931-4.86,6.1-7.847,8.436-3.83,2.994-8.407,4.932-12.919,6.642-18.78,7.12-40.9,10.994-59.035.025-7.4-4.478-13.666-11.334-16.111-19.766-1.376-4.744-1.54-10.19.918-14.624a24.983,24.983,0,0,1,7.688-8.125c2.579-1.767,6.159-3.691,9.236-2.027,2.577,1.393,3.722,4.389,4.308,7.1a32.852,32.852,0,0,1-2.605,20.518,35.239,35.239,0,0,1-18.43,16.8,36.046,36.046,0,0,1-25.025.761,42.227,42.227,0,0,1-20.818-15.532,36.367,36.367,0,0,1-6.028-12.979,19.331,19.331,0,0,1-.249-7.724c.245-1.307.5-2.583.656-3.907.266-2.3.414-4.793,1.646-6.825,1.677-2.763,5.168-3.325,8.143-3.351,3.3-.029,6.586.916,8.622,3.675a15.9,15.9,0,0,1,2.591,8.315,25.8,25.8,0,0,1-.987,10.164c-1.524,4.468-4.593,8.285-7.948,11.528a62.446,62.446,0,0,1-21.307,13.289,73.316,73.316,0,0,1-49.017.821,67.057,67.057,0,0,1-21.249-12.059,27.453,27.453,0,0,1-5.662-5.564,17.512,17.512,0,0,1-2.5-9.026c-.1-2.031-.325-4.442.252-6.41a7.567,7.567,0,0,1,3.174-3.974,18.5,18.5,0,0,1,11.279-2.864c9.723.572,18.166,7.98,24,15.211,5.9,7.311,10.035,15.955,13.437,24.66,3.809,9.746,6.989,19.764,9.959,29.794a585.71,585.71,0,0,1,14.921,64.181c3.84,21.688,6.658,43.544,8.866,65.455,2.219,22,3.826,44.062,5.229,66.131q1.014,15.951,1.928,31.908c.1,1.74,2.823,1.752,2.72,0Z"/><path class="cls-8" d="M380.172,3208.633c-3.358-196.61-295.813-196.579-299.142.007C84.388,3405.244,376.842,3405.213,380.172,3208.633Z"/><path class="cls-8" d="M400.452,3208.633c-3.9-228.268-343.443-228.232-347.308.008C57.042,3436.9,396.587,3436.866,400.452,3208.633Z"/><path class="cls-8" d="M204.643,3382.288l-14.844,40.43a4.7,4.7,0,0,0,6.694,5.743c7.551-4.313,16.3-5.036,19.8,10.866,4.032,18.3,1.049,38.445-1.967,51.585a4.706,4.706,0,0,1-8.905.8c-9.823-22.565-36.256-65.4-95.28-65.069a4.7,4.7,0,0,0-2.609.8c-4.01,2.715-16.484,14.055-34,57.26a4.473,4.473,0,0,1-.253.527c-1.46,2.571-13.911,23.032-44.967,31.874a4.69,4.69,0,0,0-3.387,4c-1.265,11.523-6.061,51.059-13.608,64-6.082,10.426,5.106,20.256,12.746,25.409a4.708,4.708,0,0,1,.062,7.713c-53.3,38.853,35.75,118.557,24.038,155.483a4.1,4.1,0,0,0-.132.535c-5.041,28.887-7.469,30.17,21.593,37.752,29.154,7.605,81.123,10.14,97.6-19.014s-2.535-36.759,30.422-81.123c32.24-43.4,61.461-134.964,23.249-187.16a4.678,4.678,0,0,0-6.031-1.328c-34.118,18.983-58.437-30.336-104.712-40.674a4.854,4.854,0,0,0-2.573.152c-41.611,13.767,99.053,46.536,96.489,74.962a4.519,4.519,0,0,0,.056,1.344c6.157,28.87,3.536,53.719-12.816,38.625-16.478-15.211-35.466-38.242-68.435-29.895-32.559,8.243-32.964,12.054-14.656,13.368a4.71,4.71,0,0,0,1.38-.11c90.634-20.864,115.718,75.7,69.036,62.271-26.478-7.725-60.638-23.129-81.585-13.621a4.717,4.717,0,0,0,1.4,9.012c7.466.786,20.453.6,42.881-2.913a4.706,4.706,0,0,1,1.112-.042c6.033.511,58.063,6.018,42.532,43.053,0,0-3.8,16.478-21.548,5.07s-46.9,11.408-78.588,6.338-69.715-16.478-73.518-15.211"/><line class="cls-8" x1="165.203" y1="3371.033" x2="141.655" y2="3431.088"/><path class="cls-9" d="M1667.81,1787.247l-5.457-3.274c-8.957-3.838-15.288-2.8-19-1.286a7.621,7.621,0,0,0-4.667,7.012c-.281,38.013,125.941,114.327,118.613,114.327-4.237,0-22.572-11.077-38.065-20.944a91.228,91.228,0,0,0-51.58-14.268l-37.917,1.068a37.353,37.353,0,0,0-20.7,6.978c-67.866,48.67,69.506-1.037,127.622,57.218a2.125,2.125,0,0,1-2.581,3.334c-10.827-6.458-28.16-16.212-45.535-23.563-28.376-12-96.042-1.091-97.134,14.188-2.722,27.439,35.473-16.1,120.58,41.716a1.111,1.111,0,0,1-1.1,1.923c-86.755-40.543-108.449-31.8-112.972-28.318a34.016,34.016,0,0,1-2.934,2.105c-21.906,13.4,35.738,24.425,54.232,27.534a26.638,26.638,0,0,1,13.446,6.306c14.369,12.924.642,27.747-15.593,46.054-18.554,20.922-14.188,52.2-16.371,89.308s-15.279,60.027,39.29,60.027,39.291-64.392,55.661-86.22,40.382-73.124,55.116-99.9,16.916-31.069,15.825-59.446-8.731-20.736-10.914-30.559,106.956-60.026,106.956-60.026l7.64-425.643s-134.241,57.844-153.946,68.247-1.032,11.424-1.032,11.424,5.457,335.058-8.731,335.058-68.757-40.382-68.757-40.382l-6.549-302.315-269.574-32.742,6.549,420.186,211.73,42.564"/><path class="cls-9" d="M1695.6,1479.911s59.308-57.214,98.957-67.868a1.113,1.113,0,0,1,.863,2.024c-17.2,10.594-68.583,43.778-69.12,62.528,0,0,58.808-45.279,81.912-56.908a1.112,1.112,0,0,1,1.244,1.816l-36.872,33.961s48.725-40.717,96.29-42.576a1.907,1.907,0,0,1,1.026,3.547c-52.377,28.969-141.866,82.886-233.739,57.584-31.651-12.007-180.081-53.479-224.828-39.291s0,11.862,0,11.862l229.562,35.868"/><path class="cls-9" d="M1627.8,2150.361s-30.186,25.306,0,36.824,71.658,1.7,81.481-3.762,0-33.062,0-33.062"/><line class="cls-9" x1="1597.473" y1="2357.5" x2="1614.579" y2="2174.692"/><path class="cls-9" d="M1711.465,2181.24s4.459,166.983,16.418,176.26"/><polygon class="cls-10" points="331.5 1293.662 357.609 1346.564 415.99 1355.048 373.745 1396.226 383.717 1454.371 331.5 1426.919 279.283 1454.371 289.255 1396.226 247.01 1355.048 305.391 1346.564 331.5 1293.662"/><path class="cls-1" d="M411.5,1742.987c154.275-106.644,376.55-216.062,453.005-362.307,19.865-53.5,1.84-125.554-51.909-144.711-17.489-6.233-47.387-14.367-72.078-14.138"/><path class="cls-1" d="M722.066,1291.668c49.081,5.267,73.7,47.908,51.434,97.832-17.43,39.085-99.024,101.883-172.139,152.441"/></svg>