<svg id="Layer_1" data-name="Layer 1" xmlns="http://www.w3.org/2000/svg" viewBox="0 0 1920 4380"><defs><style>.cls-1,.cls-2,.cls-3,.cls-4,.cls-5,.cls-6,.cls-7{fill:none;stroke:#fff;stroke-miterlimit:10;}.cls-1{stroke-width:3px;}.cls-2{stroke-width:3.126px;}.cls-3{stroke-width:3.306px;}.cls-4{stroke-width:2.5px;}.cls-5{stroke-width:2.183px;}.cls-6{stroke-width:2px;}.cls-7{stroke-width:3.616px;}.cls-8{fill:#fff;}</style></defs><path class="cls-1" d="M1738.668,2554.434c-93.26-75.461-234.5-161.864-420.168-196.934v-1338l712-481,83,2096-93.192,20.025"/><path class="cls-2" d="M158.25,2804.533C200,2842.259,311.232,2933.488,453,2976.5V4022.357"/><path class="cls-1" d="M-92.016,316.913s263.548-149.8,358.379,124.917c0,0,241.048-124.614,383.51,155.033,0,0,38.092-20.346,81.78,3.6,0,0,91-75.122,148.757,21.011s-23.538,153.072-61.468,150.572c0,0-18.648,167.288-220.444,107.821,0,0-164.536,204.729-408.344,14.312S-92.016,316.913-92.016,316.913Z"/><path class="cls-1" d="M-230,2170.394l-93.5-10.894,299-1107H761.511s3.989,380-280.011,619c-132.822,111.776-159.78,244.113-150.844,353.33"/><path class="cls-1" d="M-133.5,2010.5s0-246,75-303,178-50,227,37,96,242,96,242l523,303s106,58,72,147-118,92-158,72-290-165-290-165,114,64,68,152-110.979,82.188-197.989,23.094c0,0,99.989,73.906,42.989,156.906s-128,59-202,10c0,0,80,78,13,156s-154,24-154,24l-287-570Z"/><line class="cls-1" x1="76.5" y1="1879.5" x2="264.5" y2="1986.5"/><line class="cls-1" x1="250.5" y1="2254.5" x2="411.5" y2="2343.5"/><line class="cls-1" x1="200.5" y1="2473.5" x2="281.511" y2="2518.594"/><line class="cls-1" x1="47.5" y1="2640.5" x2="122.5" y2="2685.5"/><path class="cls-1" d="M-75.426,4380S8.5,4390.5,88.5,4311.5c0,0,45,78,129,59s83.926-59,83.926-59,130.074,53,185.074-76c0,0,78-2,46-86,0,0,52-61-20-110s-107,18-107,18l-20-15s-16-146-187-129c0,0-62-169-256-60S-75.426,4380-75.426,4380Z"/><line class="cls-3" x1="-136.5" y1="2980.5" x2="453" y2="2980.5"/><path class="cls-1" d="M2012.5,2442.5s-248-121-281,153c0,0-27,2-35,19,0,0-54.979-9.681-71.989,24.16s-15.011,80.84,53.989,88.84c0,0,4,48,87,43s65.819-35.794,65.819-35.794S1875.5,2769.5,1967.5,2745.5,2012.5,2442.5,2012.5,2442.5Z"/><line class="cls-1" x1="1318.5" y1="2357.5" x2="1946.702" y2="2357.5"/><path class="cls-1" d="M1932.915,888.5s-10.883,77-127.149,131H1318.5"/><path class="cls-1" d="M1932.915,1151.574c-12.891-68.262-64.209-110.769-127.149-132.074"/><path class="cls-4" d="M394.172,3208.633c-3.358-196.61-295.813-196.579-299.142.007C98.388,3405.244,390.842,3405.213,394.172,3208.633Z"/><path class="cls-4" d="M414.452,3208.633c-3.9-228.268-343.443-228.232-347.308.008C71.042,3436.9,410.587,3436.866,414.452,3208.633Z"/><path class="cls-4" d="M218.643,3382.288l-14.844,40.43a4.7,4.7,0,0,0,6.694,5.743c7.551-4.313,16.3-5.036,19.8,10.866,4.032,18.3,1.049,38.445-1.967,51.585a4.706,4.706,0,0,1-8.905.8c-9.823-22.565-36.256-65.4-95.28-65.069a4.7,4.7,0,0,0-2.609.8c-4.01,2.715-16.484,14.055-34,57.26a4.473,4.473,0,0,1-.253.527c-1.46,2.571-13.911,23.032-44.967,31.874a4.69,4.69,0,0,0-3.387,4c-1.265,11.523-6.061,51.059-13.608,64-6.082,10.426,5.106,20.256,12.746,25.409a4.708,4.708,0,0,1,.062,7.713c-53.3,38.853,35.75,118.557,24.038,155.483a4.1,4.1,0,0,0-.132.535c-5.041,28.887-7.469,30.17,21.593,37.752,29.154,7.605,81.123,10.14,97.6-19.014s-2.535-36.759,30.422-81.123c32.24-43.4,61.461-134.964,23.249-187.16a4.678,4.678,0,0,0-6.031-1.328c-34.118,18.983-58.437-30.336-104.712-40.674a4.854,4.854,0,0,0-2.573.152c-41.611,13.767,99.053,46.536,96.489,74.962a4.519,4.519,0,0,0,.056,1.344c6.157,28.87,3.536,53.719-12.816,38.625-16.478-15.211-35.466-38.242-68.435-29.895-32.559,8.243-32.964,12.054-14.656,13.368a4.71,4.71,0,0,0,1.38-.11c90.634-20.864,115.718,75.7,69.036,62.271-26.478-7.725-60.638-23.129-81.585-13.621a4.717,4.717,0,0,0,1.4,9.012c7.466.786,20.453.6,42.881-2.913a4.706,4.706,0,0,1,1.112-.042c6.033.511,58.063,6.018,42.532,43.053,0,0-3.8,16.478-21.548,5.07s-46.9,11.408-78.588,6.338-69.715-16.478-73.518-15.211"/><line class="cls-4" x1="179.203" y1="3371.033" x2="155.655" y2="3431.088"/><path class="cls-5" d="M1667.81,1787.247l-5.457-3.274c-8.957-3.838-15.288-2.8-19-1.286a7.621,7.621,0,0,0-4.667,7.012c-.281,38.013,125.941,114.327,118.613,114.327-4.237,0-22.572-11.077-38.065-20.944a91.228,91.228,0,0,0-51.58-14.268l-37.917,1.068a37.353,37.353,0,0,0-20.7,6.978c-67.866,48.67,69.506-1.037,127.622,57.218a2.125,2.125,0,0,1-2.581,3.334c-10.827-6.458-28.16-16.212-45.535-23.563-28.376-12-96.042-1.091-97.134,14.188-2.722,27.439,35.473-16.1,120.58,41.716a1.111,1.111,0,0,1-1.1,1.923c-86.755-40.543-108.449-31.8-112.972-28.318a34.016,34.016,0,0,1-2.934,2.105c-21.906,13.4,35.738,24.425,54.232,27.534a26.638,26.638,0,0,1,13.446,6.306c14.369,12.924.642,27.747-15.593,46.054-18.554,20.922-14.188,52.2-16.371,89.308s-15.279,60.027,39.29,60.027,39.291-64.392,55.661-86.22,40.382-73.124,55.116-99.9,16.916-31.069,15.825-59.446-8.731-20.736-10.914-30.559,106.956-60.026,106.956-60.026l7.64-425.643s-134.241,57.844-153.946,68.247-1.032,11.424-1.032,11.424,5.457,335.058-8.731,335.058-68.757-40.382-68.757-40.382l-6.549-302.315-269.574-32.742,6.549,420.186,211.73,42.564"/><path class="cls-5" d="M1695.6,1479.911s59.308-57.214,98.957-67.868a1.113,1.113,0,0,1,.863,2.024c-17.2,10.594-68.583,43.778-69.12,62.528,0,0,58.808-45.279,81.912-56.908a1.112,1.112,0,0,1,1.244,1.816l-36.872,33.961s48.725-40.717,96.29-42.576a1.907,1.907,0,0,1,1.026,3.547c-52.377,28.969-141.866,82.886-233.739,57.584-31.651-12.007-180.081-53.479-224.828-39.291s0,11.862,0,11.862l229.562,35.868"/><path class="cls-5" d="M1627.8,2150.361s-30.186,25.306,0,36.824,71.658,1.7,81.481-3.762,0-33.062,0-33.062"/><line class="cls-5" x1="1597.473" y1="2357.5" x2="1614.579" y2="2174.692"/><path class="cls-5" d="M1711.465,2181.24s4.459,166.983,16.418,176.26"/><polygon class="cls-6" points="331.5 1293.662 357.609 1346.564 415.99 1355.048 373.745 1396.226 383.717 1454.371 331.5 1426.919 279.283 1454.371 289.255 1396.226 247.01 1355.048 305.391 1346.564 331.5 1293.662"/><path class="cls-1" d="M411.5,1742.987c154.275-106.644,376.55-216.062,453.005-362.307,19.865-53.5,1.84-125.554-51.909-144.711-17.489-6.233-47.387-14.367-72.078-14.138"/><path class="cls-1" d="M722.066,1291.668c49.081,5.267,73.7,47.908,51.434,97.832-17.43,39.085-99.024,101.883-172.139,152.441"/><path class="cls-7" d="M1516.855,3746.791l-17.532,9.832-24.269,13.61c-2.354,1.32-4.324,2.884-7.153,1.665a57.2,57.2,0,0,1-5.082-2.851l-39.686-22.256-4.371,2.175q-20.943,10.422-41.883,20.846l1.806,2.358,11.557,15.089,33.825,44.162,21.634,28.247a52.947,52.947,0,0,1,48.585,0l30.367-39.648,31.471-41.089q3.492-4.56,6.985-9.119l-2.375-1.182Z"/><path class="cls-8" d="M1444.034,3861.107l25.96,33.893,25.96-33.893A60.26,60.26,0,0,0,1444.034,3861.107Z"/><path class="cls-7" d="M1416.007,3749.991c1.039-.556,2.075-1.169,3.125-1.742v-236.5h-42.914q-.729,0-1.453-.008c.373,25.273-.042,50.593-.042,75.865v177.372a4.248,4.248,0,0,0,6.251,3.745l8.093-4.328Z"/><path class="cls-7" d="M1694.165,2846.681a340.157,340.157,0,0,0-553.1,168.492,343.694,343.694,0,0,0-9.59,121.347,338.166,338.166,0,0,0,37.028,123.567,343.114,343.114,0,0,0,77.932,98.694q11.7,10.224,24.3,19.342c8.7,6.286,17.913,11.835,26.3,18.554a151.051,151.051,0,0,1,40.393,50.017,154.041,154.041,0,0,1,11.368,30.145,147.92,147.92,0,0,1,3.182,15.684c.747,5.068,1.866,9.575,5.617,13.31,5.531,5.505,12.269,5.336,19.327,5.336h42.207V3274.1c-4.838-.172-9.667-.452-14.464-.931-23.595-2.358-50.478-10.821-62.132-33.389-5.015-9.713-7.073-21.256-4.419-31.972a35.077,35.077,0,0,1,21.88-24.229c23.409-9.005,47.533,5.724,58.408,26.515,9.149,17.492,8.986,36.82,8.978,55.94,4.867.077,9.732.1,14.573.163q27.081.348,54.168.023c5.476-.064,10.978-.089,16.481-.184v-9.506c0-15.2,1.258-30.145,7.818-44.1,10.067-21.418,33.713-37.325,57.71-29.513a35.4,35.4,0,0,1,22.957,22.216c3.649,10.752,1.906,22.766-2.783,32.9-10.621,22.946-36.916,31.993-60.274,34.835-5.684.691-11.424,1.047-17.177,1.243v237.067h1.464c15.567,0,31.149.206,46.714,0a18.81,18.81,0,0,0,14.966-7.1c3.277-4.245,3.61-9.277,4.468-14.368a147.239,147.239,0,0,1,3.526-15.666,153.8,153.8,0,0,1,53.816-79.508c8.468-6.561,17.658-12.121,26.279-18.48a339.949,339.949,0,0,0,22.076-529.369Z"/><path class="cls-7" d="M1187.553,3102.328a282.224,282.224,0,0,1,281.4-282.241"/><path class="cls-7" d="M1520.856,3511.752v236.557c1.879.992,3.747,2.014,5.619,3.016l32.372,17.312a4.246,4.246,0,0,0,6.247-3.7c.057-4.426.171-8.854.171-13.242V3511.787c-3.39.006-6.78-.035-10.168-.035Z"/><line class="cls-7" x1="1419.132" y1="3511.169" x2="1520.856" y2="3511.169"/><line class="cls-7" x1="1427.383" y1="3266.029" x2="1419.132" y2="3274.095"/><line class="cls-7" x1="1512.605" y1="3266.031" x2="1520.856" y2="3274.102"/><path class="cls-1" d="M1836.123,3856.936c-42.866-5.051-89.157-3.879-125.261,19.773-33.474,21.93-33.08,52.53-37.3,87.972-2.871,24.111-9.842,21.089-31.649,8.48-16.239-9.388-29.291-23.466-45.6-32.8-28.28-16.171-63.072-23.153-95.339-18.567a118.258,118.258,0,0,0-70.371,37.348c-8.8,9.8-16.023,21.236-20.15,33.8-2.942,8.957-1.148,27.451-8.569,33.37-10.967,8.733-65.525-23.741-81.729-25.843-31.1-4.036-63.765,1.593-91.206,16.948-22.9,12.813-41.577,32.5-50.852,57.263-3.334,8.9-2.019,34.815-6.723,40.552-8.747,10.593-35.2,4.423-46.909,5.215-18.912,1.28-35.949,5.737-50.591,18.86-20.666,18.521-27.933,47.874-29.186,75.6-1.832,40.548,7.852,83.07,34.421,113.755s72.038,46.523,109.7,31.4c-6.049,48.905-9.949,104.908,23.748,140.864,18.847,20.112,46.2,29.74,72.948,36.384,76.267,18.941,155.754,19.265,234.338,19.482,48.311.134,97.962.029,142.945-17.592,10.457-4.1,20.947-9.194,32.178-9.209,8.219-.012,16.17,2.723,23.89,5.545,48.592,17.76,97.431,40.669,149.134,38.805,52.577-1.9,100.433-29.172,145.859-55.713,5.366-3.135,10.931-6.456,14.3-11.679,4.2-6.512,4.241-14.768,4.144-22.516l-2.054-164.378q88.413-47.584,172.063-103.384c11.588-7.731,23.609-16.152,29.639-28.71,4.913-10.232,5.232-22,5.1-33.352a537.06,537.06,0,0,0-54.713-229.366c-6.759-13.767-14.367-27.568-25.994-37.569-20.7-17.809-51.148-20.482-77.582-13.622-16.576,4.3-32.061,11.9-46.782,20.521-12.773,7.48-22.273,14.611-36.975,8.017-32.425-14.542-65.193-26.9-99.839-35.167A512.648,512.648,0,0,0,1836.123,3856.936Z"/></svg>