<?xml version="1.0" encoding="UTF-8"?>
<svg xmlns="http://www.w3.org/2000/svg" xmlns:xlink="http://www.w3.org/1999/xlink" width="548px" height="1245px" viewBox="0 0 548 1250" version="1.1">
<g id="surface1">
<rect x="0" y="0" width="548" height="1250" style="fill:rgb(0%,0%,0%);fill-opacity:1;stroke:none;"/>
<path style="fill:none;stroke-width:3;stroke-linecap:butt;stroke-linejoin:miter;stroke:rgb(100%,100%,100%);stroke-opacity:1;stroke-miterlimit:10;" d="M 1738.672445 2554.429688 C 1645.40146 2478.9705 1504.17427 2392.575 1318.494526 2357.493937 L 1318.494526 1019.49975 L 2030.501825 538.493625 L 2113.494526 2634.501563 L 2020.305657 2654.526375 " transform="matrix(0.285417,0,0,0.285388,0,0)"/>
<path style="fill:none;stroke-width:3;stroke-linecap:butt;stroke-linejoin:miter;stroke:rgb(100%,100%,100%);stroke-opacity:1;stroke-miterlimit:10;" d="M 158.252737 2804.527687 C 199.995438 2842.264125 311.236314 2933.491312 452.997263 2976.497438 L 452.997263 4022.359313 " transform="matrix(0.285417,0,0,0.285388,0,0)"/>
<path style="fill:none;stroke-width:3;stroke-linecap:butt;stroke-linejoin:miter;stroke:rgb(100%,100%,100%);stroke-opacity:1;stroke-miterlimit:10;" d="M 345.944343 954.005063 C 499.694343 1031.43525 722.203467 878.696438 722.203467 878.696438 " transform="matrix(0.285417,0,0,0.285388,0,0)"/>
<path style="fill:none;stroke-width:3;stroke-linecap:butt;stroke-linejoin:miter;stroke:rgb(100%,100%,100%);stroke-opacity:1;stroke-miterlimit:10;" d="M 722.203467 878.696438 C 978.654197 954.278812 1002.344891 741.670875 1002.344891 741.670875 C 1050.547445 744.860063 1153.850365 672.49425 1080.465328 550.319625 C 1007.066606 428.158687 891.418796 523.629 891.418796 523.629 C 835.894161 493.201687 787.486314 519.057375 787.486314 519.057375 C 606.446168 163.661438 300.109489 322.025812 300.109489 322.025812 C 179.603102 -27.087563 -155.323905 163.278188 -155.323905 163.278188 C -155.323905 163.278188 -429.744526 97.988812 -285.629562 609.832875 " transform="matrix(0.285417,0,0,0.285388,0,0)"/>
<path style="fill:none;stroke-width:3;stroke-linecap:butt;stroke-linejoin:miter;stroke:rgb(100%,100%,100%);stroke-opacity:1;stroke-miterlimit:10;" d="M -229.995438 2170.3995 L -323.499088 2159.50425 L -24.498175 1052.500313 L 761.510036 1052.500313 C 761.510036 1052.500313 765.506387 1432.506375 481.505474 1671.503813 C 348.681569 1783.275938 321.719891 1915.606687 330.656934 2024.832938 " transform="matrix(0.285417,0,0,0.285388,0,0)"/>
<path style="fill:none;stroke-width:3;stroke-linecap:butt;stroke-linejoin:miter;stroke:rgb(100%,100%,100%);stroke-opacity:1;stroke-miterlimit:10;" d="M -133.494526 2010.502125 C -133.494526 2010.502125 -133.494526 1764.496688 -58.494526 1707.501937 C 16.505474 1650.4935 119.493613 1657.5015 168.50365 1744.49925 C 217.5 1831.497 264.498175 1986.49425 264.498175 1986.49425 L 787.5 2289.494438 C 787.5 2289.494438 893.499088 2347.502063 859.502737 2436.498187 C 825.506387 2525.494312 741.500912 2528.505562 701.49635 2508.494438 C 661.505474 2488.497 411.500912 2343.505312 411.500912 2343.505312 C 411.500912 2343.505312 525.506387 2407.494375 479.493613 2495.505 C 433.494526 2583.501938 368.52646 2577.68475 281.510036 2518.595813 C 281.510036 2518.595813 381.500912 2592.494625 324.498175 2675.495625 C 267.495438 2758.496625 196.505474 2734.502437 122.504562 2685.501188 C 122.504562 2685.501188 202.5 2763.50625 135.506387 2841.497625 C 68.499088 2919.502687 -18.50365 2865.5055 -18.50365 2865.5055 L -305.501825 2295.50325 Z M -133.494526 2010.502125 " transform="matrix(0.285417,0,0,0.285388,0,0)"/>
<path style="fill:none;stroke-width:3;stroke-linecap:butt;stroke-linejoin:miter;stroke:rgb(100%,100%,100%);stroke-opacity:1;stroke-miterlimit:10;" d="M 76.505474 1879.499063 L 264.498175 1986.49425 " transform="matrix(0.285417,0,0,0.285388,0,0)"/>
<path style="fill:none;stroke-width:3;stroke-linecap:butt;stroke-linejoin:miter;stroke:rgb(100%,100%,100%);stroke-opacity:1;stroke-miterlimit:10;" d="M 250.497263 2254.4955 L 411.500912 2343.505312 " transform="matrix(0.285417,0,0,0.285388,0,0)"/>
<path style="fill:none;stroke-width:3;stroke-linecap:butt;stroke-linejoin:miter;stroke:rgb(100%,100%,100%);stroke-opacity:1;stroke-miterlimit:10;" d="M 200.501825 2473.4955 L 281.510036 2518.595813 " transform="matrix(0.285417,0,0,0.285388,0,0)"/>
<path style="fill:none;stroke-width:3;stroke-linecap:butt;stroke-linejoin:miter;stroke:rgb(100%,100%,100%);stroke-opacity:1;stroke-miterlimit:10;" d="M 47.504562 2640.496688 L 122.504562 2685.501188 " transform="matrix(0.285417,0,0,0.285388,0,0)"/>
<path style="fill:none;stroke-width:3;stroke-linecap:butt;stroke-linejoin:miter;stroke:rgb(100%,100%,100%);stroke-opacity:1;stroke-miterlimit:10;" d="M -75.42427 4380 C -75.42427 4380 8.499088 4390.498312 88.494526 4311.494062 C 88.494526 4311.494062 133.494526 4389.499125 217.5 4370.500875 C 301.505474 4351.502625 301.423358 4311.494062 301.423358 4311.494062 C 301.423358 4311.494062 431.49635 4364.50575 486.500912 4235.501063 C 486.500912 4235.501063 564.498175 4233.502688 532.5 4149.5025 C 532.5 4149.5025 584.493613 4088.497313 512.504562 4039.496062 C 440.501825 3990.494813 405.506387 4057.495125 405.506387 4057.495125 L 385.497263 4042.493625 C 385.497263 4042.493625 369.498175 3896.50275 198.50365 3913.502625 C 198.50365 3913.502625 136.505474 3744.503062 -57.495438 3853.496625 C -251.49635 3962.503875 -75.42427 4380 -75.42427 4380 Z M -75.42427 4380 " transform="matrix(0.285417,0,0,0.285388,0,0)"/>
<path style="fill:none;stroke-width:3;stroke-linecap:butt;stroke-linejoin:miter;stroke:rgb(100%,100%,100%);stroke-opacity:1;stroke-miterlimit:10;" d="M -136.505474 2980.494187 L 452.997263 2980.494187 " transform="matrix(0.285417,0,0,0.285388,0,0)"/>
<path style="fill:none;stroke-width:3;stroke-linecap:butt;stroke-linejoin:miter;stroke:rgb(100%,100%,100%);stroke-opacity:1;stroke-miterlimit:10;" d="M 2012.504562 2442.493313 C 2012.504562 2442.493313 1764.498175 2321.495812 1731.500912 2595.505875 C 1731.500912 2595.505875 1704.498175 2597.50425 1696.505474 2614.504125 C 1696.505474 2614.504125 1641.514599 2604.813375 1624.516423 2638.662563 C 1607.504562 2672.498062 1609.502737 2719.500937 1678.494526 2727.494438 C 1678.494526 2727.494438 1682.504562 2775.4965 1765.497263 2770.500562 C 1848.50365 2765.504625 1831.313869 2734.70775 1831.313869 2734.70775 C 1831.313869 2734.70775 1875.506387 2769.501375 1967.504562 2745.4935 C 2059.502737 2721.499313 2012.504562 2442.493313 2012.504562 2442.493313 Z M 2012.504562 2442.493313 " transform="matrix(0.285417,0,0,0.285388,0,0)"/>
<path style="fill:none;stroke-width:3;stroke-linecap:butt;stroke-linejoin:miter;stroke:rgb(100%,100%,100%);stroke-opacity:1;stroke-miterlimit:10;" d="M 1318.494526 2357.493937 L 1946.701642 2357.493937 " transform="matrix(0.285417,0,0,0.285388,0,0)"/>
<path style="fill:none;stroke-width:3;stroke-linecap:butt;stroke-linejoin:miter;stroke:rgb(100%,100%,100%);stroke-opacity:1;stroke-miterlimit:10;" d="M 1932.919708 888.496688 C 1932.919708 888.496688 1922.025547 965.502562 1805.761861 1019.49975 L 1318.494526 1019.49975 " transform="matrix(0.285417,0,0,0.285388,0,0)"/>
<path style="fill:none;stroke-width:3;stroke-linecap:butt;stroke-linejoin:miter;stroke:rgb(100%,100%,100%);stroke-opacity:1;stroke-miterlimit:10;" d="M 1932.919708 1151.570438 C 1920.027372 1083.310875 1868.70438 1040.811187 1805.761861 1019.49975 " transform="matrix(0.285417,0,0,0.285388,0,0)"/>
<path style="fill:none;stroke-width:3;stroke-linecap:butt;stroke-linejoin:miter;stroke:rgb(100%,100%,100%);stroke-opacity:1;stroke-miterlimit:10;" d="M 394.17427 3208.637438 C 390.807482 3012.0165 98.362226 3012.057563 95.036496 3208.637438 C 98.389599 3405.244688 390.84854 3405.217312 394.17427 3208.637438 Z M 394.17427 3208.637438 " transform="matrix(0.285417,0,0,0.285388,0,0)"/>
<path style="fill:none;stroke-width:3;stroke-linecap:butt;stroke-linejoin:miter;stroke:rgb(100%,100%,100%);stroke-opacity:1;stroke-miterlimit:10;" d="M 414.457117 3208.637438 C 410.556569 2980.371 71.00365 2980.398375 67.144161 3208.637438 C 71.044708 3436.903875 410.583942 3436.862813 414.457117 3208.637438 Z M 414.457117 3208.637438 " transform="matrix(0.285417,0,0,0.285388,0,0)"/>
<path style="fill:none;stroke-width:3;stroke-linecap:butt;stroke-linejoin:miter;stroke:rgb(100%,100%,100%);stroke-opacity:1;stroke-miterlimit:10;" d="M 218.649635 3382.29075 L 203.800182 3422.723625 C 203.115876 3424.55775 203.649635 3426.63825 205.141423 3427.924875 C 206.633212 3429.2115 208.768248 3429.416813 210.492701 3428.458687 C 218.047445 3424.147125 226.792883 3423.421688 230.296533 3439.326562 C 234.320255 3457.62675 231.336679 3477.77475 228.32573 3490.91475 C 227.860401 3492.88575 226.190693 3494.350313 224.165146 3494.52825 C 222.139599 3494.719875 220.22354 3493.583813 219.416058 3491.708625 C 209.603102 3469.151625 183.161496 3426.30975 124.146898 3426.63825 C 123.216241 3426.651937 122.29927 3426.925688 121.532847 3427.445813 C 117.52281 3430.155938 105.054745 3441.502875 87.536496 3484.700625 C 87.45438 3484.878563 87.372263 3485.0565 87.27646 3485.234437 C 85.82573 3487.807688 73.37135 3508.256812 42.317518 3517.098937 C 40.469891 3517.619062 39.12865 3519.206813 38.923358 3521.109375 C 37.664234 3532.620562 32.860401 3572.16375 25.319343 3585.098437 C 19.229015 3595.528313 30.42427 3605.355937 38.061131 3610.516125 C 39.333942 3611.378438 40.086679 3612.815625 40.100365 3614.348625 C 40.114051 3615.895312 39.375 3617.3325 38.129562 3618.222188 C -15.17792 3657.081 73.877737 3736.783313 62.162409 3773.712187 C 62.107664 3773.890125 62.066606 3774.068062 62.025547 3774.246 C 56.989051 3803.126625 54.566606 3804.41325 83.622263 3811.996125 C 112.773723 3819.606375 164.75365 3822.138562 181.218066 3792.984188 C 197.696168 3763.829813 178.686131 3756.219562 211.642336 3711.858375 C 243.886861 3668.455313 273.106752 3576.899625 234.895073 3524.6955 C 233.499088 3522.806625 230.926095 3522.23175 228.859489 3523.367813 C 194.739964 3542.352375 170.433394 3493.036312 124.146898 3482.70225 C 123.298358 3482.510625 122.408759 3482.565375 121.573905 3482.852812 C 79.968066 3496.622438 220.634124 3529.390313 218.074818 3557.805563 C 218.020073 3558.25725 218.033759 3558.708938 218.129562 3559.160625 C 224.274635 3588.027562 221.660584 3612.870375 205.305657 3597.78675 C 188.827555 3582.56625 169.844891 3559.543875 136.875 3567.879562 C 104.315693 3576.133125 103.905109 3579.93825 122.217153 3581.25225 C 122.682482 3581.279625 123.14781 3581.25225 123.599453 3581.14275 C 214.229015 3560.283 239.315693 3656.848312 192.632299 3643.407187 C 166.149635 3635.687438 131.989051 3620.289 111.04927 3629.788125 C 109.092153 3630.650437 107.956204 3632.71725 108.284672 3634.838813 C 108.613139 3636.946687 110.323905 3638.5755 112.445255 3638.808187 C 119.917883 3639.588375 132.906022 3639.410438 155.323905 3635.89275 C 155.693431 3635.838 156.076642 3635.824312 156.446168 3635.851688 C 162.468066 3636.358125 214.502737 3641.874188 198.968978 3678.898875 C 198.968978 3678.898875 195.17792 3695.378625 177.427007 3683.976938 C 159.676095 3672.561563 130.524635 3695.378625 98.841241 3690.31425 C 67.144161 3685.236188 29.124088 3673.8345 25.319343 3675.09375 " transform="matrix(0.285417,0,0,0.285388,0,0)"/>
<path style="fill:none;stroke-width:3;stroke-linecap:butt;stroke-linejoin:miter;stroke:rgb(100%,100%,100%);stroke-opacity:1;stroke-miterlimit:10;" d="M 179.206204 3371.039625 L 155.652372 3431.086688 " transform="matrix(0.285417,0,0,0.285388,0,0)"/>
<path style="fill:none;stroke-width:3;stroke-linecap:butt;stroke-linejoin:miter;stroke:rgb(100%,100%,100%);stroke-opacity:1;stroke-miterlimit:10;" d="M 1667.805657 1787.245312 L 1662.358577 1783.974 C 1653.394161 1780.1415 1647.071168 1781.168062 1643.34854 1782.687375 C 1640.529197 1783.878187 1638.695255 1786.629375 1638.681569 1789.695375 C 1638.407847 1827.705563 1764.62135 1904.027063 1757.29927 1904.027063 C 1753.056569 1904.027063 1734.730839 1892.953875 1719.238139 1883.085188 C 1703.854927 1873.27125 1685.885036 1868.302688 1667.655109 1868.809125 L 1629.730839 1869.87675 C 1622.29927 1870.09575 1615.086679 1872.518437 1609.037409 1876.857375 C 1541.167883 1925.530125 1678.54927 1875.817125 1736.660584 1934.084812 C 1737.413321 1934.837625 1737.495438 1936.042125 1736.838504 1936.877062 C 1736.181569 1937.725688 1735.004562 1937.958375 1734.073905 1937.410875 C 1723.248175 1930.950375 1705.921533 1921.204875 1688.540146 1913.854687 C 1660.168796 1901.85075 1592.504562 1912.759687 1591.409672 1928.034938 C 1588.686131 1955.478375 1626.884124 1911.938437 1711.984489 1969.754437 C 1712.463504 1970.082938 1712.614051 1970.72625 1712.326642 1971.219 C 1712.039234 1971.725437 1711.409672 1971.93075 1710.889599 1971.670687 C 1624.133212 1931.128312 1602.440693 1939.874625 1597.910584 1943.35125 C 1596.979927 1944.11775 1595.994526 1944.815812 1594.981752 1945.459125 C 1573.070255 1958.859187 1630.716241 1969.891312 1649.219891 1972.998375 C 1654.201642 1973.778562 1658.868613 1975.968562 1662.659672 1979.308313 C 1677.030109 1992.229313 1663.30292 2007.052875 1647.071168 2025.353063 C 1628.512774 2046.28125 1632.87865 2077.557188 1630.702555 2114.664 C 1628.512774 2151.770812 1615.415146 2174.697375 1669.981752 2174.697375 C 1724.562044 2174.697375 1709.274635 2110.297687 1725.643248 2088.466125 C 1742.011861 2066.64825 1766.031022 2015.3475 1780.757299 1988.57475 C 1795.497263 1961.802 1797.673358 1957.504125 1796.592153 1929.129938 C 1795.497263 1900.75575 1787.860401 1908.393375 1785.67062 1898.56575 C 1783.494526 1888.738125 1892.627737 1838.546063 1892.627737 1838.546063 L 1900.264599 1412.892188 C 1900.264599 1412.892188 1766.031022 1470.735563 1746.322993 1481.15175 C 1726.614964 1491.55425 1745.296533 1492.567125 1745.296533 1492.567125 C 1745.296533 1492.567125 1750.743613 1827.623437 1736.564781 1827.623437 C 1722.372263 1827.623437 1667.805657 1787.245312 1667.805657 1787.245312 L 1661.25 1484.9295 L 1391.687956 1452.189 L 1398.229927 1872.367875 L 1609.95438 1914.936 " transform="matrix(0.285417,0,0,0.285388,0,0)"/>
<path style="fill:none;stroke-width:3;stroke-linecap:butt;stroke-linejoin:miter;stroke:rgb(100%,100%,100%);stroke-opacity:1;stroke-miterlimit:10;" d="M 1695.60219 1479.906187 C 1695.60219 1479.906187 1754.904197 1422.692438 1794.55292 1412.043563 C 1795.086679 1411.906688 1795.64781 1412.180437 1795.853102 1412.686875 C 1796.07208 1413.193313 1795.880474 1413.781875 1795.415146 1414.069313 C 1778.225365 1424.663438 1726.833942 1457.841938 1726.300182 1476.593813 C 1726.300182 1476.593813 1785.109489 1431.315562 1808.211679 1419.681188 C 1808.70438 1419.4485 1809.306569 1419.599062 1809.62135 1420.05075 C 1809.936131 1420.516125 1809.867701 1421.132063 1809.457117 1421.501625 L 1772.586679 1455.460313 C 1772.586679 1455.460313 1821.309307 1414.753688 1868.868613 1412.892188 C 1869.744526 1412.864812 1870.524635 1413.426 1870.757299 1414.260937 C 1871.00365 1415.095875 1870.64781 1415.985563 1869.895073 1416.43725 C 1817.518248 1445.4 1728.038321 1499.315063 1636.163321 1474.020563 C 1604.507299 1462.016625 1456.081204 1420.5435 1411.327555 1434.72375 C 1366.587591 1448.917688 1411.327555 1446.590813 1411.327555 1446.590813 L 1640.898723 1482.452063 " transform="matrix(0.285417,0,0,0.285388,0,0)"/>
<path style="fill:none;stroke-width:3;stroke-linecap:butt;stroke-linejoin:miter;stroke:rgb(100%,100%,100%);stroke-opacity:1;stroke-miterlimit:10;" d="M 1627.801095 2150.361 C 1627.801095 2150.361 1597.609489 2175.669188 1627.801095 2187.180375 C 1657.992701 2198.70525 1699.461679 2188.891312 1709.274635 2183.416313 C 1719.101277 2177.955 1709.274635 2150.361 1709.274635 2150.361 " transform="matrix(0.285417,0,0,0.285388,0,0)"/>
<path style="fill:none;stroke-width:3;stroke-linecap:butt;stroke-linejoin:miter;stroke:rgb(100%,100%,100%);stroke-opacity:1;stroke-miterlimit:10;" d="M 1597.472628 2357.493937 L 1614.580292 2174.697375 " transform="matrix(0.285417,0,0,0.285388,0,0)"/>
<path style="fill:none;stroke-width:3;stroke-linecap:butt;stroke-linejoin:miter;stroke:rgb(100%,100%,100%);stroke-opacity:1;stroke-miterlimit:10;" d="M 1711.464416 2181.24 C 1711.464416 2181.24 1715.926095 2348.2275 1727.887774 2357.493937 " transform="matrix(0.285417,0,0,0.285388,0,0)"/>
<path style="fill:none;stroke-width:3;stroke-linecap:butt;stroke-linejoin:miter;stroke:rgb(100%,100%,100%);stroke-opacity:1;stroke-miterlimit:10;" d="M 331.505474 1293.660375 L 357.604927 1346.562563 L 415.989964 1355.048812 L 373.740876 1396.220812 L 383.718066 1454.365313 L 331.505474 1426.921875 L 279.279197 1454.365313 L 289.256387 1396.220812 L 247.007299 1355.048812 L 305.392336 1346.562563 Z M 331.505474 1293.660375 " transform="matrix(0.285417,0,0,0.285388,0,0)"/>
<path style="fill:none;stroke-width:3;stroke-linecap:butt;stroke-linejoin:miter;stroke:rgb(100%,100%,100%);stroke-opacity:1;stroke-miterlimit:10;" d="M 411.500912 1742.993625 C 565.770985 1636.340625 788.047445 1526.92275 864.498175 1380.6855 C 884.370438 1327.181063 866.345803 1255.130062 812.600365 1235.967562 C 795.109489 1229.73975 765.205292 1221.595687 740.515511 1221.828375 " transform="matrix(0.285417,0,0,0.285388,0,0)"/>
<path style="fill:none;stroke-width:3;stroke-linecap:butt;stroke-linejoin:miter;stroke:rgb(100%,100%,100%);stroke-opacity:1;stroke-miterlimit:10;" d="M 722.066606 1291.662 C 771.145073 1296.931687 795.766423 1339.581938 773.499088 1389.50025 C 756.076642 1428.59175 674.479927 1491.376313 601.354927 1541.937938 " transform="matrix(0.285417,0,0,0.285388,0,0)"/>
<path style="fill:none;stroke-width:3;stroke-linecap:butt;stroke-linejoin:miter;stroke:rgb(100%,100%,100%);stroke-opacity:1;stroke-miterlimit:10;" d="M 1516.861314 3746.788875 L 1499.32938 3756.6165 L 1475.050182 3770.235563 C 1472.696168 3771.549562 1470.725365 3773.123625 1467.906022 3771.89175 C 1466.154197 3771.029437 1464.457117 3770.085 1462.814781 3769.04475 L 1423.138686 3746.788875 L 1418.759124 3748.965187 C 1404.79927 3755.918437 1390.839416 3762.858 1376.879562 3769.81125 L 1378.686131 3772.1655 L 1390.237226 3787.262813 L 1424.069343 3831.418688 L 1445.707117 3859.669687 C 1460.939781 3851.799375 1479.046533 3851.799375 1494.279197 3859.669687 L 1524.648723 3820.017 L 1556.126825 3778.927125 C 1558.453467 3775.8885 1560.780109 3772.849875 1563.106752 3769.81125 L 1560.739051 3768.634125 Z M 1516.861314 3746.788875 " transform="matrix(0.285417,0,0,0.285388,0,0)"/>
<path style=" stroke:none;fill-rule:nonzero;fill:rgb(100%,100%,100%);fill-opacity:1;" d="M 412.152344 1101.914062 L 419.5625 1111.585938 L 426.96875 1101.914062 C 422.285156 1099.675781 416.835938 1099.675781 412.152344 1101.914062 Z M 412.152344 1101.914062 "/>
<path style="fill:none;stroke-width:3;stroke-linecap:butt;stroke-linejoin:miter;stroke:rgb(100%,100%,100%);stroke-opacity:1;stroke-miterlimit:10;" d="M 1416.008212 3749.99175 C 1417.048358 3749.430563 1418.088504 3748.828312 1419.12865 3748.253438 L 1419.12865 3511.747125 L 1376.222628 3511.747125 C 1375.729927 3511.747125 1375.250912 3511.747125 1374.758212 3511.747125 C 1375.141423 3537.01425 1374.717153 3562.336125 1374.717153 3587.60325 L 1374.717153 3764.979563 C 1374.717153 3766.4715 1375.510949 3767.853938 1376.783759 3768.620438 C 1378.070255 3769.386937 1379.657847 3769.428 1380.971715 3768.71625 L 1389.060219 3764.391 Z M 1416.008212 3749.99175 " transform="matrix(0.285417,0,0,0.285388,0,0)"/>
<path style="fill:none;stroke-width:3;stroke-linecap:butt;stroke-linejoin:miter;stroke:rgb(100%,100%,100%);stroke-opacity:1;stroke-miterlimit:10;" d="M 1694.165146 2846.685188 C 1605.67062 2769.049687 1483.330292 2742.70125 1370.720803 2777.002125 C 1258.111314 2811.303 1171.245438 2901.394125 1141.067518 3015.178313 C 1130.679745 3054.735187 1127.422445 3095.825063 1131.47354 3136.518 C 1135.770985 3179.702063 1148.34854 3221.65425 1168.508212 3260.08875 C 1188.175182 3297.510375 1214.603102 3330.962625 1246.437044 3358.775625 C 1254.238139 3365.592 1262.340328 3372.038812 1270.729927 3378.12975 C 1279.434307 3384.412313 1288.645073 3389.95575 1297.034672 3396.676313 C 1313.937044 3410.254313 1327.705292 3427.322625 1337.422445 3446.690437 C 1342.267336 3456.31275 1346.07208 3466.414125 1348.79562 3476.844 C 1350.136861 3482.004188 1351.20438 3487.2465 1351.984489 3492.516187 C 1352.72354 3497.59425 1353.845803 3502.097438 1357.595803 3505.834125 C 1363.125 3511.3365 1369.858577 3511.17225 1376.92062 3511.17225 L 1419.12865 3511.17225 L 1419.12865 3274.10475 C 1414.297445 3273.926812 1409.466241 3273.653063 1404.662409 3273.174 C 1381.067518 3270.806062 1354.187956 3262.347188 1342.527372 3239.7765 C 1337.518248 3230.072062 1335.465328 3218.519813 1338.120438 3207.8025 C 1340.980839 3196.619813 1349.15146 3187.558687 1359.990876 3183.575625 C 1383.407847 3174.56925 1407.52281 3189.297 1418.403285 3210.088313 C 1427.54562 3227.580937 1427.381387 3246.907688 1427.381387 3266.029125 C 1432.25365 3266.11125 1437.112226 3266.138625 1441.957117 3266.193375 C 1460.009124 3266.426063 1478.061131 3266.43975 1496.126825 3266.22075 C 1501.601277 3266.152312 1507.103102 3266.124938 1512.604927 3266.042812 L 1512.604927 3256.53 C 1512.604927 3241.323188 1513.864051 3226.390125 1520.419708 3212.428875 C 1530.492701 3191.007938 1554.12865 3175.103062 1578.134124 3182.918625 C 1588.877737 3186.258375 1597.404197 3194.49825 1601.085766 3205.133438 C 1604.739964 3215.891813 1602.988139 3227.89575 1598.307482 3238.038187 C 1587.687044 3260.978437 1561.382299 3270.025875 1538.033759 3272.872875 C 1532.340328 3273.55725 1526.605839 3273.913125 1520.857664 3274.10475 L 1520.857664 3511.17225 L 1522.32208 3511.17225 C 1537.883212 3511.17225 1553.471715 3511.377562 1569.032847 3511.17225 C 1574.849453 3511.254375 1580.37865 3508.626375 1583.991788 3504.082125 C 1587.27646 3499.839 1587.604927 3494.802 1588.467153 3489.71025 C 1589.356752 3484.426875 1590.533759 3479.19825 1591.984489 3474.038062 C 1600.989964 3442.474688 1619.849453 3414.620625 1645.812044 3394.541062 C 1654.270073 3387.971062 1663.467153 3382.413937 1672.089416 3376.04925 C 1754.945255 3314.920875 1805.638686 3219.532688 1809.922445 3116.657438 C 1814.219891 3013.782187 1771.642336 2914.50675 1694.165146 2846.685188 Z M 1694.165146 2846.685188 " transform="matrix(0.285417,0,0,0.285388,0,0)"/>
<path style="fill:none;stroke-width:3;stroke-linecap:butt;stroke-linejoin:miter;stroke:rgb(100%,100%,100%);stroke-opacity:1;stroke-miterlimit:10;" d="M 1187.559307 3102.326625 C 1187.54562 2946.768187 1313.403285 2820.542063 1468.946168 2820.090375 " transform="matrix(0.285417,0,0,0.285388,0,0)"/>
<path style="fill:none;stroke-width:3;stroke-linecap:butt;stroke-linejoin:miter;stroke:rgb(100%,100%,100%);stroke-opacity:1;stroke-miterlimit:10;" d="M 1520.857664 3511.747125 L 1520.857664 3748.308187 C 1522.732664 3749.307375 1524.607664 3750.32025 1526.468978 3751.319437 L 1558.850365 3768.634125 C 1560.150547 3769.332188 1561.738139 3769.304813 1563.010949 3768.552 C 1564.283759 3767.7855 1565.077555 3766.41675 1565.091241 3764.9385 C 1565.145985 3760.517438 1565.269161 3756.082687 1565.269161 3751.689 L 1565.269161 3511.788187 C 1561.875 3511.788187 1558.480839 3511.747125 1555.100365 3511.747125 Z M 1520.857664 3511.747125 " transform="matrix(0.285417,0,0,0.285388,0,0)"/>
<path style="fill:none;stroke-width:3;stroke-linecap:butt;stroke-linejoin:miter;stroke:rgb(100%,100%,100%);stroke-opacity:1;stroke-miterlimit:10;" d="M 1419.12865 3511.17225 L 1520.857664 3511.17225 " transform="matrix(0.285417,0,0,0.285388,0,0)"/>
<path style="fill:none;stroke-width:3;stroke-linecap:butt;stroke-linejoin:miter;stroke:rgb(100%,100%,100%);stroke-opacity:1;stroke-miterlimit:10;" d="M 1427.381387 3266.029125 L 1419.12865 3274.091063 " transform="matrix(0.285417,0,0,0.285388,0,0)"/>
<path style="fill:none;stroke-width:3;stroke-linecap:butt;stroke-linejoin:miter;stroke:rgb(100%,100%,100%);stroke-opacity:1;stroke-miterlimit:10;" d="M 1512.604927 3266.029125 L 1520.857664 3274.10475 " transform="matrix(0.285417,0,0,0.285388,0,0)"/>
<path style="fill:none;stroke-width:3;stroke-linecap:butt;stroke-linejoin:miter;stroke:rgb(100%,100%,100%);stroke-opacity:1;stroke-miterlimit:10;" d="M 419.712591 626.750625 C 462.071168 614.4045 516.04927 604.905375 558.435219 622.89075 C 580.059307 632.075062 598.248175 648.390562 611.578467 667.744688 C 645.369526 716.759625 649.201642 787.113375 608.731752 833.390813 C 566.113139 882.132 495.520073 881.324438 438.052007 864.475125 C 438.052007 864.475125 330.342153 1049.968125 183.736314 930.298312 C 183.736314 930.298312 114.922445 1061.944688 -58.604015 1011.081937 C -58.604015 1011.081937 -145.374088 993.123938 -160.333029 885.430687 C -158.978102 895.189875 -236.099453 881.338125 -240.492701 879.6135 C -294.635036 858.42525 -355.428832 780.8445 -348.339416 720.8385 C -346.040146 701.443313 -337.67792 683.28 -328.015511 666.3075 C -275.37865 572.698688 -197.559307 551.811563 -106.20438 608.573625 C -122.422445 598.841812 -69.539234 515.936625 -62.244526 508.13475 C -22.472628 465.552937 36.090328 458.736562 90.985401 469.536 C 90.985401 469.536 149.206204 479.99325 197.039234 575.436187 C 192.440693 566.251875 256.341241 539.438063 262.458942 538.069313 C 330.916971 522.670875 383.143248 575.874187 419.479927 626.805375 Z M 419.712591 626.750625 " transform="matrix(0.285417,0,0,0.285388,0,0)"/>
<path style="fill:none;stroke-width:3;stroke-linecap:butt;stroke-linejoin:miter;stroke:rgb(100%,100%,100%);stroke-opacity:1;stroke-miterlimit:10;" d="M 1369.653285 4061.84775 C 1340.44708 4058.1795 1303.905109 4057.618313 1277.887774 4073.933812 C 1264.612226 4082.255813 1254.361314 4094.91675 1247.614051 4109.069625 C 1230.520073 4144.9035 1235.419708 4191.646313 1266.938869 4217.857875 C 1300.141423 4245.465562 1346.537409 4237.499437 1382.614051 4220.349 C 1382.614051 4220.349 1473.093066 4331.163 1557.043796 4236.897187 C 1557.043796 4236.897187 1616.222628 4316.339437 1725.150547 4264.559625 C 1725.150547 4264.559625 1780.40146 4243.604062 1778.909672 4171.101375 C 1779.046533 4177.657688 1828.37135 4160.425125 1831.081204 4158.823688 C 1864.502737 4139.168438 1896.364051 4081.66725 1885.374088 4042.890563 C 1881.82938 4030.352812 1874.39781 4019.279625 1866.254562 4009.1235 C 1821.719891 3953.018437 1768.275547 3947.461313 1714.092153 3994.477875 C 1723.740876 3986.3475 1680.17792 3937.318875 1674.55292 3932.952563 C 1643.868613 3909.108938 1604.589416 3910.778813 1569.566606 3923.686125 C 1569.566606 3923.686125 1532.340328 3936.68925 1510.880474 4004.592938 C 1512.94708 3998.064 1468.042883 3987.141375 1463.868613 3986.881313 C 1417.157847 3983.952188 1388.375912 4024.494563 1369.803832 4061.861438 Z M 1369.653285 4061.84775 " transform="matrix(0.285417,0,0,0.285388,0,0)"/>
</g>
</svg>
