<svg id="Layer_1" data-name="Layer 1" xmlns="http://www.w3.org/2000/svg" viewBox="0 0 1440 1272"><defs><style>.cls-1{fill:#fff;stroke:#000;stroke-miterlimit:10;stroke-width:4px;}</style></defs><path class="cls-1" d="M1440-.28C1419.64,14,1402.51,42.42,1382.25,54c-22.44,12.77-51.44,1.49-75.76-.49-69.34-5.67-170.84,12.58-171.79,100-3.33,19-28.89,5.47-39.37,52.81C1000.7,213.79,944.72,264.59,926.9,357,865,340.5,808,347.79,758.69,391c-2.93,2.5-10.6,2.19-14.62.23-37.26-21.25-69.92-5.63-104.38,12.63C600.42,334.1,501.47,350.29,488.32,431c-.6,3-1.35,7.93-3,8.38-17.25,4.69-31.71,20.32-51.81,14.26-2.93-55.16-38.6-87.37-91.88-93.68-14.33-1.69-146.15,5.43-146.24,21.32.11-19.53-5.35-39.36-17.11-54.95-15.79-20.94-41.5-32.56-67.39-36.7-38.75-6.21-82.56-3-120,8v974.75h1452Z"/><path class="cls-1" d="M678.79,1273.33l764.11-3.27H10v3.27q-4.41-.49-8.82-.95c-2.35-.77-4.72-1.49-7.12-2.14"/></svg>