<svg id="Layer_1" data-name="Layer 1" xmlns="http://www.w3.org/2000/svg" viewBox="0 0 400 400"><defs><style>.cls-1{fill:#fff;}.cls-2{opacity:0.129;}</style></defs><path d="M95.678,341.129a.483.483,0,0,1-.426-.708,267.037,267.037,0,0,1,34.086-49.854.482.482,0,0,1,.729.631A266.162,266.162,0,0,0,96.1,340.872.482.482,0,0,1,95.678,341.129Z"/><path d="M83.678,331.651a.482.482,0,0,1-.4-.757,286.719,286.719,0,0,1,34.3-40.8.482.482,0,0,1,.677.687,285.839,285.839,0,0,0-34.185,40.663A.48.48,0,0,1,83.678,331.651Z"/><path d="M23.035,299.14a.482.482,0,0,1-.073-.959,280.084,280.084,0,0,0,89.5-29.908.482.482,0,1,1,.455.85,281.017,281.017,0,0,1-89.808,30.011A.471.471,0,0,1,23.035,299.14Z"/><path d="M26.125,331.651a.482.482,0,0,1-.254-.892l85.648-53.024a.482.482,0,1,1,.508.82L26.379,331.579A.48.48,0,0,1,26.125,331.651Z"/><path class="cls-1" d="M150.722,180.519a2.72,2.72,0,1,1,2.72,2.719A2.72,2.72,0,0,1,150.722,180.519Z"/><path d="M153.442,183.72a3.2,3.2,0,1,1,3.2-3.2A3.206,3.206,0,0,1,153.442,183.72Zm0-5.439a2.238,2.238,0,1,0,2.237,2.238A2.241,2.241,0,0,0,153.442,178.281Z"/><path class="cls-1" d="M259.094,113.756a2.72,2.72,0,1,1,2.719,2.72A2.719,2.719,0,0,1,259.094,113.756Z"/><path d="M261.813,116.958a3.2,3.2,0,1,1,3.2-3.2A3.206,3.206,0,0,1,261.813,116.958Zm0-5.439a2.238,2.238,0,1,0,2.238,2.237A2.24,2.24,0,0,0,261.813,111.519Z"/><path class="cls-1" d="M265.625,265.928a4.584,4.584,0,1,1,4.584,4.584A4.584,4.584,0,0,1,265.625,265.928Z"/><path d="M270.209,271a5.067,5.067,0,1,1,5.066-5.067A5.072,5.072,0,0,1,270.209,271Zm0-9.169a4.1,4.1,0,1,0,4.1,4.1A4.106,4.106,0,0,0,270.209,261.826Z"/><path class="cls-1" d="M353.208,212.388l-64.41,1.624c-5.952.15-12.523.093-17.007-3.75-5.09-4.364-5.144-13.159-.108-17.561s13.96-3.36,17.818,2.081c-.125-8.8,8.907-16.119,17.891-15.785s16.912,7.063,20.156,15.276c-.633-5.529,6.033-10.013,11.525-8.57s8.994,7.161,9.231,12.72c4.034-5.746,14.3-5.454,18.016.512a8.53,8.53,0,0,1,1.348,5.313c-.406,3.94-4.113,6.932-8.041,7.878S351.572,212.415,353.208,212.388Z"/><path d="M286.138,214.533c-5.431,0-10.794-.591-14.661-3.905a12.53,12.53,0,0,1-.111-18.29,12.523,12.523,0,0,1,9.747-2.764,12.753,12.753,0,0,1,7.953,3.9,15.284,15.284,0,0,1,4.764-9.567,18.855,18.855,0,0,1,13.58-5.4c8,.3,15.859,5.83,19.748,13.693a8.34,8.34,0,0,1,2.825-4.635,10.469,10.469,0,0,1,9.212-2.336c5.547,1.458,8.845,6.908,9.487,11.953a11.369,11.369,0,0,1,8.755-3.385,11.1,11.1,0,0,1,9.292,4.875,9.01,9.01,0,0,1,1.418,5.617c-.455,4.419-4.677,7.4-8.407,8.3-2.537.611-6.09.666-7.055.289l-63.874,1.61C287.922,214.517,287.029,214.533,286.138,214.533Zm-6.709-24.095A11.235,11.235,0,0,0,272,193.064a11.57,11.57,0,0,0,.105,16.832c4.244,3.637,10.311,3.8,16.681,3.634l64.266-1.62.148,0a.483.483,0,0,1,.388.186,19.7,19.7,0,0,0,5.926-.435c3.411-.822,7.267-3.507,7.674-7.458a8.048,8.048,0,0,0-1.277-5.009,10.962,10.962,0,0,0-17.213-.49.482.482,0,0,1-.876-.256c-.212-5-3.328-10.818-8.872-12.274a9.479,9.479,0,0,0-8.336,2.132,6.861,6.861,0,0,0-2.587,5.916.482.482,0,0,1-.928.232c-3.36-8.508-11.471-14.664-19.725-14.971A17.844,17.844,0,0,0,294.5,184.6a14.031,14.031,0,0,0-4.521,10.175.482.482,0,0,1-.875.286A11.49,11.49,0,0,0,281,190.532,13.224,13.224,0,0,0,279.429,190.438Zm73.563,22.445Z"/><g class="cls-2"><path d="M364.886,206.5l-.015.016a9.624,9.624,0,0,1-2.342,1.623,14.816,14.816,0,0,1-4.835.956c-2.039.114-4.065-.27-6.105-.277-5.473-.02-10.946.142-16.419.064-7.036.094-14.073.18-21.107.335-2.466.1-4.923.343-7.384.51-2.849.177-5.7.274-8.552.438-4.268.092-8.547.422-12.813.115-.692-.061-1.485-.289-2.02.29a1.376,1.376,0,0,0,.966,2.332,59.67,59.67,0,0,0,8.949.211c1.151-.019,2.3-.05,3.453-.086a.829.829,0,0,0,.752.439c3.494.285,7.006.135,10.507.253q12.341.414,24.677-.312c3.047-.165,6.1-.264,9.145-.389q1.608-.072,3.215-.151a1.188,1.188,0,0,0,.9-.261.8.8,0,0,0,.236-.572c1.964.02,3.928.029,5.892,0,.478,0,.987-.008,1.516-.019a.791.791,0,0,0,.392.723,1.646,1.646,0,0,0,.984.065c.586-.054,1.171-.126,1.755-.2a26.552,26.552,0,0,0,3.017-.635,5.358,5.358,0,0,0,1.3-.442.755.755,0,0,0,.329-.588,9.768,9.768,0,0,0,4.2-2.57c.332-.384.874-.7.879-1.252A.871.871,0,0,0,364.886,206.5Z"/></g><path class="cls-1" d="M239.192,333.174q18.483.287,36.948-.9a12.258,12.258,0,0,0,4.675-.931c3.639-1.788,4.472-7.381,1.687-10.328s-8.153-2.616-10.762.487c-.246-4.551-3.778-9.018-8.325-9.333a10.161,10.161,0,0,0-7.777,3.357,21.806,21.806,0,0,0-4.359,7.516,4.676,4.676,0,0,0-4.265-3.467,10.024,10.024,0,0,0-5.617,1.516c-2.35,1.287-4.592,3.1-5.471,5.635S235.981,333.125,239.192,333.174Z"/><path d="M246.313,333.712q-3.572,0-7.128-.055h0a3.707,3.707,0,0,1-3.09-1.637,6.4,6.4,0,0,1-.624-5.451c.79-2.278,2.707-4.263,5.694-5.9a10.24,10.24,0,0,1,5.893-1.573,5.532,5.532,0,0,1,4.24,2.591,20.684,20.684,0,0,1,3.992-6.5,10.668,10.668,0,0,1,8.159-3.5c4.248.294,7.951,4.12,8.664,8.746a8.064,8.064,0,0,1,5.1-1.933,7.419,7.419,0,0,1,5.636,2.183,7.135,7.135,0,0,1,1.662,6.173,6.642,6.642,0,0,1-3.487,4.919,12.853,12.853,0,0,1-4.857.979C266.278,333.392,256.264,333.712,246.313,333.712Zm-7.113-1.02c12.256.19,24.675-.112,36.909-.9a11.907,11.907,0,0,0,4.493-.883,5.687,5.687,0,0,0,2.964-4.225,6.162,6.162,0,0,0-1.414-5.338,6.467,6.467,0,0,0-4.907-1.882,7.023,7.023,0,0,0-5.137,2.347.482.482,0,0,1-.85-.284c-.248-4.612-3.782-8.595-7.876-8.878a9.7,9.7,0,0,0-7.4,3.21,21.557,21.557,0,0,0-4.255,7.353.482.482,0,0,1-.925-.087c-.321-1.793-2.216-2.921-3.836-3.071a9.344,9.344,0,0,0-5.341,1.458c-2.771,1.519-4.536,3.326-5.246,5.371a5.382,5.382,0,0,0,.5,4.582,2.741,2.741,0,0,0,2.315,1.225Z"/><g class="cls-2"><path d="M284.24,326.377a1.079,1.079,0,0,0-1.607-.79,1.2,1.2,0,0,0-.4.416c-.017.024-.036.047-.052.072a4.165,4.165,0,0,1-1.447,1.54c-.772.536-6,1.539-6.729,1.552a62.187,62.187,0,0,1-7.718.306c-1.349-.065-2.7.009-4.049.011-1.484-.006-2.968-.078-4.451,0-3.823.118-7.633.429-11.45.651-1.834.024-3.668.091-5.5.151-.61.016-1.219.047-1.829.076a1.25,1.25,0,0,0,0,2.5c2.953-.149,5.911-.076,8.864-.176,3.175-.134,6.342-.383,9.522-.393,1.795-.082,3.589.07,5.383.1,1.855-.029,3.708,0,5.562-.018,2.566-.133,4.765-.41,6.721-.683a1.038,1.038,0,0,0,1.3.748,15.266,15.266,0,0,0,4-.913,3.659,3.659,0,0,0,1.583-1.05,1.042,1.042,0,0,0,.083-.912c.217-.146.435-.306.662-.485a4.87,4.87,0,0,0,1.516-2.21c.006-.02.008-.04.012-.06l0,0A.821.821,0,0,0,284.24,326.377Z"/></g><path class="cls-1" d="M130.588,63.9c-.754.2-1.164-.914-.5-1.316l.047-.028c1.993-1.145,8.371-2.077,9.266-2.157,1.027-.091,2.053-.183,2.939-.29-2.5-1.033-6.4-3.592-9.142-3.653h0a.655.655,0,0,1-.367-1.216,1.956,1.956,0,0,1,.2-.1,4.476,4.476,0,0,1,1.808-.243c3.226.036,6.335,1.975,9.459,2.772a32.775,32.775,0,0,0,3.195.794,17.971,17.971,0,0,1,1.27-7.135.979.979,0,0,1,1.824.059l.01.029c.029,1.883-.418,2.6.453,6.477.255,1.136,1.718,2.36,2.2,3.419a30.6,30.6,0,0,1,1.276,4.765A13.69,13.69,0,0,0,158.7,72.7a4.455,4.455,0,0,1-3.119,2.236c-1.7-2.665-4.584-4.518-7.453-5.855a8.73,8.73,0,0,0-4.018-1.063,14.407,14.407,0,0,0-2.7.566c-2.515.615-6.468,1.668-6.468,1.668-1.028-.2-.391-1.049-.009-1.15l3.471-1.649a5.961,5.961,0,0,0,3.09-1.722c-1.954-.92-6.05.729-9.8,1.407-1.225.222-1.056-.707-.725-1.2,1.059-1.165,9.268-2.47,10.9-3.036C141.88,62.9,133.675,63.069,130.588,63.9Z"/><path d="M155.584,75.418a.483.483,0,0,1-.407-.224c-1.4-2.2-3.769-4.054-7.249-5.677a8.139,8.139,0,0,0-3.792-1.018,9.236,9.236,0,0,0-1.942.379c-.222.06-.445.119-.668.174-2.481.606-6.418,1.654-6.458,1.665a.483.483,0,0,1-.214.008c-.833-.159-.941-.686-.949-.906a1.313,1.313,0,0,1,.854-1.168l3.44-1.635a.494.494,0,0,1,.084-.03,6.873,6.873,0,0,0,2.278-1.016,17.264,17.264,0,0,0-5.309.849c-1.138.287-2.314.584-3.465.792-.82.149-1.2-.137-1.375-.4a1.455,1.455,0,0,1,.164-1.541c.013-.019.028-.038.043-.056.626-.688,2.878-1.3,5.914-1.982a36.069,36.069,0,0,0-5.819.741,1.117,1.117,0,0,1-1.336-.672,1.2,1.2,0,0,1,.466-1.524l.057-.033c2.178-1.251,8.817-2.161,9.463-2.218l1.2-.109c-.318-.159-.646-.326-.981-.5-2.145-1.095-4.576-2.335-6.389-2.375a1.137,1.137,0,0,1-.6-2.117,2.553,2.553,0,0,1,.257-.127,4.893,4.893,0,0,1,2-.281,17.833,17.833,0,0,1,6.156,1.6,29.908,29.908,0,0,0,3.417,1.184c.152.039.392.106.675.185.545.153,1.358.381,1.931.506a17.79,17.79,0,0,1,1.3-6.754,1.462,1.462,0,0,1,2.723.088.711.711,0,0,1,.038.182c.007.518-.02.952-.046,1.372a14.9,14.9,0,0,0,.486,5.006,5.452,5.452,0,0,0,1.126,1.8,7.956,7.956,0,0,1,1.047,1.524,14.794,14.794,0,0,1,.924,3.194c.114.545.231,1.109.379,1.646a13.258,13.258,0,0,0,4.015,6.384.484.484,0,0,1,.153.47c-.207.911-1.777,2.246-3.492,2.6A.552.552,0,0,1,155.584,75.418ZM144.346,67.53a9.618,9.618,0,0,1,3.989,1.113c3.5,1.632,5.946,3.513,7.464,5.742a4.615,4.615,0,0,0,2.321-1.562,14.242,14.242,0,0,1-4.043-6.615c-.156-.566-.277-1.145-.394-1.7a13.813,13.813,0,0,0-.857-2.988,7.291,7.291,0,0,0-.923-1.324A6.02,6.02,0,0,1,150.589,58a15.884,15.884,0,0,1-.507-5.278c.024-.394.047-.767.044-1.209a.5.5,0,0,0-.438-.3.487.487,0,0,0-.471.3,17.664,17.664,0,0,0-1.232,6.955.481.481,0,0,1-.523.472,19.792,19.792,0,0,1-2.62-.627c-.274-.077-.506-.142-.654-.18a30.632,30.632,0,0,1-3.53-1.22,17.137,17.137,0,0,0-5.815-1.537,4.076,4.076,0,0,0-1.614.2,1.467,1.467,0,0,0-.154.076.144.144,0,0,0-.069.183.161.161,0,0,0,.177.133c2.065.045,4.6,1.338,6.837,2.48.916.467,1.782.908,2.51,1.209a.483.483,0,0,1-.127.925c-.893.108-1.939.2-2.951.291-.918.082-7.185,1.012-9.072,2.095l-.039.023a.252.252,0,0,0-.076.319c.066.155.161.129.2.119h0c3.109-.841,11.071-1.014,11.408-1.021h.01a.482.482,0,0,1,.158.938c-.558.193-1.746.447-3.25.768-2.53.541-6.743,1.442-7.432,2.112a.756.756,0,0,0-.135.446s.042.007.129.007a1.508,1.508,0,0,0,.265-.027c1.119-.2,2.279-.5,3.4-.778,2.773-.7,5.169-1.305,6.686-.59a.483.483,0,0,1,.181.725,6.5,6.5,0,0,1-3.31,1.887l-3.432,1.631a.457.457,0,0,1-.083.031.493.493,0,0,0-.167.17.479.479,0,0,0,.046.016c.675-.179,4.111-1.089,6.36-1.639.216-.053.432-.111.647-.169a10.2,10.2,0,0,1,2.146-.411C144.175,67.532,144.261,67.53,144.346,67.53Z"/><path d="M209.255,161.027a9.394,9.394,0,0,1,3.529-.17l9.672.756c1.875.147,3.988.419,5.107,1.93a4.121,4.121,0,0,1,.494,3.6,7.493,7.493,0,0,1-2.042,3.113,7.4,7.4,0,0,1-3.362,2.023c-2.682.638-5.368-.92-7.553-2.6a47.248,47.248,0,0,1-4.916-4.354,4.554,4.554,0,0,1-1.3-1.909A3.259,3.259,0,0,1,209.255,161.027Z"/><path d="M221.392,172.9c-2.55,0-4.927-1.57-6.586-2.845a47.639,47.639,0,0,1-4.966-4.4,4.976,4.976,0,0,1-1.418-2.123,3.7,3.7,0,0,1,.462-2.818.48.48,0,0,1,.227-.152,9.844,9.844,0,0,1,3.71-.191l9.673.756c2,.156,4.226.462,5.456,2.124a4.567,4.567,0,0,1,.569,4.022,9.065,9.065,0,0,1-5.755,5.466A5.882,5.882,0,0,1,221.392,172.9Zm-11.825-11.464a2.9,2.9,0,0,0-.213,1.85,4.115,4.115,0,0,0,1.174,1.7,46.83,46.83,0,0,0,4.866,4.31c1.8,1.38,4.491,3.144,7.147,2.512A8.127,8.127,0,0,0,227.6,167a3.652,3.652,0,0,0-.42-3.17c-.989-1.336-2.974-1.6-4.756-1.736l-9.673-.757A9.551,9.551,0,0,0,209.567,161.439Z"/><path class="cls-1" d="M184.426,162.362a223.186,223.186,0,0,0,9.242-46.43c-9-6.776-27.4-8.862-31.334-17.363-5.183-11.212-10.073-19.891-11.729-27.693,0,0,7.586-2.479,7.325-2.539,2.018,5.927,8.861,15.923,14.662,24.214,2.788,3.986,16.635,3.726,25.137,6.224,16.052,5.1,24.372,2.076,32.446,15.656,5.153,8.666,4.695,23.22,19.992,44.1a42.233,42.233,0,0,1-7.4,6.145l-7.841-10.7a62.808,62.808,0,0,1-5.45-8.328,62.877,62.877,0,0,1-3.772-10.024c-.97-3.1-1.939-6.2-3.245-9.573-4.159,14.561-6.159,30.924-14.812,42.924C199.614,167.333,191.142,165.479,184.426,162.362Z"/><path d="M207.648,169.452a.447.447,0,0,1-.1-.01c-8.13-1.655-16.628-3.533-23.329-6.643a.481.481,0,0,1-.258-.577,223.267,223.267,0,0,0,9.2-46.063c-3.622-2.653-8.8-4.611-13.818-6.505-7.738-2.923-15.048-5.685-17.45-10.882-1.288-2.785-2.547-5.392-3.764-7.913-3.619-7.493-6.744-13.964-8-19.883a.484.484,0,0,1,.322-.559c2.491-.814,6.521-2.159,7.156-2.442a.481.481,0,0,1,.426-.108.5.5,0,0,1,.372.382c2,5.8,8.572,15.441,14.578,24.026,1.616,2.31,7.8,3.168,13.787,4a81.218,81.218,0,0,1,11.091,2.04,107.519,107.519,0,0,0,11.888,2.927c8.994,1.819,14.936,3.02,20.837,12.945,1.819,3.06,2.959,6.87,4.279,11.281,2.561,8.561,5.749,19.216,15.687,32.778a.483.483,0,0,1-.045.624,42.468,42.468,0,0,1-7.485,6.214.482.482,0,0,1-.646-.123l-7.842-10.7a63.456,63.456,0,0,1-5.49-8.393,63.516,63.516,0,0,1-3.8-10.1c-.822-2.63-1.666-5.328-2.716-8.172-.885,3.226-1.69,6.567-2.471,9.811-2.7,11.207-5.488,22.794-12.018,31.85A.483.483,0,0,1,207.648,169.452ZM185.009,162.1c6.464,2.924,14.6,4.738,22.429,6.336,6.29-8.866,9.031-20.248,11.682-31.258.9-3.73,1.826-7.587,2.876-11.263a.483.483,0,0,1,.914-.042c1.31,3.383,2.3,6.539,3.251,9.591a62.863,62.863,0,0,0,3.745,9.96,62.715,62.715,0,0,0,5.41,8.263l7.574,10.336a41.711,41.711,0,0,0,6.645-5.542c-9.847-13.545-13.163-24.628-15.59-32.739-1.3-4.35-2.426-8.107-4.184-11.064-5.683-9.557-11.458-10.725-20.2-12.492a108.655,108.655,0,0,1-11.979-2.95,80.386,80.386,0,0,0-10.941-2.008c-6.474-.9-12.588-1.744-14.445-4.4-5.9-8.433-12.343-17.883-14.546-23.836-.861.359-2.674.961-6.482,2.207,1.29,5.693,4.328,11.984,7.832,19.241,1.22,2.525,2.48,5.135,3.771,7.927,2.237,4.84,9.367,7.533,16.916,10.385,5.177,1.956,10.529,3.978,14.27,6.8a.481.481,0,0,1,.19.425A223.432,223.432,0,0,1,185.009,162.1Z"/><path class="cls-1" d="M213.166,92.569a63.523,63.523,0,0,1-5.737,10.013,23.2,23.2,0,0,0,2.892,6.342,2.346,2.346,0,0,0,3.608.969c1.711-.783,3.523-1.658,4.363-3.255a8.045,8.045,0,0,0,.664-2.253q.843-4.4,1.685-8.8l-5.12-2.529A3.1,3.1,0,0,0,213.166,92.569Z"/><path d="M212.315,110.835a2.226,2.226,0,0,1-.725-.117,3.42,3.42,0,0,1-1.674-1.531,23.633,23.633,0,0,1-2.952-6.474.479.479,0,0,1,.07-.407,63.412,63.412,0,0,0,5.694-9.939.48.48,0,0,1,.275-.252,3.508,3.508,0,0,1,2.731.507l5.121,2.529a.481.481,0,0,1,.26.523l-1.685,8.8a8.4,8.4,0,0,1-.712,2.387c-.876,1.666-2.6,2.557-4.589,3.468A4.457,4.457,0,0,1,212.315,110.835Zm-4.36-8.165a22.679,22.679,0,0,0,2.77,5.991,1.893,1.893,0,0,0,3,.793c1.829-.836,3.4-1.643,4.137-3.04a7.686,7.686,0,0,0,.618-2.12l1.616-8.441-4.792-2.367a3.259,3.259,0,0,0-1.8-.511A64.235,64.235,0,0,1,207.955,102.67Z"/><polygon class="cls-1" points="176.452 207.546 140.089 196.52 99.043 238.851 159.509 228.458 176.452 207.546"/><path d="M99.042,239.333a.482.482,0,0,1-.346-.817l41.047-42.332a.48.48,0,0,1,.486-.125l36.363,11.025a.483.483,0,0,1,.235.765l-16.943,20.913a.488.488,0,0,1-.293.171L99.124,239.326A.454.454,0,0,1,99.042,239.333Zm41.189-42.266-39.813,41.058,58.831-10.112L175.627,207.8Z"/><polygon class="cls-1" points="214.493 253.232 210.694 291.04 155.836 312.66 188.675 260.835 214.493 253.232"/><path d="M155.836,313.142a.482.482,0,0,1-.407-.74l32.839-51.825a.48.48,0,0,1,.271-.2l25.818-7.6a.482.482,0,0,1,.616.511l-3.8,37.807a.482.482,0,0,1-.3.4l-54.858,21.621A.491.491,0,0,1,155.836,313.142Zm33.149-51.9-31.95,50.423,53.208-20.97,3.7-36.8Z"/><path class="cls-1" d="M168.2,267.388c-9.829,8.694-12.154,14.1-15.827,19.3-11.457-10.444-19.849-22.571-24.78-35.987,9.751-1.675,16.041-4.364,23.5-7.9C156.42,251.644,163.018,259.531,168.2,267.388Z"/><path d="M152.368,287.167a.483.483,0,0,1-.325-.126c-11.587-10.563-19.967-22.734-24.908-36.177a.482.482,0,0,1,.371-.641c9.861-1.693,16.162-4.441,23.376-7.857a.481.481,0,0,1,.619.187c3.1,5.147,6.651,9.987,10.082,14.667,2.5,3.408,4.856,6.626,7.015,9.9a.483.483,0,0,1-.084.626,66.419,66.419,0,0,0-13.463,15.773c-.767,1.188-1.491,2.311-2.29,3.441a.482.482,0,0,1-.341.2Zm-24.127-36.094c4.854,12.925,12.94,24.656,24.046,34.885.667-.965,1.294-1.938,1.953-2.959a67.047,67.047,0,0,1,13.322-15.694c-2.083-3.137-4.356-6.238-6.757-9.514-3.361-4.585-6.833-9.322-9.9-14.368C143.922,246.719,137.718,249.384,128.241,251.073Z"/><path class="cls-1" d="M149.039,248.521a56.4,56.4,0,0,0,10.759,15.64,59.867,59.867,0,0,0,14.278,10.815c1.416.77,1.328.135,2.818.8,17.639-4.549,89.264-50.725,109.754-65.343,42.724-30.48,54.761-86.863,54.761-86.863s-57.231-6.966-99.955,23.513c-21.376,15.25-87.317,70.1-97.225,85.83A61.233,61.233,0,0,0,149.039,248.521Z"/><path d="M176.893,276.254a.475.475,0,0,1-.195-.042,2.959,2.959,0,0,0-1.222-.314,3.286,3.286,0,0,1-1.63-.5,60.2,60.2,0,0,1-14.394-10.9,56.736,56.736,0,0,1-10.85-15.774,61.712,61.712,0,0,1-4.848-15.736.479.479,0,0,1,.067-.336c9.909-15.73,75.376-70.286,97.353-85.965,22.155-15.806,48.244-21.38,66.228-23.274a168.614,168.614,0,0,1,34.065-.325.481.481,0,0,1,.413.579,168.651,168.651,0,0,1-11.393,32.1c-7.643,16.39-21.4,39.245-43.558,55.05-19.621,14-91.816,60.75-109.915,65.417A.452.452,0,0,1,176.893,276.254Zm-32.157-43.243a60.724,60.724,0,0,0,4.741,15.308h0a55.767,55.767,0,0,0,10.666,15.506,59.232,59.232,0,0,0,14.163,10.727,2.394,2.394,0,0,0,1.224.384,3.744,3.744,0,0,1,1.4.327c17.495-4.678,88.616-50.373,109.438-65.227,21.976-15.678,35.64-38.372,43.233-54.649a171.428,171.428,0,0,0,11.216-31.4,171.488,171.488,0,0,0-33.34.388c-17.862,1.883-43.767,7.419-65.744,23.1C219.873,163.068,154.922,217.163,144.736,233.011Z"/><path class="cls-1" d="M175.183,266.35a67,67,0,0,1-17.09-18.938,69.946,69.946,0,0,1-6.226-12.758,60.619,60.619,0,0,1-2.162-7.037c-.1-.411-.191-.826-.282-1.241a52.669,52.669,0,0,0-5.194,6.533,61.233,61.233,0,0,0,4.81,15.612,56.4,56.4,0,0,0,10.759,15.64,59.867,59.867,0,0,0,14.278,10.815c1.416.77,1.328.135,2.818.8a57.653,57.653,0,0,0,9.189-3.632A43.435,43.435,0,0,1,175.183,266.35Z"/><path d="M176.893,276.254a.475.475,0,0,1-.195-.042,2.959,2.959,0,0,0-1.222-.314,3.286,3.286,0,0,1-1.63-.5,60.2,60.2,0,0,1-14.394-10.9,56.736,56.736,0,0,1-10.85-15.774,61.712,61.712,0,0,1-4.848-15.736.479.479,0,0,1,.067-.336,52.979,52.979,0,0,1,5.244-6.6.482.482,0,0,1,.83.22c.09.412.182.823.279,1.232a59.548,59.548,0,0,0,2.145,6.98,69.869,69.869,0,0,0,6.183,12.671,66.011,66.011,0,0,0,16.963,18.8,42.951,42.951,0,0,0,10.78,5.725.483.483,0,0,1,.044.891,57.716,57.716,0,0,1-9.275,3.662A.452.452,0,0,1,176.893,276.254Zm-32.157-43.243a60.724,60.724,0,0,0,4.741,15.308,55.767,55.767,0,0,0,10.666,15.506,59.232,59.232,0,0,0,14.163,10.727,2.394,2.394,0,0,0,1.224.384,3.744,3.744,0,0,1,1.4.327,53.612,53.612,0,0,0,7.9-3.073,44.323,44.323,0,0,1-9.933-5.449h0a66.98,66.98,0,0,1-17.216-19.074,70.686,70.686,0,0,1-6.269-12.846,60.443,60.443,0,0,1-2.179-7.092c-.026-.11-.052-.221-.077-.331A49.555,49.555,0,0,0,144.736,233.011Z"/><path class="cls-1" d="M270.283,147.664c2.743,5.049,5.628,10.016,8.742,14.833A147.885,147.885,0,0,0,289.1,176.366,107.472,107.472,0,0,0,300.852,188.6q2.514,2.217,5.2,4.242c27.1-30.6,35.358-69.271,35.358-69.271s-39.794-4.842-77.788,11.22C265.774,139.117,267.978,143.42,270.283,147.664Z"/><path d="M306.051,193.319a.479.479,0,0,1-.291-.1c-1.852-1.4-3.611-2.839-5.227-4.265a108.5,108.5,0,0,1-11.8-12.283,147.284,147.284,0,0,1-10.112-13.915c-2.893-4.474-5.758-9.336-8.761-14.863h0c-2.092-3.853-4.212-7.95-6.67-12.894a.483.483,0,0,1,.244-.659c19.691-8.325,39.855-10.941,53.3-11.671a157.659,157.659,0,0,1,24.73.417.481.481,0,0,1,.413.579,157.237,157.237,0,0,1-7.539,23.239c-4.989,12.346-13.883,30.391-27.929,46.25A.477.477,0,0,1,306.051,193.319Zm-35.344-45.885c2.99,5.506,5.844,10.347,8.723,14.8a146.278,146.278,0,0,0,10.046,13.824,107.421,107.421,0,0,0,11.695,12.174c1.494,1.319,3.113,2.645,4.816,3.948,13.778-15.669,22.527-33.433,27.451-45.615a161.889,161.889,0,0,0,7.381-22.579,162.247,162.247,0,0,0-24.053-.351c-13.258.72-33.081,3.285-52.484,11.4,2.356,4.729,4.4,8.681,6.425,12.4Z"/><path class="cls-1" d="M306.061,178.808q-5.026-5.375-9.534-11.206c-3.02-3.905-5.868-7.943-8.506-12.116-2.616-4.139-5.046-8.4-7.238-12.777q-3-5.989-5.477-12.225c-3.884,1.234-7.794,2.657-11.685,4.3,2.153,4.331,4.357,8.634,6.662,12.878,2.743,5.049,5.628,10.016,8.742,14.833A147.885,147.885,0,0,0,289.1,176.366,107.472,107.472,0,0,0,300.852,188.6q2.514,2.217,5.2,4.242c2.223-2.51,4.312-5.075,6.286-7.666C310.179,183.114,308.092,180.98,306.061,178.808Z"/><path d="M306.051,193.319a.479.479,0,0,1-.291-.1c-1.852-1.4-3.611-2.839-5.227-4.265a108.5,108.5,0,0,1-11.8-12.283,147.284,147.284,0,0,1-10.112-13.915c-2.893-4.474-5.758-9.336-8.761-14.863-2.092-3.853-4.212-7.95-6.67-12.894a.483.483,0,0,1,.244-.659c3.74-1.581,7.686-3.034,11.727-4.318a.481.481,0,0,1,.594.282c1.639,4.124,3.476,8.224,5.46,12.187,2.11,4.215,4.538,8.5,7.215,12.735,2.558,4.048,5.411,8.112,8.479,12.079,2.988,3.864,6.186,7.623,9.5,11.172h0c2.2,2.35,4.245,4.425,6.257,6.342a.485.485,0,0,1,.051.642c-2.064,2.709-4.187,5.3-6.309,7.693A.477.477,0,0,1,306.051,193.319Zm-41.769-58.288c2.356,4.729,4.4,8.681,6.425,12.4,2.99,5.506,5.844,10.347,8.723,14.8a146.278,146.278,0,0,0,10.046,13.824,107.421,107.421,0,0,0,11.695,12.174c1.494,1.319,3.113,2.645,4.816,3.948,1.917-2.182,3.834-4.52,5.7-6.96-1.925-1.847-3.886-3.841-5.983-6.083h0c-3.34-3.571-6.558-7.353-9.564-11.241-3.086-3.992-5.957-8.081-8.531-12.154-2.694-4.262-5.137-8.575-7.262-12.818-1.929-3.854-3.72-7.836-5.327-11.845C271.331,132.266,267.721,133.594,264.282,135.031Z"/><circle class="cls-1" cx="245.699" cy="193.735" r="19.146" transform="translate(12.882 402.774) rotate(-80.176)"/><path d="M245.741,213.367a19.888,19.888,0,0,1-3.28-.273,19.551,19.551,0,1,1,3.28.273Zm-.082-38.3a18.714,18.714,0,1,0,3.119.26A18.917,18.917,0,0,0,245.659,175.067Z"/><path class="cls-1" d="M237.74,182.579a13.7,13.7,0,1,1-3.2,19.114A13.705,13.705,0,0,1,237.74,182.579Z"/><path d="M245.729,207.924a14.285,14.285,0,0,1-2.37-.2,14.186,14.186,0,0,1-5.9-25.539h0a14.186,14.186,0,1,1,8.269,25.737Zm-7.709-24.953h0a13.222,13.222,0,1,0,18.442,3.085A13.138,13.138,0,0,0,238.02,182.971Z"/><circle class="cls-1" cx="190.994" cy="230.204" r="16.198" transform="translate(-25.491 23.789) rotate(-6.682)"/><path d="M191.017,246.879a16.677,16.677,0,0,1-9.71-30.253h0a16.68,16.68,0,1,1,9.71,30.253Zm-.056-32.394a15.6,15.6,0,0,0-9.094,2.926h0a15.716,15.716,0,1,0,11.72-2.707A15.99,15.99,0,0,0,190.961,214.485Zm-9.374,2.533h0Z"/><path class="cls-1" d="M184.261,220.766a11.594,11.594,0,1,1-2.7,16.172A11.594,11.594,0,0,1,184.261,220.766Z"/><path d="M191.02,242.283a12.3,12.3,0,0,1-2.018-.168,12.076,12.076,0,0,1-5.021-21.741h0a12.076,12.076,0,1,1,7.039,21.909Zm-.049-23.193a11.029,11.029,0,0,0-6.43,2.069h0a11.06,11.06,0,1,0,6.43-2.069Zm-6.71,1.676h0Z"/><path class="cls-1" d="M209.622,113.877a39.824,39.824,0,0,1-8.675,8.4,18.2,18.2,0,0,1-11.427,3.291c-4.6-.4-8.914-3.031-13.519-2.7-4.206.305-7.889,3.042-12.066,3.91l8.678,5.407a19.679,19.679,0,0,0,4.506,2.3,15.6,15.6,0,0,0,6.076.387,37.836,37.836,0,0,0,27.942-17.177,4.564,4.564,0,0,0,.913-2.455C212.028,114.347,211.323,113.42,209.622,113.877Z"/><path d="M180.889,135.47a13.309,13.309,0,0,1-3.912-.531,20.021,20.021,0,0,1-4.619-2.348l-8.678-5.406a.483.483,0,0,1,.157-.882,28.174,28.174,0,0,0,5.211-1.832,21.933,21.933,0,0,1,6.918-2.086,21.756,21.756,0,0,1,7.852,1.37,28.635,28.635,0,0,0,5.744,1.327,17.739,17.739,0,0,0,11.119-3.212,40.028,40.028,0,0,0,8.565-8.3.48.48,0,0,1,.251-.163,2.531,2.531,0,0,1,2.271.264,1.966,1.966,0,0,1,.764,1.547,5,5,0,0,1-.988,2.724,38.493,38.493,0,0,1-28.3,17.4C182.531,135.412,181.733,135.47,180.889,135.47Zm-15.731-8.5,7.71,4.8a19.319,19.319,0,0,0,4.393,2.244,15.3,15.3,0,0,0,5.888.368,37.509,37.509,0,0,0,27.58-16.954,4.139,4.139,0,0,0,.839-2.186,1.009,1.009,0,0,0-.377-.8,1.579,1.579,0,0,0-1.3-.142,40.536,40.536,0,0,1-8.68,8.367,18.667,18.667,0,0,1-11.735,3.37,29.345,29.345,0,0,1-5.942-1.366,20.757,20.757,0,0,0-7.5-1.331,20.9,20.9,0,0,0-6.609,2.012A36.135,36.135,0,0,1,165.158,126.969Z"/><path class="cls-1" d="M223.631,221.4c-1.608,3.044-3.353,6.015-4.972,9.692l5.747,3.54a33.616,33.616,0,0,0,9,4.37c.282-2.207-1.009-4.3-2.446-6s-3.118-3.291-3.883-5.381c-.412-1.125-.534-2.338-.917-3.474A4.118,4.118,0,0,0,223.631,221.4Z"/><path d="M233.4,239.487a.458.458,0,0,1-.122-.015,34.1,34.1,0,0,1-9.128-4.426l-5.748-3.54a.482.482,0,0,1-.188-.6c1.212-2.75,2.491-5.1,3.728-7.381.426-.785.847-1.561,1.26-2.342a.482.482,0,0,1,.584-.23A4.591,4.591,0,0,1,226.614,224a16.31,16.31,0,0,1,.441,1.7,13.566,13.566,0,0,0,.471,1.765,13.961,13.961,0,0,0,2.912,4.218c.3.338.6.676.887,1.017,1.971,2.33,2.807,4.415,2.556,6.375a.48.48,0,0,1-.478.42Zm-14.133-8.581,5.389,3.319a35.425,35.425,0,0,0,8.3,4.156c0-1.525-.783-3.188-2.371-5.066-.284-.336-.579-.668-.873-1a11.123,11.123,0,0,1-3.6-6.415,15.524,15.524,0,0,0-.412-1.6,3.719,3.719,0,0,0-1.85-2.286c-.348.653-.7,1.305-1.059,1.963C221.623,226.132,220.416,228.355,219.27,230.906Z"/><path d="M184.442,162.142c-1.2,6.686-1.937,11.826,2.508,16.963,4.649,5.372,12.384,4.973,27.8,4.973.982,0,5.579.287,6.4.828,1.264.833.486,25.115-.214,39.544,2.95.567,5.9,1.135,8.675.754,12.023-52.775,8.4-48.628,4.486-52.88-5.093-5.535-19.581-7.176-23.144-7.6a73.543,73.543,0,0,0-8.987-.694C195.668,164.06,188.354,165.359,184.442,162.142Z"/><path d="M227.705,225.809a37.069,37.069,0,0,1-6.865-.885.483.483,0,0,1-.39-.5c.864-17.828,1.288-37.513.386-39.144-.747-.4-4.749-.723-6.09-.723q-1.542,0-2.983,0c-13.342.024-20.694.037-25.177-5.143-4.756-5.5-3.718-11.261-2.618-17.365a.482.482,0,0,1,.781-.287c2.91,2.395,8.015,2.154,12.952,1.922,1.411-.067,2.869-.135,4.258-.142a72.769,72.769,0,0,1,9.046.7l.159.019c12.037,1.423,19.871,4.024,23.283,7.732a13.886,13.886,0,0,0,1.151,1.086c3.542,3.085,5.321,4.635-5.522,52.227a.483.483,0,0,1-.405.371A14.567,14.567,0,0,1,227.705,225.809Zm-6.272-1.753a27.1,27.1,0,0,0,7.778.711c10.632-46.711,8.793-48.308,5.753-50.956a14.436,14.436,0,0,1-1.226-1.16c-2.236-2.429-7.987-5.69-22.688-7.428l-.158-.018a73.158,73.158,0,0,0-8.928-.691c-1.369.006-2.817.074-4.218.14-4.788.226-9.729.459-12.965-1.665-1.172,6.678-1.471,11.174,2.534,15.8,4.195,4.846,10.968,4.831,24.447,4.81q1.442,0,2.984,0c.447,0,5.617.218,6.664.907.4.264,1.07.705.847,15.084C222.151,206.369,221.844,215.486,221.433,224.056Zm-.615-38.8Z"/><path d="M204.611,65.451a108.254,108.254,0,0,0,1.216,12.2,29.463,29.463,0,0,0,2.15,7.288,4.214,4.214,0,0,0,1.977,2.244c.168-1,1.266-1.389,1.532-2.372.326-1.208-.352-2.372.5-3.385a18.06,18.06,0,0,0,3.51-6.39,8.819,8.819,0,0,0,.07-5.756,6.463,6.463,0,0,0-4.848-3.939C208.953,65.033,206.123,64.472,204.611,65.451Z"/><path d="M209.954,87.661a.479.479,0,0,1-.248-.069,4.7,4.7,0,0,1-2.169-2.459,29.873,29.873,0,0,1-2.187-7.413,108.147,108.147,0,0,1-1.221-12.246.482.482,0,0,1,.22-.427c1.594-1.033,4.351-.552,6.175-.233l.277.048a6.945,6.945,0,0,1,5.216,4.24,9.14,9.14,0,0,1-.058,6.07,18.456,18.456,0,0,1-3.6,6.561,2.085,2.085,0,0,0-.317,1.628,4.717,4.717,0,0,1-.088,1.572,3.158,3.158,0,0,1-.88,1.347,1.989,1.989,0,0,0-.641.979.484.484,0,0,1-.274.358A.49.49,0,0,1,209.954,87.661Zm-4.847-21.936a106.849,106.849,0,0,0,1.2,11.849,28.909,28.909,0,0,0,2.114,7.164,3.648,3.648,0,0,0,1.294,1.706,4.158,4.158,0,0,1,.662-.83,2.3,2.3,0,0,0,.647-.933,3.861,3.861,0,0,0,.057-1.261,2.964,2.964,0,0,1,.541-2.308,17.5,17.5,0,0,0,3.418-6.22,8.222,8.222,0,0,0,.081-5.442,5.96,5.96,0,0,0-4.48-3.638l-.279-.048C208.779,65.488,206.44,65.08,205.107,65.725Z"/><path class="cls-1" d="M232.174,74.2c-.331,3.309.177,6.651.037,9.973s-1.036,6.789-3.7,9.2a12.207,12.207,0,0,1-9.42,2.778,11.5,11.5,0,0,1-8.267-4.91c-1.541-2.45-1.6-7.638-1.727-10.238a4.766,4.766,0,0,1-4.117-1.5,2.6,2.6,0,0,1,.314-3.635c1.11-.915,2.473-1,3.952.512a24.09,24.09,0,0,1,.67-5.152c.567-2.577.8-6.43,2.663-7.451a20.291,20.291,0,0,1,4.466-1.28c2.116-.444,4.961,1.019,7.15,1.117a12.388,12.388,0,0,1,6.09,2.424C232.33,67.443,232.423,71.72,232.174,74.2Z"/><path d="M220.578,96.72a12.922,12.922,0,0,1-1.547-.092,11.962,11.962,0,0,1-8.618-5.133c-1.451-2.306-1.637-6.693-1.761-9.6-.006-.133-.011-.263-.017-.388A5.139,5.139,0,0,1,204.6,79.8a3.061,3.061,0,0,1,.384-4.307,2.938,2.938,0,0,1,3.808-.138,26.623,26.623,0,0,1,.636-4.17l.014-.063c.116-.526.217-1.1.324-1.716.422-2.407.9-5.135,2.578-6.055a19.757,19.757,0,0,1,4.46-1.3l.139-.029a10.134,10.134,0,0,1,4.447.54,14.155,14.155,0,0,0,2.824.568,12.571,12.571,0,0,1,6.341,2.507c2.638,1.811,2.212,7.486,2.1,8.605l-.479-.048.479.048a39.477,39.477,0,0,0-.024,5.556c.061,1.436.125,2.922.063,4.389-.175,4.17-1.475,7.38-3.861,9.54A12.478,12.478,0,0,1,220.578,96.72Zm-11.484-16.2a.482.482,0,0,1,.482.458c.013.268.026.564.039.881.112,2.631.3,7.034,1.614,9.124a10.979,10.979,0,0,0,7.917,4.688,11.68,11.68,0,0,0,9.038-2.656c2.189-1.981,3.382-4.963,3.545-8.865.061-1.427,0-2.892-.063-4.308a40.092,40.092,0,0,1,.029-5.693c.284-2.83.012-6.548-1.686-7.713a11.643,11.643,0,0,0-5.839-2.34,15.055,15.055,0,0,1-3.029-.6,9.506,9.506,0,0,0-4-.528L217,63a19.258,19.258,0,0,0-4.194,1.2c-1.272.7-1.708,3.183-2.092,5.376-.109.622-.212,1.21-.332,1.756l-.014.064a23.344,23.344,0,0,0-.644,4.983.482.482,0,0,1-.827.338c-1.165-1.191-2.245-1.347-3.3-.477a2.1,2.1,0,0,0-.244,2.962,4.317,4.317,0,0,0,3.69,1.321A.419.419,0,0,1,209.094,80.519Z"/><path d="M222.351,68.266a6.111,6.111,0,0,0,3.64,4.089c1.411.293,2.015-.31,2.73-1.622,1.151,1.255,1.981,2.5,3.223,3.125a4.055,4.055,0,0,0,5.338-2.045,4.376,4.376,0,0,0-2.076-5.519c1.317.464,2.806-.765,2.983-2.21a3.95,3.95,0,0,0-1.882-3.624,12.937,12.937,0,0,0-3.985-1.333A3.681,3.681,0,0,0,231.431,55a5.64,5.64,0,0,0-4.037-1.366,5.073,5.073,0,0,0-2.736.739,3.355,3.355,0,0,0-1.482,2.532,5.365,5.365,0,0,0-4.952-2.723c-1.953.259-3.631,2.442-3.941,4.032a4.535,4.535,0,0,0-3.361-2.37c-2.85-.141-3.739,2.2-2.784,5.442a3.285,3.285,0,0,0-4.692,1.637,6.573,6.573,0,0,0,.631,5.639c1,1.4,4.9,2.9,7.914,1.186a7.587,7.587,0,0,0,3.171-3.783,5.551,5.551,0,0,0,3.2,3.458A3.033,3.033,0,0,0,222.351,68.266Z"/><path d="M233.538,74.707a4.009,4.009,0,0,1-1.811-.419,8.739,8.739,0,0,1-2.562-2.317c-.119-.138-.239-.279-.363-.421a2.483,2.483,0,0,1-2.909,1.277c-1.312-.272-3.027-1.973-3.722-3.506a3.682,3.682,0,0,1-4.009.543,5.584,5.584,0,0,1-3.006-2.778,7.6,7.6,0,0,1-2.926,3.082c-3.287,1.874-7.459.185-8.544-1.323a7.064,7.064,0,0,1-.68-6.117,3.9,3.9,0,0,1,2.431-2.208,3.753,3.753,0,0,1,2-.048,4.856,4.856,0,0,1,.59-3.97,3.264,3.264,0,0,1,2.915-1.138,4.4,4.4,0,0,1,3.166,1.8,5.762,5.762,0,0,1,4.049-3.462,5.521,5.521,0,0,1,4.777,2.075,3.854,3.854,0,0,1,1.453-1.807,5.526,5.526,0,0,1,2.994-.82,6.1,6.1,0,0,1,4.379,1.5,4.229,4.229,0,0,1,1.206,4.136l.229.053a10.338,10.338,0,0,1,3.37,1.215,4.429,4.429,0,0,1,2.1,4.087,3.275,3.275,0,0,1-1.5,2.322,2.912,2.912,0,0,1-.507.251,4.943,4.943,0,0,1,1.069,5.289,4.634,4.634,0,0,1-4.186,2.7Zm-4.817-4.456a.48.48,0,0,1,.356.157c.291.318.561.632.821.937a7.948,7.948,0,0,0,2.263,2.082,3.306,3.306,0,0,0,2.6.1,3.571,3.571,0,0,0,2.075-1.9,3.9,3.9,0,0,0-1.825-4.887.482.482,0,0,1,.353-.9,1.487,1.487,0,0,0,1.287-.194,2.32,2.32,0,0,0,1.056-1.619,3.476,3.476,0,0,0-1.665-3.161,9.472,9.472,0,0,0-3.065-1.085c-.259-.06-.518-.12-.776-.185a.483.483,0,0,1-.314-.683,3.189,3.189,0,0,0-.791-3.562,5.177,5.177,0,0,0-3.7-1.233,4.578,4.578,0,0,0-2.477.659,2.878,2.878,0,0,0-1.268,2.161.482.482,0,0,1-.888.228,4.844,4.844,0,0,0-4.482-2.5c-1.768.235-3.273,2.316-3.532,3.646a.482.482,0,0,1-.876.172,4,4,0,0,0-2.982-2.152,2.376,2.376,0,0,0-2.11.772c-.639.812-.707,2.289-.188,4.051a.482.482,0,0,1-.719.545,2.661,2.661,0,0,0-2.164-.252,2.953,2.953,0,0,0-1.83,1.677,6.059,6.059,0,0,0,.582,5.162c.81,1.126,4.4,2.691,7.283,1.048a7.2,7.2,0,0,0,2.968-3.556.482.482,0,0,1,.439-.29h0a.482.482,0,0,1,.44.284,5.073,5.073,0,0,0,2.953,3.216,2.568,2.568,0,0,0,3.36-.924.482.482,0,0,1,.915.151,5.668,5.668,0,0,0,3.259,3.672c1.038.216,1.493-.068,2.209-1.381a.485.485,0,0,1,.365-.247A.386.386,0,0,1,228.721,70.251Z"/><path d="M228.615,78.668a.787.787,0,1,0-.927.56A.766.766,0,0,0,228.615,78.668Z"/><path d="M217.663,78.126a.787.787,0,1,0-.928.559A.766.766,0,0,0,217.663,78.126Z"/><path d="M220,91.49a4.388,4.388,0,0,1-3.567-1.852.482.482,0,1,1,.793-.548,3.442,3.442,0,0,0,3.256,1.4.482.482,0,1,1,.149.952A4.055,4.055,0,0,1,220,91.49Z"/><path d="M222.282,87.584a4.02,4.02,0,0,1-1.025-.127,3.048,3.048,0,0,1-1.948-1.469.482.482,0,0,1,.852-.452,2.112,2.112,0,0,0,1.34.988,3.769,3.769,0,0,0,1.853-.044,1.45,1.45,0,0,0,.622-.273,1.007,1.007,0,0,0,.232-.836,4.192,4.192,0,0,0-.286-1l-.063-.17a14.948,14.948,0,0,1-.815-6.7.482.482,0,1,1,.958.1,13.973,13.973,0,0,0,.763,6.269l.061.164a5.049,5.049,0,0,1,.341,1.236,1.928,1.928,0,0,1-.532,1.64,2.271,2.271,0,0,1-1.051.506A5.443,5.443,0,0,1,222.282,87.584Z"/><path d="M209.243,78.562a.481.481,0,0,1-.481-.469c-.026-.921-.02-1.413-.011-2.305a.483.483,0,0,1,.483-.476h0a.482.482,0,0,1,.477.487c-.01.909-.015,1.365.01,2.268a.482.482,0,0,1-.469.5Z"/><path d="M207.3,67.853a.481.481,0,0,1-.252-.071,4.211,4.211,0,0,1-1.858-4.36.482.482,0,1,1,.942.205,3.22,3.22,0,0,0,1.421,3.333.482.482,0,0,1-.253.893Z"/><g class="cls-2"><path d="M215.438,65.935q.237.36.5.7c.014.049.04.125.1.3a6.559,6.559,0,0,0,.347.691,6.2,6.2,0,0,0,1.555,1.636.439.439,0,0,1,.566-.145c.033.015.066.028.1.041l.058.016a9.262,9.262,0,0,0,1.2.227l-.132-.009a5.163,5.163,0,0,0,1.245-.091l.135-.029a.5.5,0,0,1,.315,0,.519.519,0,0,1,.078-.018.367.367,0,0,1,.024-.038l.012-.025a.784.784,0,0,1,0-.137.59.59,0,0,1,.741-.49.694.694,0,0,1,.468.757,3.434,3.434,0,0,0,.165.333c.263.4.568.782.87,1.158.058.072.223.254.25.289l.04.043a4.933,4.933,0,0,0,1.757,1.172l.011,0a2.752,2.752,0,0,0,.5.059,1.5,1.5,0,0,0,.155-.017c.024-.008.049-.015.073-.024.058-.025.116-.053.172-.083l.044-.029c.021-.014.04-.031.06-.046a1.143,1.143,0,0,0,.547-.129,1.06,1.06,0,0,0,.487-.269,1.386,1.386,0,0,0,.2-.246l.024-.037a.319.319,0,0,0,.032-.032l.086-.1a3.572,3.572,0,0,0,.485-.7h.015a.637.637,0,0,1,.489.372,1.8,1.8,0,0,0,.107.262c.012.024.026.047.039.071l.029.049,0,0,.012.02c.152.176.268.382.428.551.062.067.128.13.192.195.018.016.039.036.06.057l.027.026a7.845,7.845,0,0,0,1.079.86c.259.207.627.314.8.6a.661.661,0,0,1-.966.861,8.015,8.015,0,0,1-2.147-1.863,4.439,4.439,0,0,1-.273-.383,4.6,4.6,0,0,1-1.461,1.219,2.882,2.882,0,0,1-2.622-.388,5.978,5.978,0,0,1-1.39-1.2,8.637,8.637,0,0,1-1.013-1.4,2.9,2.9,0,0,1-.875.669,2.419,2.419,0,0,1-1.487.18c.022,0,.045.012.062.017-.049-.006-.1-.013-.148-.022a5.4,5.4,0,0,1-1.754-.739,7.272,7.272,0,0,1-2.079-1.842,5.27,5.27,0,0,1-.8-1.561c-.031-.142-.009-.016.017.057-.078-.209-.139-.424-.2-.639a.6.6,0,0,1-.026-.386A.511.511,0,0,1,215.438,65.935Z"/></g><g class="cls-2"><path d="M204.874,70.105c.26-.348.659-.151.98-.016.477.193.977.319,1.458.5a10.446,10.446,0,0,0,1.071.388l-.011,0c.115.031.2.057,0,0,.193.062.4.082.591.156a.54.54,0,0,1,.238-.195.587.587,0,0,1,.767.759,8.445,8.445,0,0,0-.425,1.072c-.092.552-.277,1.422-1.027,1.152a.718.718,0,0,1-.328-.314c.013.048-.293-.325-.377-.4-.33-.353-.975-.916-1.611-1.475-.332-.278-.674-.545-1.03-.792-.028-.018-.057-.034-.085-.051l-.1-.058A.519.519,0,0,1,204.874,70.105Z"/></g><path class="cls-1" d="M214,109.889a2.314,2.314,0,0,0-3.356-.61l-1.107.822c-.614.456-1.287,1.015-1.324,1.78a2.635,2.635,0,0,0,.77,1.662,2.653,2.653,0,0,0,3.986,1.116,3.228,3.228,0,0,0,1.016-.646,2.5,2.5,0,0,0,.569-1.545,4.377,4.377,0,0,0-.54-2.556Z"/><path d="M211.348,115.633a2.173,2.173,0,0,1-.241-.012,4.038,4.038,0,0,1-2.5-1.778,3.078,3.078,0,0,1-.874-1.986,3.127,3.127,0,0,1,1.518-2.143l1.107-.822a2.858,2.858,0,0,1,2.254-.507,2.679,2.679,0,0,1,1.8,1.255l.008.014a4.828,4.828,0,0,1,.614,2.851,2.945,2.945,0,0,1-.7,1.838,3.639,3.639,0,0,1-1.163.752A4.33,4.33,0,0,1,211.348,115.633Zm.711-6.338a1.882,1.882,0,0,0-1.126.372l-1.108.821c-.532.395-1.1.863-1.129,1.416a2.255,2.255,0,0,0,.665,1.338c.54.678,1.127,1.345,1.845,1.42a3.085,3.085,0,0,0,1.558-.439,2.863,2.863,0,0,0,.87-.539,2.035,2.035,0,0,0,.441-1.253,3.925,3.925,0,0,0-.475-2.274l.4-.268-.413.248a1.727,1.727,0,0,0-1.163-.806A1.892,1.892,0,0,0,212.059,109.3Z"/><path d="M205.565,107.859a.481.481,0,0,1-.4-.216,10.426,10.426,0,0,1-1.658-4.512.482.482,0,1,1,.958-.114,9.466,9.466,0,0,0,1.5,4.093.482.482,0,0,1-.4.749Z"/><path d="M203.514,109.338a.482.482,0,0,1-.362-.163l-1.234-1.4a.482.482,0,1,1,.724-.637l1.234,1.4a.482.482,0,0,1-.362.8Z"/><path d="M195.316,162.039a.487.487,0,0,1-.066,0,33.966,33.966,0,0,1-8.766-2.423.482.482,0,1,1,.379-.887,32.986,32.986,0,0,0,8.517,2.354.482.482,0,0,1-.064.96Z"/><g class="cls-2"><path d="M241.331,144.535a3.382,3.382,0,0,0-1.45.677c-.729.486-1.465.963-2.184,1.462a45.826,45.826,0,0,0-4.881,3.827,1.1,1.1,0,0,0,1.552,1.552,47.622,47.622,0,0,1,4.755-3.713c.682-.425,1.351-.87,2.037-1.29.337-.253.8-.363,1.051-.715A1.121,1.121,0,0,0,241.331,144.535Z"/></g><path d="M187.449,236.526h-.015a.161.161,0,0,1-.146-.175l1.148-13.112a.161.161,0,0,1,.321.028l-1.148,13.113A.161.161,0,0,1,187.449,236.526Z"/><path d="M192.651,238.338h-.005a.16.16,0,0,1-.155-.166l.547-16.363a.16.16,0,0,1,.161-.155h0a.16.16,0,0,1,.155.166l-.547,16.363A.16.16,0,0,1,192.651,238.338Z"/><path d="M242.531,197.3h-.007a.161.161,0,0,1-.154-.167l.3-7.209a.161.161,0,1,1,.321.014l-.3,7.208A.161.161,0,0,1,242.531,197.3Z"/><path d="M247.165,203.222h0a.159.159,0,0,1-.159-.161c.033-6.511.225-13.109.57-19.608a.16.16,0,1,1,.32.017c-.344,6.494-.536,13.086-.569,19.593A.16.16,0,0,1,247.165,203.222Z"/><path d="M221.165,230.435a.139.139,0,0,1-.044-.007.16.16,0,0,1-.11-.2,19.614,19.614,0,0,1,1.7-4.063.161.161,0,1,1,.28.157,19.315,19.315,0,0,0-1.672,4A.162.162,0,0,1,221.165,230.435Z"/><path d="M222.391,231.776a.184.184,0,0,1-.033,0,.161.161,0,0,1-.125-.19,13.859,13.859,0,0,1,1.14-3.322.161.161,0,0,1,.288.142,13.568,13.568,0,0,0-1.113,3.245A.16.16,0,0,1,222.391,231.776Z"/><path d="M223.866,232.933h0a.159.159,0,0,1-.158-.163,8.623,8.623,0,0,1,.826-3.528.161.161,0,0,1,.29.138,8.311,8.311,0,0,0-.795,3.4A.16.16,0,0,1,223.866,232.933Z"/><path d="M225.5,233.822h0a.16.16,0,0,1-.158-.163,12.858,12.858,0,0,1,.473-3.238.16.16,0,1,1,.309.086,12.593,12.593,0,0,0-.461,3.157A.16.16,0,0,1,225.5,233.822Z"/><path d="M227.288,235.022a.161.161,0,0,1-.161-.16,24.032,24.032,0,0,1,.224-3.4.162.162,0,0,1,.181-.137.16.16,0,0,1,.137.181,23.682,23.682,0,0,0-.22,3.355.16.16,0,0,1-.16.161Z"/><path d="M229,235.779a.161.161,0,0,1-.161-.153,19.25,19.25,0,0,1,.07-2.78.165.165,0,0,1,.176-.144.161.161,0,0,1,.144.176,18.887,18.887,0,0,0-.069,2.733.161.161,0,0,1-.153.168Z"/><path d="M230.669,237.072a.16.16,0,0,1-.159-.139,9.9,9.9,0,0,1-.038-2.308.161.161,0,0,1,.32.032,9.586,9.586,0,0,0,.036,2.233.16.16,0,0,1-.137.181Z"/><path d="M170.322,129.011a.159.159,0,0,1-.124-.058,25.859,25.859,0,0,1-1.719-2.348.16.16,0,1,1,.269-.175,25.59,25.59,0,0,0,1.7,2.318.16.16,0,0,1-.124.263Z"/><path d="M175.007,132.317a.16.16,0,0,1-.125-.06c-1.656-2.081-3.27-4.238-4.8-6.412a.16.16,0,0,1,.039-.224.162.162,0,0,1,.224.039c1.523,2.169,3.132,4.321,4.784,6.4a.16.16,0,0,1-.126.261Z"/><path d="M178.561,133.347a.16.16,0,0,1-.124-.059c-2.163-2.651-4.249-5.419-6.2-8.226a.16.16,0,1,1,.263-.183c1.946,2.8,4.027,5.561,6.185,8.206a.16.16,0,0,1-.023.226A.157.157,0,0,1,178.561,133.347Z"/><path d="M181.136,133.881a.164.164,0,0,1-.123-.057,78.432,78.432,0,0,1-6.548-8.957.161.161,0,1,1,.273-.171,77.787,77.787,0,0,0,6.521,8.92.161.161,0,0,1-.123.265Z"/><path d="M183.574,133.641a.157.157,0,0,1-.122-.057,105.067,105.067,0,0,1-6.815-8.94.161.161,0,0,1,.266-.181,104.625,104.625,0,0,0,6.793,8.913.161.161,0,0,1-.122.265Z"/><path d="M186.021,133.388a.163.163,0,0,1-.118-.052,73.264,73.264,0,0,1-6.864-8.661.161.161,0,0,1,.266-.18,73.073,73.073,0,0,0,6.834,8.623.161.161,0,0,1-.009.227A.159.159,0,0,1,186.021,133.388Z"/><path d="M188.07,132.9a.161.161,0,0,1-.118-.051,93.99,93.99,0,0,1-6.309-7.559.161.161,0,0,1,.258-.193,93.538,93.538,0,0,0,6.286,7.533.16.16,0,0,1-.117.27Z"/><path d="M190.2,132.313a.161.161,0,0,1-.116-.049c-2.031-2.11-4.021-4.315-5.914-6.552a.16.16,0,1,1,.245-.207c1.889,2.232,3.874,4.431,5.9,6.536a.161.161,0,0,1,0,.227A.163.163,0,0,1,190.2,132.313Z"/><path d="M192.274,131.519a.16.16,0,0,1-.11-.044c-1.566-1.482-3.1-3.041-4.551-4.634a.161.161,0,0,1,.237-.217c1.449,1.587,2.974,3.141,4.535,4.617a.161.161,0,0,1,.006.227A.159.159,0,0,1,192.274,131.519Z"/><path d="M194.265,130.819a.157.157,0,0,1-.107-.042c-1.266-1.144-2.5-2.355-3.67-3.6a.161.161,0,0,1,.006-.227.163.163,0,0,1,.228.007c1.163,1.237,2.392,2.442,3.651,3.581a.161.161,0,0,1-.108.28Z"/><path d="M195.855,129.785a.164.164,0,0,1-.111-.044l-2.96-2.826a.161.161,0,0,1,.222-.233l2.96,2.826a.16.16,0,0,1,0,.227A.158.158,0,0,1,195.855,129.785Z"/><path d="M197.889,129.066a.163.163,0,0,1-.111-.044l-2.741-2.591a.161.161,0,0,1,.221-.234L198,128.789a.16.16,0,0,1-.11.277Z"/><path d="M199.3,128.088a.158.158,0,0,1-.1-.035,20.893,20.893,0,0,1-2.229-2.05.161.161,0,0,1,.235-.22A20.449,20.449,0,0,0,199.4,127.8a.161.161,0,0,1-.1.287Z"/><path d="M200.668,127.1a.159.159,0,0,1-.111-.045l-1.91-1.828a.161.161,0,1,1,.223-.232l1.909,1.828a.161.161,0,0,1-.111.277Z"/><path d="M202.192,126.116a.16.16,0,0,1-.108-.042,21.956,21.956,0,0,0-1.963-1.584.161.161,0,1,1,.187-.261,22.106,22.106,0,0,1,1.992,1.607.161.161,0,0,1-.108.28Z"/><path d="M203.54,124.939a.162.162,0,0,1-.091-.028,16.029,16.029,0,0,1-1.817-1.459.161.161,0,1,1,.219-.235,15.7,15.7,0,0,0,1.781,1.429.161.161,0,0,1-.092.293Z"/><path d="M204.914,123.519a.16.16,0,0,1-.095-.032l-1.6-1.184a.161.161,0,1,1,.191-.258l1.6,1.184a.161.161,0,0,1-.1.29Z"/><path d="M206.134,122.036a.159.159,0,0,1-.1-.034l-1.085-.845a.16.16,0,0,1,.2-.253l1.086.844a.161.161,0,0,1-.1.288Z"/><path d="M207.456,121.023a.159.159,0,0,1-.1-.039l-1.132-.976a.161.161,0,1,1,.21-.243l1.132.975a.161.161,0,0,1-.105.283Z"/><path d="M208.488,119.683a.158.158,0,0,1-.083-.023c-.385-.234-.767-.486-1.136-.747a.161.161,0,1,1,.186-.262c.363.257.739.5,1.117.734a.161.161,0,0,1-.084.3Z"/><path d="M209.562,118.358a.157.157,0,0,1-.086-.025l-1.184-.749a.16.16,0,1,1,.172-.271l1.184.749a.16.16,0,0,1-.086.3Z"/><path d="M210.507,116.929a.169.169,0,0,1-.075-.018l-1.056-.551a.161.161,0,0,1,.149-.285l1.056.551a.16.16,0,0,1,.068.216A.158.158,0,0,1,210.507,116.929Z"/><path d="M212.2,113.887a.152.152,0,0,1-.08-.021,17.3,17.3,0,0,1-2.267-1.552.161.161,0,0,1,.2-.25,16.99,16.99,0,0,0,2.225,1.523.162.162,0,0,1,.059.22A.16.16,0,0,1,212.2,113.887Z"/><path d="M213.319,112.766a.168.168,0,0,1-.069-.015,16.293,16.293,0,0,1-1.657-.906.161.161,0,0,1,.17-.273,15.97,15.97,0,0,0,1.625.889.16.16,0,0,1-.069.305Z"/><path d="M267.348,138.411a.184.184,0,0,1-.033,0,.162.162,0,0,1-.124-.191l.767-3.622a.162.162,0,0,1,.191-.124.16.16,0,0,1,.124.19l-.768,3.622A.16.16,0,0,1,267.348,138.411Z"/><path d="M269.378,142.9h-.02a.161.161,0,0,1-.14-.18,85.6,85.6,0,0,1,1.666-9.154.16.16,0,0,1,.312.074,85.3,85.3,0,0,0-1.659,9.12A.16.16,0,0,1,269.378,142.9Z"/><path d="M271.456,146.842h-.018a.161.161,0,0,1-.142-.178c.535-4.694,1.2-9.434,1.97-14.088a.157.157,0,0,1,.184-.132.16.16,0,0,1,.133.184c-.771,4.649-1.433,9.384-1.967,14.072A.162.162,0,0,1,271.456,146.842Z"/><path d="M273.717,151.13H273.7a.162.162,0,0,1-.146-.174c.483-5.64,1.074-11.352,1.756-16.977a.161.161,0,1,1,.319.039c-.682,5.621-1.272,11.329-1.755,16.965A.16.16,0,0,1,273.717,151.13Z"/><path d="M275.908,154.139h-.016a.161.161,0,0,1-.144-.176l1.421-14.508a.164.164,0,0,1,.176-.144.161.161,0,0,1,.144.175l-1.421,14.509A.161.161,0,0,1,275.908,154.139Z"/><path d="M277.91,158.352h-.018a.161.161,0,0,1-.142-.177l1.594-14.44a.16.16,0,1,1,.319.035l-1.594,14.44A.16.16,0,0,1,277.91,158.352Z"/><path d="M280.236,161.994l-.02,0a.161.161,0,0,1-.14-.179c.579-4.677,1.051-9.429,1.4-14.123a.163.163,0,0,1,.173-.149.161.161,0,0,1,.148.172c-.352,4.7-.824,9.457-1.4,14.14A.161.161,0,0,1,280.236,161.994Z"/><path d="M282.754,165.7h-.012a.16.16,0,0,1-.149-.171l1.01-13.675a.161.161,0,0,1,.321.024l-1.01,13.674A.16.16,0,0,1,282.754,165.7Z"/><path d="M285.329,169.258h0a.161.161,0,0,1-.157-.164c.1-4.523.313-9.1.644-13.6a.161.161,0,1,1,.321.024c-.33,4.5-.547,9.07-.643,13.587A.161.161,0,0,1,285.329,169.258Z"/><path d="M287.705,172.392H287.7a.161.161,0,0,1-.152-.169l.688-12.99a.164.164,0,0,1,.169-.153.161.161,0,0,1,.151.169l-.687,12.991A.162.162,0,0,1,287.705,172.392Z"/><path d="M289.739,174.809h-.013a.16.16,0,0,1-.147-.173l.966-12.106a.162.162,0,0,1,.173-.147.16.16,0,0,1,.147.173l-.966,12.106A.16.16,0,0,1,289.739,174.809Z"/><path d="M292.145,177.794h-.013a.162.162,0,0,1-.148-.173c.3-3.962.516-7.987.641-11.962a.161.161,0,1,1,.322.01c-.126,3.98-.342,8.009-.642,11.977A.16.16,0,0,1,292.145,177.794Z"/><path d="M294.522,180.443h-.011a.161.161,0,0,1-.149-.171l.82-11.913a.159.159,0,0,1,.171-.15.161.161,0,0,1,.15.172l-.821,11.913A.161.161,0,0,1,294.522,180.443Z"/><path d="M296.662,182.659l-.023,0a.159.159,0,0,1-.136-.181c.512-3.6.883-7.263,1.1-10.892a.151.151,0,0,1,.17-.151.162.162,0,0,1,.151.171c-.219,3.637-.59,7.31-1.1,10.917A.162.162,0,0,1,296.662,182.659Z"/><path d="M299.581,186.114h-.008a.161.161,0,0,1-.153-.168l.562-11.466a.156.156,0,0,1,.168-.153.162.162,0,0,1,.153.169l-.562,11.466A.16.16,0,0,1,299.581,186.114Z"/><path d="M302.589,188.543a.161.161,0,0,1-.161-.161l-.036-11.279a.161.161,0,0,1,.16-.161h0a.161.161,0,0,1,.161.16l.036,11.279a.162.162,0,0,1-.161.162Z"/><path d="M305.267,190.244a.161.161,0,0,1-.161-.157l-.232-10.263a.162.162,0,0,1,.157-.165.165.165,0,0,1,.165.157l.232,10.263a.162.162,0,0,1-.157.165Z"/><path d="M307.768,188.136a.16.16,0,0,1-.159-.143,31.712,31.712,0,0,1-.1-5.555.159.159,0,0,1,.172-.149.16.16,0,0,1,.149.172,31.455,31.455,0,0,0,.1,5.5.161.161,0,0,1-.143.177Z"/><path d="M145.471,235.1a.151.151,0,0,1-.046-.007.159.159,0,0,1-.108-.2l.937-3.2a.16.16,0,1,1,.308.09l-.937,3.2A.162.162,0,0,1,145.471,235.1Z"/><path d="M146.843,238.932a.153.153,0,0,1-.03,0,.16.16,0,0,1-.128-.188c.541-2.834,1.21-5.677,1.987-8.45a.161.161,0,0,1,.309.087c-.774,2.764-1.441,5.6-1.98,8.423A.162.162,0,0,1,146.843,238.932Z"/><path d="M148.53,243.64h-.022a.16.16,0,0,1-.138-.18c.412-3.134.963-6.289,1.637-9.377a.161.161,0,0,1,.314.068c-.673,3.08-1.222,6.225-1.632,9.351A.161.161,0,0,1,148.53,243.64Z"/><path d="M150.461,247.654h-.017a.162.162,0,0,1-.143-.177c.329-3.086.735-6.2,1.208-9.264a.163.163,0,0,1,.184-.134.162.162,0,0,1,.134.183c-.472,3.056-.878,6.168-1.206,9.249A.162.162,0,0,1,150.461,247.654Z"/><path d="M152.317,251.751H152.3a.161.161,0,0,1-.144-.176l.964-9.837a.165.165,0,0,1,.176-.144.161.161,0,0,1,.144.176l-.964,9.837A.161.161,0,0,1,152.317,251.751Z"/><path d="M154.453,255.383h-.017a.16.16,0,0,1-.143-.176l.988-9.367a.156.156,0,0,1,.176-.142.159.159,0,0,1,.143.176l-.987,9.366A.161.161,0,0,1,154.453,255.383Z"/><path d="M157.045,258.874h-.013a.161.161,0,0,1-.148-.173l.677-8.9a.169.169,0,0,1,.172-.148.162.162,0,0,1,.149.173l-.677,8.9A.161.161,0,0,1,157.045,258.874Z"/><path d="M159.754,262.264h0a.16.16,0,0,1-.159-.162c.029-2.914.132-5.87.308-8.784a.152.152,0,0,1,.17-.151.16.16,0,0,1,.151.17c-.176,2.909-.279,5.859-.308,8.768A.161.161,0,0,1,159.754,262.264Z"/><path d="M162.749,265.026a.161.161,0,0,1-.161-.153c-.127-2.8-.183-5.635-.165-8.435a.161.161,0,0,1,.161-.16h0a.16.16,0,0,1,.159.162c-.017,2.8.038,5.627.165,8.419a.16.16,0,0,1-.153.167Z"/><path d="M165.668,267.947a.159.159,0,0,1-.159-.143,73.087,73.087,0,0,1-.416-8.076.161.161,0,0,1,.161-.16.174.174,0,0,1,.16.161,73.17,73.17,0,0,0,.414,8.04.159.159,0,0,1-.142.177Z"/><path d="M168.7,270.159a.16.16,0,0,1-.159-.137c-.347-2.389-.614-4.824-.793-7.238a.16.16,0,1,1,.32-.024c.179,2.407.446,4.834.791,7.216a.161.161,0,0,1-.136.182Z"/><path d="M171.918,272.467a.159.159,0,0,1-.156-.126c-.547-2.478-.987-5.009-1.307-7.524a.161.161,0,0,1,.319-.04c.319,2.5.757,5.026,1.3,7.5a.16.16,0,0,1-.122.192A.207.207,0,0,1,171.918,272.467Z"/><path d="M174.9,274.067a.16.16,0,0,1-.156-.123c-.539-2.265-1.024-4.576-1.44-6.868a.161.161,0,0,1,.13-.187.165.165,0,0,1,.187.13c.415,2.286.9,4.591,1.435,6.85a.16.16,0,0,1-.119.194A.155.155,0,0,1,174.9,274.067Z"/><path d="M177.5,274.137a.16.16,0,0,1-.157-.124l-1.164-5.058a.162.162,0,0,1,.121-.193.16.16,0,0,1,.193.121l1.163,5.058a.16.16,0,0,1-.12.192A.147.147,0,0,1,177.5,274.137Z"/><path d="M180.072,273.338h-.009a.225.225,0,0,1-.2-.178l-.746-2.405a.161.161,0,0,1,.307-.1l.72,2.321a.149.149,0,0,1,.062.039.191.191,0,0,1,.032.213A.2.2,0,0,1,180.072,273.338Z"/><g class="cls-2"><path d="M220.061,96.608a4.861,4.861,0,0,0-2.076-.693,14.482,14.482,0,0,1-2.04-.709,8.969,8.969,0,0,1-1.063-.537c-.04-.027-.078-.058-.118-.085a1.625,1.625,0,0,0-.607-.3,4.4,4.4,0,0,0-.822-.656.923.923,0,0,0-1.009,1.5c1.476,1.425,2.926,2.879,4.393,4.316.687.621,1.211,1.5,2.062,1.9a.9.9,0,0,0,1.071-.532,3.28,3.28,0,0,0,.107-1.1,4.811,4.811,0,0,1,.213-1.553A1.439,1.439,0,0,0,220.061,96.608Z"/></g><g class="cls-2"><path d="M210.772,118.521c-1.156,1.377-2.275,2.783-3.531,4.077-.588.606-1.2,1.194-1.824,1.775-.089.1-.179.2-.274.3-.637.7-1.278,1.409-1.936,2.1a.83.83,0,0,0-.371-.116c-.418.35-.839.7-1.263,1.037a.455.455,0,0,1-.584-.012l-.007,0a45.243,45.243,0,0,1-9.244,5.275.457.457,0,0,1-.142.036c-.1.069-.206.136-.305.209a3.21,3.21,0,0,0-.612,1.825c-.128.761-.159,1.8.694,2.133.692.33,1.285-.242,1.854-.562a31.267,31.267,0,0,0,3.033-1.956,36.1,36.1,0,0,0,6.843-4.968,71.4,71.4,0,0,0,5.078-5.458,19.373,19.373,0,0,0,1.163-1.6,21.61,21.61,0,0,0,.9-2.167c.213-.63.374-1.275.546-1.918Z"/></g><g class="cls-2"><path d="M221.743,185.1c-.6-.566-1.487-.428-2.241-.544a40.522,40.522,0,0,0-6.477-.306c-.936.029-1.872.03-2.808.034a3.722,3.722,0,0,0-1.254.095,1,1,0,0,0-.346.218c-1.442-.069-2.885-.13-4.326-.209a80.225,80.225,0,0,1-8.494-.881.945.945,0,0,0-.5,1.821c1.507.355,3.06.466,4.592.675,1.845.257,4.482.554,7.059.734,2.806.2,5.6.557,8.406.722a23.907,23.907,0,0,0,5.668-.3A1.225,1.225,0,0,0,221.743,185.1Z"/></g><g class="cls-2"><path d="M234.7,235.823a.8.8,0,0,1,.038.091C234.778,236.019,234.8,236.07,234.7,235.823Z"/></g><g class="cls-2"><path d="M236.692,198.34a.884.884,0,0,0-1.6.21c-1,3.507-1.24,7.174-1.943,10.743-.362,1.834-.841,3.644-1.173,5.484a54.359,54.359,0,0,1-1.709,7.7,18.509,18.509,0,0,1-.991,2.719c-.032.06-.072.114-.109.17l-.029.008c-.265.016-.53,0-.795.006a1.51,1.51,0,0,0-1.416,2.241c.6,1.947,2.957,4.783,3.526,5.538a18.755,18.755,0,0,1,2.746,4.717c.144.474.254.957.362,1.441a1.043,1.043,0,0,0,2.082-.117,13.663,13.663,0,0,0-.844-3.1.922.922,0,0,0-.065-.187l-.051-.12c-.143-.348-.644-1.518-.423-1-.469-1.075-1.085-2.595-1.709-4.275-.41-1.071-.8-2.149-1.237-3.209-.147-.279-.231-.616-.383-.9a31.522,31.522,0,0,0,2.289-7.212c.549-3.051,1.1-6.1,1.79-9.122.413-2.387.919-6.716,1-7.165.153-1.094.342-2.184.595-3.259C236.7,199.221,236.954,198.759,236.692,198.34Z"/></g><g class="cls-2"><path d="M319.179,175.809a.808.808,0,0,0-.907-.192.828.828,0,0,0-.787.243c-1.321,1.4-2.583,2.841-3.806,4.3-.747-.163-1.166.506-1.579,1.133-.453.655-.907,1.309-1.4,1.936q-.324.42-.659.83c-3.528,3.144-7.273,6.049-10.854,9.131-6.548,5.308-13.122,10.619-19.489,15.561-.258.178-.516.355-.773.534-4.291,2.912-8.679,5.679-12.956,8.612-8.866,6.127-17.581,12.474-26.685,18.25-4.072,2.629-8.207,5.157-12.3,7.751-2.71,1.688-5.526,3.2-8.277,4.814-4.16,2.525-8.248,5.168-12.467,7.6-3.693,2.324-7.523,4.413-11.378,6.454q-5.162,2.958-10.2,6.126c-.992.607-1.979,1.224-2.979,1.817-.417.264-.94.448-1.151.905-.7.33-1.367.622-1.989.86a1.109,1.109,0,0,0,.59,2.139q.435-.163.865-.34a1.143,1.143,0,0,0,.873,2.087c8.253-1.892,16.462-4.015,24.8-5.541,2.156-.363,3.03-.476,4.751-.663,1.258-.064,2.059-.153,2.6-1.064.108-1.427.255-2.851.421-4.263q.42-3.582,1.027-7.138c.021-.17.041-.34.062-.51a1.149,1.149,0,0,0-.63-.342c.941-.6,1.874-1.207,2.792-1.843.641-.517,1.478-.854,1.774-1.4q2.475-1.272,4.963-2.516c2.4-1.175,4.636-2.639,6.92-4.019,4.361-2.542,8.487-5.443,12.64-8.306,3.582-2.473,7.246-4.823,10.89-7.2,3.349-2.239,6.96-4.049,10.315-6.277,3.274-2.2,6.5-4.47,9.8-6.646,2.75-1.875,5.59-3.619,8.3-5.555.931-.667,1.82-1.385,2.693-2.123,1.43-.973,2.826-2,4.226-3.013,1.884-1.373,3.774-2.742,5.539-4.269a124.077,124.077,0,0,0,12.48-11.955,7.876,7.876,0,0,0,.938-1.152.837.837,0,0,0,.015-.691c.915-1.161,1.811-2.309,2.729-3.477q.53-.618,1.038-1.253c1.278-1.2,2.517-2.434,3.684-3.742,1.168-1.279,2.258-2.625,3.294-4.012.073-.1.251-.335.293-.393a.865.865,0,0,0-.041-1.183ZM183.406,273.431c-1.043.249-2.088.493-3.135.724,1.013-.424,2.006-.894,2.99-1.381a1.065,1.065,0,0,0,.3.433A1.006,1.006,0,0,0,183.406,273.431Zm27.349-14.569c-.645.442-3.877,2.729-5.481,3.65-2.209,1.229-4.441,2.339-6.695,3.416,1.782-1,3.548-2.027,5.282-3.111,2.47-1.471,4.971-2.892,7.435-4.374C211.124,258.583,210.946,258.723,210.755,258.862Z"/></g><g class="cls-2"><path d="M195.138,240.781l-.067.031C195.4,240.676,195.313,240.708,195.138,240.781Z"/></g><g class="cls-2"><path d="M201.6,227.41a.916.916,0,0,0-.664.872,5.377,5.377,0,0,1,.009.772c0,.057-.011.113-.018.169a18.313,18.313,0,0,1-1.063,3.9c-2.826,5.764-7.866,7.1-13.662,5.557-.531-.146-1.093-.506-1.624-.16a1.108,1.108,0,0,0,0,1.895,17.536,17.536,0,0,0,6.5,1.188,11.163,11.163,0,0,0,3.881-.741l.184-.08a13.429,13.429,0,0,0,5.968-5.54,12.332,12.332,0,0,0,1.508-4.712C202.724,229.518,203.293,227.169,201.6,227.41Z"/></g><g class="cls-2"><path d="M259.874,191.776a1.036,1.036,0,1,0-2.068.109,13.354,13.354,0,0,1-.644,3.141c-.01.029-.022.057-.033.086-.289.64-.612,1.263-.934,1.887a12.141,12.141,0,0,1-3.946,4.659,11.031,11.031,0,0,1-1.326.912,27.483,27.483,0,0,1-2.754,1.416c.745-.293-.867.316-1.2.374a15.572,15.572,0,0,1-2.5.525,13.262,13.262,0,0,1-2.619-.1c-.443-.059-.913-.227-1.321.032a1.078,1.078,0,0,0,.255,1.953,20.156,20.156,0,0,0,4.529.388c.035,0,.069-.009.1-.012a.877.877,0,0,0,.82.5,12.62,12.62,0,0,0,4.9-.767,17.651,17.651,0,0,0,2.832-1.671,9.915,9.915,0,0,0,3.145-3.037c.276-.484.856-.941.7-1.55a.766.766,0,0,0-.383-.494,16.423,16.423,0,0,0,1.947-4.176,9.689,9.689,0,0,0,.3-1.614c-.048.366-.035.265.008-.034A13.238,13.238,0,0,0,259.874,191.776Z"/></g><g class="cls-2"><path d="M164.748,268.559a1.054,1.054,0,0,0-.734.065,3.118,3.118,0,0,0-1.1.451c-.757.405-1.51.821-2.23,1.289a48.942,48.942,0,0,0-7.466,6.27,28.6,28.6,0,0,0-4.07,4.617,1.462,1.462,0,0,0,.017,1.565,1.276,1.276,0,0,0,.406.51c.115.081.362.254.455.316l.014.012a3.354,3.354,0,0,1,.33.338c.463.634.576,1.522,1.275,1.96a1.533,1.533,0,0,0,1.93-.529,2.17,2.17,0,0,0,.182-.405c.034-.075.092-.2.144-.306a35.647,35.647,0,0,1,1.738-3.285,33.592,33.592,0,0,1,7.423-9.247c.86-.788,2-1.613,2.251-1.915A1.086,1.086,0,0,0,164.748,268.559Z"/></g><path class="cls-1" d="M98.936,168.289c17.295,1.943,34.753,1.8,52.15,1.335,4.2-.114,8.739-.372,11.965-3.079,4.644-3.9,4.093-12.268-.833-15.794s-12.662-1.607-15.715,3.647a12.8,12.8,0,0,0-25.377-3.068c-.323-4.376-6.481-6.342-10.111-3.91s-4.756,7.4-4.2,11.755c-1.578-4.18-8.12-4.742-10.969-1.309S93.849,167.717,98.936,168.289Z"/><path d="M118.326,170.16c-6.607-.24-13.022-.682-19.442-1.4a5.438,5.438,0,0,1-4.614-3.5,7.9,7.9,0,0,1,1.212-7.688,7.381,7.381,0,0,1,6.843-2.3,6.642,6.642,0,0,1,3.886,2.039c-.052-3.745,1.1-7.967,4.542-10.272a7.752,7.752,0,0,1,7.477-.329,6.038,6.038,0,0,1,2.892,2.795c1.974-5.712,8.183-9.849,14.19-9.12,6.1.738,11.217,6.393,11.652,12.52a11.933,11.933,0,0,1,6.849-4.13,10.947,10.947,0,0,1,8.679,1.6,10.712,10.712,0,0,1,4.213,8.336,10.034,10.034,0,0,1-3.352,8.2c-3.248,2.727-7.65,3.064-12.255,3.189C139.245,170.415,128.557,170.53,118.326,170.16Zm-19.337-2.34c16.307,1.833,32.615,1.859,52.084,1.333,4.431-.12,8.659-.437,11.675-2.969a9.1,9.1,0,0,0,3.015-7.444,9.766,9.766,0,0,0-3.819-7.606,10.011,10.011,0,0,0-7.933-1.449,10.733,10.733,0,0,0-7.1,4.95.471.471,0,0,1-.878-.265,12.328,12.328,0,0,0-24.443-2.956.471.471,0,0,1-.933-.049,4.691,4.691,0,0,0-2.84-3.819,6.777,6.777,0,0,0-6.54.265c-3.7,2.477-4.463,7.638-4,11.3a.471.471,0,0,1-.908.226,5.18,5.18,0,0,0-4.2-3.151,6.428,6.428,0,0,0-5.962,1.977,6.918,6.918,0,0,0-1.063,6.734A4.53,4.53,0,0,0,98.989,167.82Z"/><g class="cls-2"><path d="M164.235,164.509a1.048,1.048,0,0,0-1-.953,1.948,1.948,0,0,0-1.015.4,10.9,10.9,0,0,1-1.2.587,19.43,19.43,0,0,1-4.546,1.224c-.148.012-.3.025-.443.041.643-.062.065-.014-.273-.017-7.161-.195-14.313.324-21.475.327-3.268,0-6.536.13-9.805.125-5.431-.072-10.862-.117-16.293-.181-1.371-.068-2.745-.123-4.11-.267-2.257-.284-4.5-.713-6.773-.854a1.319,1.319,0,0,0-.1,2.636c3.48.323,3.775.708,8.174,1.23,3.38.373,6.786.25,10.179.382,3.417.106,6.832.268,10.249.382,2.793.054,5.587,0,8.381.013.093,0,.185,0,.278,0,3.866.217,7.745.232,11.613.167,1.658-.051,3.315.028,4.973,0,1.481-.073,2-.169,2.958-.237a16.423,16.423,0,0,0,5.6-1,4.823,4.823,0,0,0,1.549-.863.815.815,0,0,0,.215-.611,12.1,12.1,0,0,0,1.522-.877c.175-.131.7-.5.248-.181a7.074,7.074,0,0,0,.651-.5A1.013,1.013,0,0,0,164.235,164.509Z"/></g></svg>