<svg xmlns="http://www.w3.org/2000/svg" viewBox="0 0 2500 2500"><defs><style>.cls-1{fill:#fff;}</style></defs><g id="Illustration"><g id="Ambition"><path class="cls-1" d="M1207.121,898.558l-47.042-49.768L1095.8,886.939a283.629,283.629,0,0,0-40.581-25.082l5.044-74.524-65.6-19.583-36.592,65.216a287.134,287.134,0,0,0-47.61-1.345l-32.928-67.184-66.579,15.845.915,74.692a283.573,283.573,0,0,0-41.9,22.749L707.9,836l-49.721,47.031,38.17,64.328A283.637,283.637,0,0,0,671.3,987.942l-74.5-5.09-19.537,65.614,65.211,36.646a287.668,287.668,0,0,0-1.319,47.628l-67.134,32.9,15.878,66.615,74.662-.872a283.843,283.843,0,0,0,22.765,41.936l-41.669,62.069,47.042,49.768,64.279-38.149a283.694,283.694,0,0,0,40.582,25.082l-5.044,74.523,65.6,19.584,36.592-65.215a287.147,287.147,0,0,0,47.611,1.347l32.927,67.181,66.58-15.846-.916-74.692a283.307,283.307,0,0,0,41.9-22.747l62.07,41.72,49.721-47.031-38.172-64.326A283.459,283.459,0,0,0,1181.482,1246l74.5,5.09,19.538-65.613-65.212-36.643a287.372,287.372,0,0,0,1.318-47.63l67.136-32.9-15.879-66.616-74.661.872a283.926,283.926,0,0,0-22.765-41.935Zm-159.632,346.531c-70.689,66.867-182.211,63.713-249.092-7.044s-63.8-182.322,6.894-249.188S987.5,925.146,1054.384,995.9,1118.178,1178.224,1047.489,1245.089Z"/><path d="M975.248,1471.753a2.243,2.243,0,0,1-2.014-1.256l-32.277-65.85a290.575,290.575,0,0,1-45.017-1.275L860.073,1467.3a2.245,2.245,0,0,1-2.6,1.051l-65.6-19.585a2.24,2.24,0,0,1-1.6-2.3l4.943-73.045a286.967,286.967,0,0,1-38.377-23.721l-63,37.39a2.245,2.245,0,0,1-2.774-.388l-47.042-49.768a2.241,2.241,0,0,1-.232-2.791l40.84-60.836a287.24,287.24,0,0,1-21.53-39.657l-73.181.854a2.245,2.245,0,0,1-2.207-1.723l-15.879-66.615a2.243,2.243,0,0,1,1.194-2.534l65.8-32.249a291,291,0,0,1,1.247-45.036l-63.92-35.921a2.241,2.241,0,0,1-1.051-2.594l19.537-65.614a2.25,2.25,0,0,1,2.3-1.6l73.016,4.988a287.051,287.051,0,0,1,23.688-38.373l-37.412-63.053a2.241,2.241,0,0,1,.387-2.774l49.721-47.031a2.246,2.246,0,0,1,2.793-.232l60.835,40.894a286.91,286.91,0,0,1,39.626-21.515l-.9-73.209a2.241,2.241,0,0,1,1.724-2.209l66.579-15.845a2.236,2.236,0,0,1,2.533,1.2L911.824,829.3a290.227,290.227,0,0,1,45.016,1.271l35.868-63.922a2.245,2.245,0,0,1,2.6-1.051l65.6,19.582a2.242,2.242,0,0,1,1.6,2.3l-4.942,73.047a286.981,286.981,0,0,1,38.374,23.722l63-37.391a2.24,2.24,0,0,1,2.774.387l47.043,49.768a2.243,2.243,0,0,1,.232,2.792l-40.841,60.837a287.094,287.094,0,0,1,21.531,39.656l73.18-.854a2.336,2.336,0,0,1,2.208,1.722l15.878,66.616a2.242,2.242,0,0,1-1.2,2.534l-65.8,32.251a290.791,290.791,0,0,1-1.245,45.037l63.92,35.918a2.242,2.242,0,0,1,1.051,2.6l-19.537,65.613a2.247,2.247,0,0,1-2.3,1.6l-73.016-4.988a287,287,0,0,1-23.688,38.376l37.413,63.05a2.242,2.242,0,0,1-.388,2.774l-49.72,47.032a2.242,2.242,0,0,1-2.791.232l-60.839-40.892a286.48,286.48,0,0,1-39.625,21.513l.9,73.208a2.241,2.241,0,0,1-1.723,2.209l-66.579,15.846A2.2,2.2,0,0,1,975.248,1471.753Zm-32.928-71.666a2.241,2.241,0,0,1,2.013,1.256l32.139,65.57,63.09-15.016-.894-72.9a2.244,2.244,0,0,1,1.345-2.083,281.952,281.952,0,0,0,41.572-22.568,2.249,2.249,0,0,1,2.481.014l60.582,40.719,47.113-44.566-37.255-62.784a2.241,2.241,0,0,1,.124-2.476,282.278,282.278,0,0,0,24.85-40.263,2.249,2.249,0,0,1,2.155-1.226l72.706,4.967,18.514-62.175-63.649-35.766a2.241,2.241,0,0,1-1.13-2.2,286.2,286.2,0,0,0,1.306-47.258,2.243,2.243,0,0,1,1.253-2.137l65.525-32.113-15.047-63.128-72.869.851a2.349,2.349,0,0,1-2.082-1.345,282.6,282.6,0,0,0-22.585-41.6,2.242,2.242,0,0,1,.014-2.479L1204.26,898.8l-44.579-47.162-62.737,37.233a2.243,2.243,0,0,1-2.477-.124,282.146,282.146,0,0,0-40.259-24.884,2.245,2.245,0,0,1-1.226-2.153l4.922-72.737-62.163-18.556-35.714,63.65a2.242,2.242,0,0,1-2.205,1.131,285.711,285.711,0,0,0-47.238-1.333,2.258,2.258,0,0,1-2.136-1.253l-32.139-65.574-63.09,15.015.893,72.9a2.245,2.245,0,0,1-1.345,2.083,282.079,282.079,0,0,0-41.573,22.57,2.245,2.245,0,0,1-2.481-.015l-60.579-40.721L661.019,883.43l37.254,62.787a2.241,2.241,0,0,1-.123,2.477,282.125,282.125,0,0,0-24.85,40.259,2.251,2.251,0,0,1-2.155,1.227l-72.706-4.968-18.513,62.177,63.648,35.768a2.244,2.244,0,0,1,1.132,2.2,286.178,286.178,0,0,0-1.31,47.257,2.246,2.246,0,0,1-1.253,2.138l-65.523,32.112,15.048,63.127,72.869-.851a2.161,2.161,0,0,1,2.081,1.345,282.553,282.553,0,0,0,22.586,41.6,2.243,2.243,0,0,1-.014,2.479l-40.669,60.581,44.578,47.161,62.736-37.232a2.245,2.245,0,0,1,2.477.125,282.191,282.191,0,0,0,40.262,24.883,2.24,2.24,0,0,1,1.225,2.153l-4.922,72.735,62.162,18.559,35.715-63.651a2.227,2.227,0,0,1,2.2-1.131,285.554,285.554,0,0,0,47.237,1.337Zm-15.7-104.6q-2.58,0-5.172-.074a177.352,177.352,0,0,1-124.685-55.831c-67.624-71.543-64.492-184.749,6.983-252.358a178.4,178.4,0,0,1,252.264,7.134c67.623,71.542,64.491,184.748-6.984,252.357A177.055,177.055,0,0,1,926.624,1295.491Zm-.464-352.549a172.594,172.594,0,0,0-119.328,47.545c-69.678,65.909-72.731,176.272-6.806,246.017a173.917,173.917,0,0,0,245.922,6.956c69.678-65.91,72.732-176.273,6.807-246.017A172.9,172.9,0,0,0,931.2,943.014C929.521,942.967,927.834,942.942,926.16,942.942Z"/><path class="cls-1" d="M1610.922,538.43l-39.147-26.736-37.861,35.267a196.355,196.355,0,0,0-31.141-10.99l-7.561-51.149-47.255-3.588-15.148,49.5a198.722,198.722,0,0,0-32.4,6.1l-32.164-40.594-42.7,20.52,11.617,50.386a196.221,196.221,0,0,0-25,21.558l-48.126-19.082-26.7,39.133,35.289,37.891a196.318,196.318,0,0,0-10.966,31.136l-51.138,7.526-3.554,47.257,49.5,15.186a199.072,199.072,0,0,0,6.12,32.409L1222.025,812.3l20.548,42.72,50.372-11.583a196.571,196.571,0,0,0,21.572,25.013l-19.045,48.118,39.147,26.736,37.86-35.267a196.5,196.5,0,0,0,31.142,10.989l7.561,51.15,47.255,3.588,15.148-49.5a198.749,198.749,0,0,0,32.4-6.1l32.163,40.592,42.7-20.521-11.617-50.386a196.127,196.127,0,0,0,24.994-21.556l48.127,19.08,26.7-39.132-35.29-37.889a196.291,196.291,0,0,0,10.967-31.139l51.138-7.526,3.554-47.256-49.5-15.184a199.089,199.089,0,0,0-6.122-32.41l40.566-32.14-20.549-42.72-50.372,11.582a196.482,196.482,0,0,0-21.572-25.012Zm-56.951,257.894a122.035,122.035,0,1,1-32.026-169.562A121.944,121.944,0,0,1,1553.971,796.324Z"/><path d="M1458.438,976.006c-.057,0-.114,0-.171-.007l-47.254-3.588a2.243,2.243,0,0,1-2.049-1.909l-7.344-49.685a199.445,199.445,0,0,1-28.7-10.13l-36.776,34.257a2.248,2.248,0,0,1-2.794.211l-39.146-26.736a2.244,2.244,0,0,1-.82-2.678l18.5-46.739a199.425,199.425,0,0,1-19.881-23.048l-48.931,11.251a2.249,2.249,0,0,1-2.524-1.214L1220,813.272a2.244,2.244,0,0,1,.628-2.731l39.4-31.22a201.977,201.977,0,0,1-5.638-29.86l-48.092-14.751a2.243,2.243,0,0,1-1.578-2.313l3.554-47.258a2.242,2.242,0,0,1,1.91-2.05l49.673-7.31a199.385,199.385,0,0,1,10.106-28.689l-34.279-36.806a2.245,2.245,0,0,1-.211-2.793l26.7-39.132a2.244,2.244,0,0,1,2.68-.822l46.747,18.535a199.261,199.261,0,0,1,23.029-19.865l-11.285-48.944a2.245,2.245,0,0,1,1.215-2.525l42.7-20.52a2.243,2.243,0,0,1,2.729.629l31.245,39.434a201.936,201.936,0,0,1,29.852-5.62l14.715-48.082a2.242,2.242,0,0,1,2.314-1.581l47.254,3.587a2.243,2.243,0,0,1,2.049,1.909l7.345,49.685a199.377,199.377,0,0,1,28.7,10.13l36.776-34.257a2.243,2.243,0,0,1,2.793-.21l39.147,26.736a2.242,2.242,0,0,1,.82,2.677l-18.5,46.74a199.341,199.341,0,0,1,19.881,23.048l48.93-11.251a2.251,2.251,0,0,1,2.525,1.213l20.548,42.721a2.244,2.244,0,0,1-.628,2.73l-39.407,31.22A201.788,201.788,0,0,1,1652,705.538l48.091,14.75a2.242,2.242,0,0,1,1.577,2.312l-3.553,47.257a2.242,2.242,0,0,1-1.91,2.05l-49.673,7.31a199.327,199.327,0,0,1-10.107,28.691l34.28,36.8a2.245,2.245,0,0,1,.211,2.793l-26.7,39.132a2.246,2.246,0,0,1-2.68.821l-46.748-18.533a199.179,199.179,0,0,1-23.028,19.864l11.285,48.942a2.244,2.244,0,0,1-1.215,2.525l-42.7,20.521a2.244,2.244,0,0,1-2.729-.628l-31.246-39.433a201.492,201.492,0,0,1-29.85,5.618l-14.716,48.084A2.243,2.243,0,0,1,1458.438,976.006Zm-45.3-7.932,43.678,3.317,14.624-47.784a2.242,2.242,0,0,1,1.915-1.574,196.937,196.937,0,0,0,32.033-6.03,2.239,2.239,0,0,1,2.355.769l31.05,39.187,39.468-18.967-11.214-48.638a2.241,2.241,0,0,1,.872-2.321,194.555,194.555,0,0,0,24.709-21.31,2.24,2.24,0,0,1,2.426-.514l46.459,18.419,24.683-36.169-34.068-36.578a2.242,2.242,0,0,1-.4-2.446,194.7,194.7,0,0,0,10.841-30.783A2.244,2.244,0,0,1,1644.41,775l49.364-7.265,3.284-43.681-47.791-14.658a2.244,2.244,0,0,1-1.572-1.912,197.248,197.248,0,0,0-6.053-32.044,2.242,2.242,0,0,1,.769-2.356l39.159-31.025-18.993-39.49-48.626,11.181a2.237,2.237,0,0,1-2.319-.871,194.8,194.8,0,0,0-21.327-24.727,2.242,2.242,0,0,1-.514-2.425l18.386-46.452-36.186-24.714L1535.443,548.6a2.241,2.241,0,0,1-2.447.4,194.8,194.8,0,0,0-30.786-10.866,2.24,2.24,0,0,1-1.655-1.841l-7.3-49.379-43.679-3.314-14.622,47.782a2.243,2.243,0,0,1-1.914,1.575A197.244,197.244,0,0,0,1401,539a2.237,2.237,0,0,1-2.353-.769L1367.6,499.038,1328.132,518l11.214,48.639a2.243,2.243,0,0,1-.872,2.32,194.5,194.5,0,0,0-24.708,21.312,2.245,2.245,0,0,1-2.427.514l-46.459-18.42L1240.2,608.538l34.068,36.579a2.243,2.243,0,0,1,.405,2.446,194.7,194.7,0,0,0-10.84,30.781,2.244,2.244,0,0,1-1.846,1.657l-49.363,7.265-3.285,43.681,47.792,14.659a2.244,2.244,0,0,1,1.572,1.912,197.436,197.436,0,0,0,6.052,32.044,2.244,2.244,0,0,1-.769,2.356l-39.159,31.025,18.994,39.488,48.626-11.181a2.241,2.241,0,0,1,2.319.872,194.792,194.792,0,0,0,21.327,24.727,2.245,2.245,0,0,1,.514,2.426l-18.386,46.451,36.186,24.713,36.547-34.046a2.248,2.248,0,0,1,2.448-.4,194.958,194.958,0,0,0,30.786,10.866,2.242,2.242,0,0,1,1.656,1.843Zm39.883-116.293a123.394,123.394,0,0,1-69.837-21.693c-56.588-38.648-71.219-116.113-32.614-172.68a124.185,124.185,0,0,1,172.638-32.5c56.588,38.647,71.219,116.11,32.615,172.679a123.311,123.311,0,0,1-79.565,52.013A125.6,125.6,0,0,1,1453.022,851.781Zm.341-244.079a121.1,121.1,0,0,0-22.4,2.1,118.856,118.856,0,0,0-76.689,50.132c-37.211,54.527-23.107,129.2,31.439,166.449a119.7,119.7,0,0,0,166.4-31.323l1.852,1.264-1.852-1.264c37.21-54.527,23.106-129.194-31.44-166.448A118.963,118.963,0,0,0,1453.363,607.7Z"/><path class="cls-1" d="M1070.671,1885.537l-137.75,89.316a.762.762,0,0,1-.413.11l-341.12-.842c-.516,0-.773-.407-.408-.643l136.731-88.656a.775.775,0,0,1,.411-.11l342.139.182C1070.778,1884.894,1071.037,1885.3,1070.671,1885.537Z"/><path d="M932.508,1977.207l-341.125-.844a2.763,2.763,0,0,1-2.715-1.916,2.537,2.537,0,0,1,1.091-2.851l136.732-88.655a2.968,2.968,0,0,1,1.631-.472l342.14.182a2.764,2.764,0,0,1,2.72,1.914,2.534,2.534,0,0,1-1.09,2.853h0l-137.75,89.317A2.987,2.987,0,0,1,932.508,1977.207Zm-334.962-5.314,334.542.827,132-85.587-335.543-.178Zm131.4-85.195-.017.011Zm341.729-1.161h0Z"/><path d="M1070.987,1884.975v183.472l-136.824,88.766c-.521.338-1.413.1-1.413-.379v-181.87S1069.013,1885.039,1070.987,1884.975Z"/><path class="cls-1" d="M932.75,2157.369l-342.175-.835.291-182.224,341.884.654Z"/><path d="M932.75,2159.611h0l-342.175-.835a2.243,2.243,0,0,1-2.237-2.245l.29-182.224a2.249,2.249,0,0,1,.659-1.586,2.283,2.283,0,0,1,1.588-.654l341.884.654a2.243,2.243,0,0,1,2.239,2.243v182.4a2.243,2.243,0,0,1-2.243,2.243ZM592.822,2154.3l337.685.823V1977.2l-337.4-.645Z"/><path class="cls-1" d="M1575.477,1547.244l-137.624,88.873-381.179-.842c-.4,0-.6-.311-.314-.492l137.128-88.552,381.456.181C1575.616,1546.412,1575.952,1546.937,1575.477,1547.244Z"/><path d="M1437.853,1638.359h-.005l-381.18-.841a2.641,2.641,0,0,1-2.585-1.847,2.463,2.463,0,0,1,1.06-2.772l137.129-88.552a2.242,2.242,0,0,1,1.216-.359l381.457.181a2.926,2.926,0,0,1,2.892,2.008,2.622,2.622,0,0,1-1.144,2.951L1439.07,1638A2.243,2.243,0,0,1,1437.853,1638.359Zm-374.671-5.312,374.012.826,131.968-85.221-375.013-.179Z"/><path d="M1576.091,1546.492v521.835L1438.9,2156.968c-.387.25-1.049.073-1.049-.28V1636.117S1574.116,1546.556,1576.091,1546.492Z"/><path class="cls-1" d="M1437.853,2157.545l-381.671-.832c.816.527.291-521.247.291-521.247l381.38.651Z"/><path d="M1437.853,2159.787h0l-381.671-.831a2.242,2.242,0,0,1-2.181-1.742,2.213,2.213,0,0,1-.019-.9c.756-11.3.257-515.731.252-520.841a2.241,2.241,0,0,1,2.242-2.245h.005l381.38.651a2.242,2.242,0,0,1,2.239,2.242v521.428a2.241,2.241,0,0,1-2.243,2.243Zm-379.4-5.312,377.163.822V1638.355l-376.894-.643c.018,17.764.132,137.963.159,258.211.014,65.13.005,130.273-.061,179.162-.033,24.447-.079,44.829-.143,59.114C1058.623,2145.339,1058.6,2151.256,1058.448,2154.475Z"/><path d="M1319.3,2109.852a2.243,2.243,0,0,1-1.219-4.127l34.742-22.435a2.242,2.242,0,1,1,2.433,3.767l-34.742,22.436A2.226,2.226,0,0,1,1319.3,2109.852Z"/><path class="cls-1" d="M2072.325,1174.465l-138.912,107.271-376.126-1c-.556,0-.833-.521-.44-.825l136.824-105.659Z"/><path d="M1933.413,1283.979h-.005l-376.126-1a2.845,2.845,0,0,1-2.721-1.884,2.629,2.629,0,0,1,.916-2.959l136.823-105.66a2.245,2.245,0,0,1,1.371-.467l378.655.218a2.243,2.243,0,0,1,1.37,4.018l-138.912,107.27A2.24,2.24,0,0,1,1933.413,1283.979Zm-371.077-5.477,370.315.989,133.1-102.786-371.32-.215Z"/><path d="M2072.325,1174.56v876.893L1935.516,2157.16c-.527.408-1.429.119-1.429-.456V1281.736S2070.35,1174.637,2072.325,1174.56Z"/><path class="cls-1" d="M1934.087,2157.358l-377.721-.994c.816.63.29-875.406.29-875.406l377.431.778Z"/><path d="M1934.088,2159.6h-.006l-377.722-.994a2.243,2.243,0,0,1-2.188-1.781,2.213,2.213,0,0,1-.022-.806c.772-13.672.269-866.43.264-875.061a2.243,2.243,0,0,1,2.243-2.244h0l377.431.778a2.244,2.244,0,0,1,2.238,2.243v875.622a2.243,2.243,0,0,1-2.242,2.243Zm-375.431-5.473,373.188.982V1283.975l-372.945-.77c.015,23.625.132,229.444.16,435.305.015,109.4,0,218.816-.061,300.9-.033,41.045-.08,75.26-.143,99.225-.032,11.986-.068,21.408-.109,27.841C1558.724,2150.02,1558.709,2152.445,1558.657,2154.128Z"/><path d="M1717.075,2051.762a2.243,2.243,0,0,1-1.372-4.018l109.374-84.462a2.243,2.243,0,0,1,2.742,3.551l-109.374,84.461A2.232,2.232,0,0,1,1717.075,2051.762Z"/><path d="M1713.215,1988.167a2.243,2.243,0,0,1-1.373-4.018l34.742-26.828a2.243,2.243,0,1,1,2.742,3.55l-34.741,26.829A2.237,2.237,0,0,1,1713.215,1988.167Z"/><polygon class="cls-1" points="439.201 2027 429.896 2109.542 465 2124.158 477.93 2034.172 439.201 2027"/><path d="M465,2126.4a2.242,2.242,0,0,1-.861-.172l-35.105-14.615a2.245,2.245,0,0,1-1.367-2.322l9.305-82.541a2.245,2.245,0,0,1,2.637-1.955l38.73,7.172a2.244,2.244,0,0,1,1.811,2.524l-12.93,89.985A2.239,2.239,0,0,1,465,2126.4Zm-32.687-18.281,30.879,12.856,12.212-84.989-34.244-6.342Z"/><path class="cls-1" d="M421.726,2101.746a297.035,297.035,0,0,0-3.04,35.355,16.137,16.137,0,0,0,14.15,16.107c22.92,2.941,74.907,6.157,119.189,2.139,3.032-.275,8.393-2.484,9.886-10.054,5.013-25.415-39.2-31.645-87.684-50.083a5.236,5.236,0,0,0-5.507,1.12l-5.227,5.061a18.094,18.094,0,0,1-19.687,3.646l-15.9-6.782A4.471,4.471,0,0,0,421.726,2101.746Z"/><path d="M505.883,2159.489c-29.8,0-57.589-2.036-73.333-4.057a18.366,18.366,0,0,1-16.106-18.356,299.982,299.982,0,0,1,3.062-35.643,6.714,6.714,0,0,1,9.281-5.24l15.9,6.781a15.817,15.817,0,0,0,17.247-3.194l5.227-5.061a7.509,7.509,0,0,1,7.866-1.605c11.308,4.3,22.178,7.867,32.691,11.317,33.867,11.112,60.618,19.888,56.395,41.3-1.6,8.1-7.4,11.446-11.884,11.854C537.169,2158.946,521.256,2159.488,505.883,2159.489Zm-79.732-59.351a2.233,2.233,0,0,0-2.2,1.922h0a295.362,295.362,0,0,0-3.018,35.065,13.884,13.884,0,0,0,12.193,13.858c23.669,3.037,74.811,6.112,118.7,2.129,1.065-.1,6.448-.948,7.889-8.253,3.454-17.515-20.39-25.338-53.393-36.167-10.562-3.466-21.483-7.049-32.887-11.387a3.013,3.013,0,0,0-3.152.636l-5.226,5.06a20.3,20.3,0,0,1-22.128,4.1l-15.9-6.781A2.25,2.25,0,0,0,426.151,2100.138Zm-4.425,1.609h0Z"/><path class="cls-1" d="M418.721,2135.145s-.027,1.32-.035,1.956a16.137,16.137,0,0,0,14.15,16.107c22.92,2.941,74.907,6.157,119.189,2.139,3.032-.275,8.393-2.484,9.886-10.054a33.243,33.243,0,0,0,.177-6.5l-3.142.155a917.279,917.279,0,0,1-134.187-3.212Z"/><path d="M505.883,2159.489c-29.8,0-57.589-2.036-73.333-4.057a18.366,18.366,0,0,1-16.106-18.356l.034-1.977a2.243,2.243,0,0,1,.752-1.63,2.2,2.2,0,0,1,1.708-.557l6.04.59a918.194,918.194,0,0,0,133.857,3.2l3.142-.155a2.25,2.25,0,0,1,2.348,2.09,34.009,34.009,0,0,1-.214,7.088c-1.6,8.1-7.4,11.445-11.884,11.853C537.169,2158.946,521.256,2159.489,505.883,2159.489Zm-84.951-21.875a13.89,13.89,0,0,0,12.19,13.37c23.669,3.037,74.811,6.112,118.7,2.129,1.065-.1,6.448-.948,7.889-8.253a20.878,20.878,0,0,0,.217-3.718l-.871.043a921.749,921.749,0,0,1-134.515-3.22Z"/><path d="M485.345,2124.9a2.243,2.243,0,0,1-1.585-3.829l17.01-17.017a2.243,2.243,0,1,1,3.171,3.172l-17.01,17.017A2.234,2.234,0,0,1,485.345,2124.9Z"/><path d="M502.054,2126.666a2.242,2.242,0,0,1-1.616-3.8l13.591-14.12a2.243,2.243,0,0,1,3.233,3.11l-13.591,14.12A2.238,2.238,0,0,1,502.054,2126.666Z"/><path d="M566.7,1483.04s-21.37,12.4-29.711,85.125-5.557,158.451-63.637,243.468c-46.386,67.9-42.31,182.489-49.052,257.6a6.333,6.333,0,0,0,6.1,6.895l44.468,1.524a6.33,6.33,0,0,0,6.254-4.38c7.947-24.612,47.474-143.353,91.872-212.2,46.921-72.761,103.977-261.625,103.977-261.625s-10.59-47.739-12.06-93.495S566.7,1483.04,566.7,1483.04Z"/><polygon class="cls-1" points="810.787 1820.47 792.034 1901.39 825.221 1919.953 848.432 1832.057 810.787 1820.47"/><path d="M825.221,1922.2a2.227,2.227,0,0,1-1.1-.286l-33.187-18.562a2.24,2.24,0,0,1-1.09-2.462l18.754-80.921a2.24,2.24,0,0,1,2.844-1.637l37.645,11.586a2.241,2.241,0,0,1,1.509,2.716l-23.212,87.9a2.241,2.241,0,0,1-2.168,1.67ZM794.6,1900.256l29.192,16.327,21.924-83.016-33.286-10.245Z"/><path class="cls-1" d="M788.048,1896.61c-1.106,7.825-8.138,22.655-8.286,35.67a16.135,16.135,0,0,0,14.149,16.106c22.92,2.942,80.153,5.842,124.436,1.824,3.032-.275,8.393-2.483,9.886-10.053,5.012-25.415-39.2-31.645-87.684-50.083a5.234,5.234,0,0,0-5.507,1.119l-5.227,5.061a18.094,18.094,0,0,1-19.687,3.646l-15.9-6.781A4.47,4.47,0,0,0,788.048,1896.61Z"/><path d="M868.7,1954.4c-29.943,0-59.036-1.734-75.076-3.793a18.369,18.369,0,0,1-16.107-18.356c.1-8.532,3.025-17.774,5.377-25.2a77.434,77.434,0,0,0,2.932-10.759,6.714,6.714,0,0,1,9.282-5.239l15.9,6.781a15.819,15.819,0,0,0,17.246-3.193l5.227-5.062a7.5,7.5,0,0,1,7.865-1.6c11.308,4.3,22.178,7.867,32.691,11.316,33.868,11.112,60.62,19.889,56.4,41.3-1.6,8.1-7.4,11.446-11.883,11.853C903.178,1953.838,885.8,1954.4,868.7,1954.4ZM792.472,1895a2.229,2.229,0,0,0-2.2,1.922,79.776,79.776,0,0,1-3.1,11.485c-2.263,7.142-5.078,16.032-5.168,23.9a13.883,13.883,0,0,0,12.193,13.858c20.788,2.666,78.487,5.937,123.948,1.813,1.064-.1,6.447-.947,7.888-8.253,3.455-17.515-20.391-25.339-53.394-36.167-10.561-3.465-21.483-7.049-32.887-11.386a3.007,3.007,0,0,0-3.15.634l-5.227,5.061a20.292,20.292,0,0,1-22.127,4.1l-15.9-6.781A2.246,2.246,0,0,0,792.472,1895Zm-4.424,1.607h0Z"/><path class="cls-1" d="M781.008,1929.782s-.027,1.32-.034,1.956a16.136,16.136,0,0,0,14.149,16.107c22.92,2.941,78.941,6.383,123.224,2.365,3.032-.275,8.393-2.483,9.886-10.053a33.253,33.253,0,0,0,.177-6.5l-3.142.155a917.279,917.279,0,0,1-134.187-3.212Z"/><path d="M872.962,1954.289c-33.172,0-64.246-2.438-78.125-4.22a18.367,18.367,0,0,1-16.106-18.356l.034-1.976a2.249,2.249,0,0,1,.738-1.618,2.188,2.188,0,0,1,1.685-.572l10.074.815a918.1,918.1,0,0,0,133.9,3.2l3.14-.154a2.239,2.239,0,0,1,2.348,2.09,34.06,34.06,0,0,1-.213,7.088c-1.6,8.1-7.4,11.446-11.883,11.853C903.89,1953.774,888.2,1954.289,872.962,1954.289Zm-89.744-22.078a13.89,13.89,0,0,0,12.191,13.41c20.1,2.579,76.539,6.547,122.736,2.355,1.064-.1,6.447-.947,7.888-8.253a20.913,20.913,0,0,0,.218-3.719l-.872.044a922.946,922.946,0,0,1-134.516-3.219Z"/><path d="M851.668,1919.764a2.243,2.243,0,0,1-1.586-3.828l17.01-17.017a2.243,2.243,0,0,1,3.172,3.171l-17.011,17.017A2.234,2.234,0,0,1,851.668,1919.764Z"/><path d="M868.377,1921.529a2.242,2.242,0,0,1-1.617-3.8l13.592-14.121a2.243,2.243,0,1,1,3.232,3.11l-13.591,14.121A2.237,2.237,0,0,1,868.377,1921.529Z"/><path d="M641.338,1604.722s104.842,31.192,216.349-28.688a3.646,3.646,0,0,1,4.8,5.165c-5.614,8.879-21.66,30.69-30.033,53.414-10.308,27.979-32.072,172.728-39.244,217.775a6.838,6.838,0,0,0,6.538,7.911l42.873,1.393a6.825,6.825,0,0,0,6.388-3.866c15.472-32.23,125.582-285.077,121.725-332.325-4.169-51.076-71.579-48.473-95.9-50.034-25.16-1.615-225.8,3.065-225.8,3.065Z"/><path class="cls-1" d="M348.455,1537.674c3.454-4.116,7.927-8.945,11.773-12.746,4.966-4.906,21.549-37.182,21.549-37.182l29,8.216s-13.556,23.712-10.3,35.521c3.033,11,5.425,34.225-10.677,51.132-1.848,1.94-5.893,2.453-7.3,2.125-4.2-.983-4.288-6.818-2.229-10.61l5.814-10.711a1.3,1.3,0,0,0-1.322-1.912c-4.35.612-13.917,3.4-23.931,15.752-7.7,9.5-22.972,30.713-28.106,27.2C323.556,1598.186,329.548,1560.206,348.455,1537.674Z"/><path d="M334,1607.1a4.4,4.4,0,0,1-2.543-.788c-2.553-1.747-4.189-5.116-4.86-10.013-2.043-14.907,5.076-42.111,20.141-60.064,3.463-4.127,7.918-8.95,11.916-12.9,3.862-3.819,16.562-27.722,21.129-36.611a2.242,2.242,0,0,1,2.606-1.133l29,8.216a2.242,2.242,0,0,1,1.336,3.27c-3.641,6.373-12.55,24.873-10.085,33.813,1.482,5.374,7.906,33.2-11.215,53.274-2.542,2.666-7.492,3.219-9.432,2.761a6.479,6.479,0,0,1-4.507-3.756c-1.264-2.816-.936-6.879.817-10.108l4.864-8.961c-4.346,1.054-12.293,4.341-20.589,14.574-1.145,1.413-2.459,3.086-3.882,4.9C348.022,1597.156,339.714,1607.1,334,1607.1Zm48.93-116.694c-3.687,7.114-16.537,31.586-21.123,36.12-3.847,3.8-8.3,8.625-11.632,12.592h0c-13.826,16.474-21.056,42.552-19.134,56.572.479,3.487,1.526,5.945,2.95,6.92,3.275.936,16.288-15.588,21.173-21.809,1.438-1.834,2.766-3.524,3.925-4.954,10.345-12.76,20.329-15.852,25.36-16.56a3.542,3.542,0,0,1,3.605,5.2l-5.814,10.711c-1.066,1.966-1.353,4.6-.667,6.132a1.986,1.986,0,0,0,1.436,1.225c.866.2,4-.267,5.165-1.488,17.452-18.327,11.507-44.023,10.138-48.988-2.847-10.324,5.7-28.142,9.152-34.725Zm-34.474,47.27h0Z"/><path class="cls-1" d="M1043.512,1173.2l-18.738-31.588c-3.081-5.195-12.779-6.769-17.618-3.162-105.887,78.927-218.529,46.736-235.938,42.591-43.174-10.281-64.927-11.849-99.01-13.924-49.875-3.037-121.631,25.806-169.91,74.087-38.41,38.409-103.924,162.989-133.625,249.538a7.755,7.755,0,0,0,3.77,9.406l29.806,15.466a7.746,7.746,0,0,0,10.422-3.235c15.169-28.58,80.885-147.1,149.663-186.235,5.054-2.875,12.663.166,12.371,5.973-.916,18.216-12.222,85.747-15.669,148.315a16.419,16.419,0,0,0,13.374,17.086l30.088,5.577c52.48,12.222,101.682-1.391,123.362-9.128,6.636-2.37,9.849-8.77,10.857-15.745,1.67-11.567,24.965-104.332,67.44-165.69,5.347-7.724,13.449-13.072,22.827-13.62,37.874-2.214,145.676-17.357,216.072-115.991A8.9,8.9,0,0,0,1043.512,1173.2Z"/><path d="M405.8,1518.718a9.93,9.93,0,0,1-4.583-1.119l-29.806-15.465a9.942,9.942,0,0,1-4.859-12.125c30.648-89.31,97.1-213.338,134.162-250.4,46.527-46.53,118.72-77.973,171.631-74.739,34.91,2.125,56.739,3.823,99.393,13.981.684.162,1.512.368,2.478.607,85.5,21.2,165.578,6.4,231.6-42.816,2.9-2.162,7.254-2.922,11.657-2.044,4.15.831,7.515,2.967,9.231,5.861l18.737,31.588a11.158,11.158,0,0,1-.558,12.168c-70.043,98.138-175.624,114.464-217.767,116.928-8.18.477-15.876,5.09-21.114,12.657-40.441,58.419-64.879,149.6-67.064,164.734-1.29,8.933-5.667,15.159-12.323,17.536-24.2,8.638-72.578,21.32-124.625,9.2L572,1499.718a18.716,18.716,0,0,1-15.2-19.415c2.219-40.269,7.611-82.008,11.548-112.484,2.122-16.421,3.8-29.392,4.121-35.82a4.131,4.131,0,0,0-2.145-3.706,7.038,7.038,0,0,0-6.876-.2c-67.025,38.133-130.832,151.5-148.792,185.337A10.016,10.016,0,0,1,405.8,1518.718ZM664.667,1169.13c-50.933,0-117.225,30.095-160.783,73.655-36.688,36.688-102.612,159.866-133.091,248.681a5.484,5.484,0,0,0,2.682,6.686l29.807,15.465a5.526,5.526,0,0,0,7.408-2.294c18.1-34.107,82.46-148.4,150.535-187.133a11.54,11.54,0,0,1,11.446.285,8.47,8.47,0,0,1,4.273,7.75c-.332,6.6-2.017,19.65-4.151,36.168-3.929,30.408-9.308,72.053-11.518,112.158a14.218,14.218,0,0,0,11.543,14.756l30.089,5.578c51.028,11.88,98.459-.562,122.2-9.036,6.427-2.294,8.653-8.854,9.39-13.953,1.488-10.306,24.2-103.643,67.815-166.646,6.03-8.708,14.975-14.024,24.542-14.582,41.5-2.426,145.46-18.494,214.377-115.056a6.67,6.67,0,0,0,.352-7.272l-18.738-31.589c-1.053-1.776-3.39-3.178-6.253-3.75-3.124-.625-6.229-.15-8.1,1.242-66.175,49.326-149.758,64.8-235.36,43.573-.952-.236-1.766-.439-2.437-.6-42.294-10.072-63.965-11.757-98.627-13.868C669.645,1169.2,667.172,1169.13,664.667,1169.13Z"/><path class="cls-1" d="M1017.722,1151.1a6.738,6.738,0,0,1,2.248-6.275c2.4-2.044,6.449-5.518,12.323-10.66,10.357-9.064,23.319-27.148,34.613-32.574s52.263-21.431,58.811-18.035,3.3,11.087-6,15.556-21.407,9.058-21.407,9.058,6.767-.389,11.767,7.43-1.927,10.977,1,14.847c3.743,4.956,2.637,10.723-.331,13.248-6.764,5.756-14.955-5.624-21.069,6.153-4.249,8.184-14.282,13.514-34.638,17.4a45,45,0,0,0-15.378,6.087,6.3,6.3,0,0,1-6.427.183A31.1,31.1,0,0,1,1017.722,1151.1Z"/><path d="M1036.27,1176.556a8.42,8.42,0,0,1-4.141-1.083,33.328,33.328,0,0,1-16.619-24,9.039,9.039,0,0,1,3.007-8.358c2.4-2.039,6.435-5.506,12.3-10.639a166.571,166.571,0,0,0,11.927-12.227c7.673-8.375,15.606-17.036,23.191-20.681,4.828-2.32,52.183-22.485,60.815-18,3.044,1.578,4.694,4.091,4.648,7.076-.07,4.567-4.172,9.354-10.707,12.492-5.1,2.45-11.075,4.952-15.444,6.716a19,19,0,0,1,6.722,6.542c3.461,5.414,2.078,9.277,1.163,11.834-.674,1.88-.711,2.283-.267,2.87,4.47,5.919,3.134,13.074-.667,16.309-3.714,3.161-7.782,2.314-11.054,1.63-4.211-.877-6.749-1.408-9.479,3.847-4.708,9.069-15.537,14.623-36.208,18.572a42.582,42.582,0,0,0-14.61,5.786A8.638,8.638,0,0,1,1036.27,1176.556Zm-16.337-25.829a28.913,28.913,0,0,0,14.4,20.839,4.049,4.049,0,0,0,4.137-.133,47.06,47.06,0,0,1,16.145-6.388c19.173-3.662,29.062-8.516,33.068-16.232,4.3-8.275,10.125-7.056,14.376-6.171,3.215.67,5.287,1,7.231-.656,1.888-1.607,3.191-5.955,0-10.189-1.977-2.616-1.09-5.093-.377-7.084.8-2.236,1.556-4.348-.719-7.907-4.168-6.519-9.53-6.41-9.772-6.4a2.27,2.27,0,0,1-2.291-1.8,2.234,2.234,0,0,1,1.391-2.541c.12-.046,12.126-4.608,21.231-8.983,5.591-2.686,8.128-6.213,8.165-8.517.006-.46.027-1.856-2.229-3.027-4.764-2.468-41.947,10.926-56.807,18.066-6.8,3.269-14.441,11.606-21.826,19.668a169.608,169.608,0,0,1-12.28,12.572c-5.886,5.153-9.941,8.633-12.347,10.681A4.471,4.471,0,0,0,1019.933,1150.727Z"/><path class="cls-1" d="M743.983,1081.488l-56.018,92.851c-.765,1.057-8.987.771-18.264,1.711-4.329.438-8.859,1.1-12.608,1.707a3.43,3.43,0,0,0-1.349,6.247l10.026,6.641c21.023,13.923,45.984,21.124,71.142,19.416a86.413,86.413,0,0,0,19.651-3.456l21.455-6.751a3.43,3.43,0,0,0-.035-6.555l-27.32-8.279,23.067-48.962Z"/><path d="M729.718,1212.547a118.838,118.838,0,0,1-65.186-20.033l-10.026-6.641a5.672,5.672,0,0,1,2.227-10.33c4.728-.766,9.013-1.347,12.74-1.726,3.826-.386,7.507-.57,10.466-.718,2.524-.126,5.346-.266,6.46-.493l55.663-92.276a2.242,2.242,0,0,1,3.89.085l29.747,54.57a2.243,2.243,0,0,1,.061,2.029L753.8,1183.627l24.836,7.526a5.673,5.673,0,0,1,.057,10.841l-21.454,6.75a88.269,88.269,0,0,1-20.173,3.554Q733.4,1212.547,729.718,1212.547Zm14.166-126.554-54,89.5c-1.187,1.656-3.338,1.763-9.722,2.082-2.908.146-6.526.325-10.237.7-3.638.369-7.836.937-12.474,1.69a1.186,1.186,0,0,0-.469,2.162l10.026,6.642c21,13.911,45.767,20.67,69.751,19.048a83.732,83.732,0,0,0,19.137-3.359l21.447-6.749a1.188,1.188,0,0,0-.011-2.27l-27.32-8.278a2.243,2.243,0,0,1-1.379-3.1l22.582-47.931Z"/><path class="cls-1" d="M768.992,1137.973a50.156,50.156,0,0,0,9.074.337l5.533-.289s31.72-4.207,36.806-12.073-5.666-36.422-5.666-36.422c4.906-3.814,6-8.634,4.953-10.25s-8.121-4.091-10.989-6.2c-2.338-1.721-7.578-15.391-9.824-21.255,0,0-4.153-23.18-41.329-20.169-85.184,6.9-23.936,85.732-23.936,85.732q1.974,2.3,4.079,4.4Z"/><path d="M775.394,1140.624a51.335,51.335,0,0,1-13.848-1.883,2.242,2.242,0,1,1,1.207-4.319,47.427,47.427,0,0,0,15.2,1.649l5.532-.289c11.69-1.56,31.746-5.959,35.039-11.053,3.259-5.038-1.878-23.781-5.882-34.412a2.245,2.245,0,0,1,.723-2.562c3.831-2.977,4.718-6.5,4.409-7.331a38.388,38.388,0,0,0-4.556-2.374,39.809,39.809,0,0,1-5.842-3.172c-2.094-1.542-4.963-7.574-10.588-22.258a2.214,2.214,0,0,1-.113-.407c-.162-.853-4.409-21.116-38.941-18.329-21.011,1.7-34.41,7.741-39.828,17.951-9.165,17.272,5.421,43.086,14.135,58.508l.773,1.369a2.243,2.243,0,0,1-3.908,2.2l-.77-1.365c-9.166-16.223-24.509-43.375-14.192-62.818,6.181-11.649,20.793-18.485,43.429-20.318,36.6-2.967,43.021,19.074,43.659,21.746,5.834,15.217,8.129,19.344,9.026,20.124a38.631,38.631,0,0,0,5.1,2.719c3.516,1.681,5.547,2.7,6.424,4.054,1.722,2.657.382,7.955-4.191,12.167,2.341,6.511,9.915,29.194,4.9,36.941-5.49,8.49-35.042,12.635-38.394,13.08l-5.71.305Q776.785,1140.625,775.394,1140.624Z"/><path d="M740.158,1021.567c9.289-1.831,19.875-.389,24.4-1.93,7.3-2.485,7.127-10.884,17.419-11.712,9.046-.728,17.462.957,22.027,7.888a18.684,18.684,0,0,1,1.956,3.906c7.13,19.586-2.72,29.032-7.078,32.1,0,0-27.585,13.248-32.347,17.058-4.453,3.563-9.7,12.042-6.837,24.308a3.712,3.712,0,0,1-6.666,2.912c-3.419-4.941-10.925-14.5-16.489-12.3-6.49,2.573-8.693,18.879,3.233,22.912a5.516,5.516,0,0,1,2.237,8.883c-2.195,2.354-5.551,4-10.609,2.715,0,0-29.676-21.161-33.19-49.043S727.8,1024,740.158,1021.567Z"/><rect class="cls-1" x="1770.917" y="997.234" width="77.946" height="207.835"/><path d="M1848.862,1207.311h-77.946a2.242,2.242,0,0,1-2.242-2.243V997.233a2.243,2.243,0,0,1,2.242-2.243h77.946a2.243,2.243,0,0,1,2.243,2.243v207.835A2.243,2.243,0,0,1,1848.862,1207.311Zm-75.7-4.486h73.461V999.476h-73.461Z"/><rect class="cls-1" x="1738.635" y="1149.961" width="141.706" height="58.257" rx="15.026"/><path d="M1865.314,1210.46H1753.661a17.288,17.288,0,0,1-17.269-17.268v-28.2a17.288,17.288,0,0,1,17.269-17.269h111.653a17.288,17.288,0,0,1,17.269,17.269v28.2A17.288,17.288,0,0,1,1865.314,1210.46ZM1753.661,1152.2a12.8,12.8,0,0,0-12.783,12.784v28.2a12.8,12.8,0,0,0,12.783,12.783h111.653a12.8,12.8,0,0,0,12.783-12.783v-28.2a12.8,12.8,0,0,0-12.783-12.784Z"/><path class="cls-1" d="M1686.129,1198.771h246.7a24.651,24.651,0,0,1,24.651,24.651v21.009a0,0,0,0,1,0,0H1661.478a0,0,0,0,1,0,0v-21.009A24.651,24.651,0,0,1,1686.129,1198.771Z"/><path d="M1957.486,1246.674H1661.478a2.242,2.242,0,0,1-2.243-2.242v-21.01a26.925,26.925,0,0,1,26.894-26.895h246.705a26.925,26.925,0,0,1,26.894,26.895v21.01A2.242,2.242,0,0,1,1957.486,1246.674Zm-293.766-4.485h291.523v-18.767a22.435,22.435,0,0,0-22.409-22.409H1686.129a22.435,22.435,0,0,0-22.409,22.409Z"/><path class="cls-1" d="M1749.705,987.084c-81.772-45.921-163.527-115.221-224.3-190.129-37.319-46-96.842-132.068-76.2-191.711,5.959-17.219,21.12-38.85,59.5-44.117,27.864-3.82,65.528,1.456,111.972,15.688L1610.544,617.8c-41.61-12.749-74.31-17.622-97.172-14.483-15.736,2.159-25.339,7.95-28.546,17.211-7.606,21.98,10.751,76.245,68.907,147.926,57.741,71.167,135.436,137.019,213.164,180.669Z"/><path d="M1749.7,989.327a2.255,2.255,0,0,1-1.1-.287c-82.009-46.055-164-115.552-224.945-190.673-37.613-46.357-97.577-133.185-76.579-193.856,6.164-17.813,21.807-40.184,61.315-45.605,28.188-3.866,66.183,1.44,112.933,15.765a2.241,2.241,0,0,1,1.52,2.682l-10.129,40.987a2.242,2.242,0,0,1-2.834,1.607c-41.3-12.653-73.677-17.5-96.21-14.4-14.83,2.035-23.823,7.324-26.731,15.722-7.4,21.393,10.915,74.766,68.528,145.779C1613.044,838,1690.505,903.654,1768,947.171a2.244,2.244,0,0,1,.945,2.881l-17.193,37.957a2.246,2.246,0,0,1-2.044,1.318Zm-222.11-427.163a137.1,137.1,0,0,0-18.589,1.186c-37.252,5.112-51.93,26-57.685,42.629-20.288,58.619,38.8,143.929,75.824,189.563,60.075,74.045,140.708,142.594,221.529,188.385l15.334-33.855c-77.363-43.786-154.548-109.371-212.015-180.2-58.7-72.35-77.1-127.5-69.284-150.071,3.5-10.126,13.719-16.417,30.359-18.7,22.774-3.128,55.014,1.539,95.867,13.869l9.052-36.626C1582.405,567.58,1552.11,562.164,1527.594,562.164Z"/><path class="cls-1" d="M1871.721,984.721C1952.166,938.8,2032.6,869.5,2092.387,794.592c36.715-46,95.273-132.067,74.966-191.71-5.863-17.219-20.777-38.851-58.535-44.117-27.413-3.821-64.466,1.456-110.157,15.687l9.965,40.988c40.935-12.749,73.105-17.622,95.6-14.482,15.481,2.158,24.929,7.949,28.083,17.21,7.483,21.981-10.576,76.245-67.789,147.926-56.805,71.168-133.241,137.019-209.709,180.67Z"/><path d="M1871.72,986.964a2.242,2.242,0,0,1-2.048-1.329l-16.914-37.958a2.244,2.244,0,0,1,.937-2.862c76.228-43.512,152.431-109.163,209.068-180.12,56.684-71.018,74.7-124.4,67.419-145.8-2.859-8.394-11.7-13.68-26.269-15.712-22.168-3.1-54,1.751-94.62,14.4a2.241,2.241,0,0,1-2.846-1.611l-9.966-40.988a2.242,2.242,0,0,1,1.512-2.671c46.008-14.328,83.4-19.636,111.135-15.767,38.888,5.424,54.282,27.8,60.348,45.615,20.652,60.657-38.336,147.478-75.336,193.833-59.96,75.121-140.624,144.62-221.308,190.678A2.245,2.245,0,0,1,1871.72,986.964ZM1857.68,947.7l15.079,33.84c79.493-45.79,158.786-114.32,217.874-188.349,36.429-45.637,94.56-130.953,74.6-189.588-5.66-16.623-20.095-37.511-56.722-42.62-26.677-3.714-62.724,1.324-107.17,14.986l8.9,36.622c40.174-12.322,71.886-16.986,94.291-13.856,16.387,2.284,26.445,8.579,29.9,18.709,7.679,22.558-10.418,77.7-68.159,150.048C2009.725,838.332,1933.8,903.916,1857.68,947.7Z"/><path class="cls-1" d="M1810.072,1023.994c208.057,2.315,210.314-293.257,255.07-528.708l-511.716-1.895C1594.788,735.637,1602.331,1027.922,1810.072,1023.994Z"/><path d="M1805.993,1026.274c-78.6,0-135.211-43.17-172.991-131.851-34.03-79.881-49.914-188.525-65.275-293.592-5.181-35.437-10.539-72.08-16.512-107.062a2.244,2.244,0,0,1,.5-1.828,2.027,2.027,0,0,1,1.721-.792l511.715,1.894a2.243,2.243,0,0,1,2.195,2.661c-7.626,40.124-14.126,82.7-20.412,123.879-15.294,100.189-31.107,203.789-64.429,280.027-37.232,85.186-92.878,126.635-170.037,126.639-.8,0-1.583,0-2.388-.013Q1808.026,1026.275,1805.993,1026.274Zm-249.909-530.63c5.8,34.236,11.025,69.962,16.081,104.537,15.32,104.785,31.161,213.138,64.964,292.484,37.482,87.986,91.164,129.123,168.681,129.126,1.4,0,2.8-.013,4.219-.041h.068c.828.01,1.659.015,2.48.015,76.153,0,128.882-39.446,165.816-123.952,33.087-75.7,48.856-179,64.106-278.907,6.154-40.31,12.512-81.966,19.938-121.387Z"/><path d="M2002.321,768.219a2.19,2.19,0,0,1-.453-.046,2.244,2.244,0,0,1-1.746-2.648c9.5-46.212,15.93-96.637,22.148-145.4,2.3-18.043,4.679-36.7,7.18-54.888a2.243,2.243,0,0,1,4.444.611c-2.5,18.166-4.876,36.812-7.175,54.844-6.229,48.848-12.669,99.359-22.2,145.737A2.243,2.243,0,0,1,2002.321,768.219Z"/><path d="M1814.529,1010.2a2.243,2.243,0,0,1-.192-4.477c76.029-6.585,126.936-60.432,160.207-169.461a2.243,2.243,0,1,1,4.291,1.309c-21.315,69.848-61.519,163.737-164.11,172.62A1.861,1.861,0,0,1,1814.529,1010.2Z"/><rect class="cls-1" x="1528.356" y="454.199" width="566.794" height="67.307" rx="18.169"/><path d="M2076.981,523.749H1546.525a20.435,20.435,0,0,1-20.412-20.412V472.368a20.434,20.434,0,0,1,20.412-20.412h530.456a20.434,20.434,0,0,1,20.411,20.412v30.969A20.435,20.435,0,0,1,2076.981,523.749Zm-530.456-67.308a15.944,15.944,0,0,0-15.926,15.927v30.969a15.944,15.944,0,0,0,15.926,15.926h530.456a15.944,15.944,0,0,0,15.926-15.926V472.368a15.944,15.944,0,0,0-15.926-15.927Z"/><path d="M1920.617,484.209a2.243,2.243,0,0,1-.025-4.486l106.137-1.186h.025a2.243,2.243,0,0,1,.025,4.486l-106.137,1.186Z"/><path d="M1833.691,485.18a2.243,2.243,0,0,1-.025-4.485l59.116-.661h.025a2.243,2.243,0,0,1,.025,4.486l-59.116.66Z"/><path class="cls-1" d="M1981.82,2017.684s-91.984-201.62-39.219-462.992c0,0,142.561,119.46,91.166,462.992Z"/><path d="M2033.767,2019.926H1981.82a2.241,2.241,0,0,1-2.04-1.312c-.231-.505-23.294-51.6-39.556-133.977-15-76-27.151-195.01.178-330.388a2.244,2.244,0,0,1,3.639-1.276c1.473,1.234,36.407,31.06,65.5,103.555,26.76,66.686,53.07,183.532,26.446,361.487A2.242,2.242,0,0,1,2033.767,2019.926Zm-50.484-4.485h48.55c26-175.885,0-291.31-26.457-357.242-23.923-59.616-52.38-90.4-61.359-99.138-26.156,132.969-14.182,249.727.577,324.559C1959.312,1958.246,1979.614,2006.982,1983.283,2015.441Z"/><path d="M2004.317,1998.905c-.042,0-.084,0-.125,0a2.243,2.243,0,0,1-2.117-2.362c7.046-128.97-51.088-404.16-51.676-406.925a2.243,2.243,0,0,1,4.387-.933c.589,2.771,58.845,278.546,51.768,408.1A2.244,2.244,0,0,1,2004.317,1998.905Z"/><path class="cls-1" d="M2074.358,1689.889s-118.513,214.118-47.223,306.773h38.132S2141.476,1829.285,2074.358,1689.889Z"/><path d="M2065.268,1998.905h-38.133a2.242,2.242,0,0,1-1.777-.875c-30.041-39.043-31.213-103.029-3.483-190.18,20.547-64.576,50.224-118.509,50.521-119.047a2.14,2.14,0,0,1,2.026-1.156,2.245,2.245,0,0,1,1.957,1.27c34.931,72.548,30.6,152.626,20.811,207.029-10.59,58.865-29.689,101.224-29.881,101.646A2.245,2.245,0,0,1,2065.268,1998.905Zm-37.02-4.486H2063.8c6.8-15.8,70-169.969,10.429-299.534C2058.8,1724.214,1965.239,1910.375,2028.248,1994.419Z"/><path d="M2044.94,2004.576a2.241,2.241,0,0,1-2.239-2.156c-2.364-60.9,12.333-185.076,21.3-253.679a2.243,2.243,0,1,1,4.448.583c-8.953,68.46-23.622,192.354-21.271,252.923a2.24,2.24,0,0,1-2.154,2.327C2045,2004.576,2044.969,2004.576,2044.94,2004.576Z"/><path class="cls-1" d="M1848.094,1769.71s100.957,34.444,137.512,238.369H1945.9S1863.03,1896.084,1848.094,1769.71Z"/><path d="M1985.606,2010.321H1945.9a2.239,2.239,0,0,1-1.8-.909c-.833-1.124-83.395-113.925-98.229-239.439a2.243,2.243,0,0,1,2.952-2.385c1.054.359,26.152,9.2,56.012,43.359,27.384,31.328,64.01,90.889,82.983,196.736a2.242,2.242,0,0,1-2.207,2.638Zm-38.564-4.485h35.877c-18.876-102.94-54.513-160.994-81.2-191.634-22.807-26.184-43.092-37.3-50.923-40.921C1865.929,1890.147,1939.288,1995.028,1947.042,2005.836Z"/><path d="M1963.9,2004.576a2.243,2.243,0,0,1-2.211-1.877c-15.039-90.889-80.127-182.447-80.783-183.361a2.243,2.243,0,0,1,3.645-2.615c.661.923,66.35,93.308,81.564,185.245a2.244,2.244,0,0,1-1.847,2.579A2.309,2.309,0,0,1,1963.9,2004.576Z"/><path class="cls-1" d="M1887.042,1991.893h249.069l5.587,117.812a50.653,50.653,0,0,1-50.6,53.052h-142.25a61.911,61.911,0,0,1-61.911-61.969Z"/><path d="M2091.1,2165H1948.852a64.153,64.153,0,0,1-64.154-64.213l.1-108.9a2.244,2.244,0,0,1,2.243-2.241h249.07a2.244,2.244,0,0,1,2.241,2.137l5.586,117.812A52.9,52.9,0,0,1,2091.1,2165Zm-201.818-170.864-.1,106.655a59.669,59.669,0,0,0,59.669,59.723H2091.1a48.412,48.412,0,0,0,48.357-50.7l-5.485-115.675Z"/><path d="M582.01,689.663a2.243,2.243,0,0,1-1.641-3.771C716.842,539.467,849.361,477.959,936.5,452.145c94.554-28.01,157.751-21.217,158.377-21.147a2.243,2.243,0,0,1-.511,4.457c-.618-.07-63.106-6.75-156.857,21.069-86.538,25.68-218.177,86.848-353.86,232.425A2.234,2.234,0,0,1,582.01,689.663Z"/><path d="M614.717,598.117a2.242,2.242,0,0,1-1.49-3.919c149.3-132.665,285.039-181.627,372.624-199.341,95.059-19.225,155.669-6.81,156.271-6.682a2.243,2.243,0,0,1-.93,4.388c-.594-.127-60.507-12.357-154.731,6.747-86.98,17.635-221.822,66.344-370.255,198.241A2.233,2.233,0,0,1,614.717,598.117Z"/><path d="M1212.244,362.008q-.377,0-.752-.021c-6.31-.362-9.942-5.165-13.454-9.81-3.309-4.378-6.436-8.514-11.677-9.358-6.283-1.014-11.355,3.525-16.731,8.33-5.9,5.269-11.977,10.726-20.353,9.475-7.4-1.1-11.462-6.846-15.049-11.914-3.435-4.854-6.4-9.046-11.586-9.218-4.4-.147-7.886,2.69-11.555,5.692-4.3,3.515-9.167,7.5-15.895,6.118a16.715,16.715,0,0,1-7.643-4.107c-1.9-1.564-3.4-2.8-5.986-2.929-4.131-.211-8.586,2.517-13.212,8.109a2.242,2.242,0,0,1-3.456-2.858c5.576-6.743,11.243-10.026,16.9-9.73,4.061.206,6.475,2.191,8.607,3.943,1.748,1.438,3.26,2.68,5.693,3.178,4.643.951,8.125-1.9,12.156-5.2,3.955-3.237,8.455-6.918,14.544-6.7,7.41.246,11.319,5.769,15.1,11.11,3.366,4.757,6.545,9.249,12.048,10.068,6.269.934,11.339-3.592,16.7-8.384,5.924-5.29,12.051-10.759,20.432-9.412,7.021,1.13,11.017,6.417,14.543,11.081,3.162,4.182,5.892,7.794,10.131,8.036,5.975.364,12.9-6.14,20.035-18.748a2.243,2.243,0,0,1,3.905,2.207C1227.687,355.114,1220.009,362.008,1212.244,362.008Z"/><path d="M2074.035,1014.837a2.356,2.356,0,0,1-.334-.024,2.244,2.244,0,0,1-1.888-2.549l2.568-17.209a2.244,2.244,0,0,1,4.438.662l-2.569,17.208A2.243,2.243,0,0,1,2074.035,1014.837Z"/><path d="M2068.053,1054.923a2.239,2.239,0,0,1-2.222-2.573l2.568-17.209a2.243,2.243,0,1,1,4.437.662l-2.568,17.208A2.244,2.244,0,0,1,2068.053,1054.923Z"/><path d="M2060.888,1024.568a2.366,2.366,0,0,1-.334-.024l-17.208-2.567a2.243,2.243,0,1,1,.661-4.437l17.209,2.567a2.243,2.243,0,0,1-.328,4.461Z"/><path d="M2100.976,1030.551a2.345,2.345,0,0,1-.334-.024l-17.209-2.569a2.243,2.243,0,1,1,.662-4.437l17.208,2.568a2.243,2.243,0,0,1-.327,4.462Z"/><path d="M1323.875,407.523a22.931,22.931,0,0,1-14.1-4.874,23.5,23.5,0,0,1-4.6-32.5,22.306,22.306,0,0,1,14.971-8.794,22.893,22.893,0,0,1,17.178,4.666,23.5,23.5,0,0,1,4.6,32.5,22.3,22.3,0,0,1-14.97,8.792A23.057,23.057,0,0,1,1323.875,407.523Zm-15.108-34.685a19,19,0,0,0,3.76,26.265,18.39,18.39,0,0,0,13.832,3.767,17.846,17.846,0,0,0,11.98-7.037,19,19,0,0,0-3.758-26.266,18.41,18.41,0,0,0-13.831-3.766A17.853,17.853,0,0,0,1308.767,372.838Z"/></g></g></svg>