<svg width="1440" height="659" viewBox="0 0 1440 659" fill="none" xmlns="http://www.w3.org/2000/svg">
<g clip-path="url(#clip0_780_49586)">
<path fill-rule="evenodd" clip-rule="evenodd" d="M1509.97 89.5C1509.97 110.665 1502.62 130.114 1490.34 145.437C1498.29 162.945 1501.52 180.466 1499.19 196.716C1601.66 291.126 1649.54 402.353 1606.67 455.2C1581.9 485.742 1531.8 490.649 1472 473.758V712H-32V320.85C-54.6386 307.598 -69.8437 283.024 -69.8437 254.898C-69.8437 244.458 -67.7488 234.507 -63.9564 225.443C-96.7573 228.043 -123.355 219.376 -134.542 199.339C-154.677 163.274 -117.256 104.032 -50.9599 67.0187C-12.1871 45.3717 27.8753 36.1219 58.4849 39.387C59.4746 38.7 60.4813 38.0358 61.5043 37.3952C74.9712 19.0439 96.6959 7.13055 121.203 7.13055C148.963 7.13055 173.153 22.4161 185.815 45.0296C222.258 31.1582 254.924 32.1083 272.609 50.9835C284.481 63.654 287.854 82.5356 283.885 104.307C316.758 94.7755 347.906 91.7165 373.978 95.1672C382.827 95.7145 391.267 97.7687 399.046 101.076C404.327 102.971 409.253 105.235 413.781 107.87C414.394 107.523 415.009 107.178 415.626 106.833C511.525 53.2925 612.879 52.1807 642.005 104.35C648.247 115.531 650.665 128.251 649.668 141.865C659.925 120.117 682.05 105.066 707.69 105.066C733.843 105.066 756.338 120.725 766.313 143.178C778.898 130.173 796.536 122.088 816.062 122.088C830.892 122.088 844.632 126.751 855.897 134.692C880.146 110.705 913.489 95.8942 950.291 95.8942C983.424 95.8942 1013.75 107.899 1037.17 127.796C1059.52 111.16 1087.22 101.315 1117.23 101.315C1117.72 101.315 1118.21 101.318 1118.7 101.323C1119.45 80.4657 1136.6 63.7889 1157.64 63.7889C1164.73 63.7889 1171.38 65.6837 1177.11 68.9947C1177.26 68.6755 1177.4 68.3572 1177.55 68.0396C1199.78 20.5498 1273.81 7.01878 1351.08 32.9629C1367.5 12.8458 1392.48 0 1420.47 0C1469.9 0 1509.97 40.0705 1509.97 89.5Z" fill="black"/>
<path d="M1490.34 145.437L1489.95 145.124L1489.76 145.364L1489.88 145.643L1490.34 145.437ZM1499.19 196.716L1498.69 196.645L1498.66 196.905L1498.85 197.084L1499.19 196.716ZM1606.67 455.2L1606.29 454.885L1606.29 454.885L1606.67 455.2ZM1472 473.758L1472.14 473.277L1471.5 473.097V473.758H1472ZM1472 712V712.5H1472.5V712H1472ZM-32 712H-32.5V712.5H-32V712ZM-32 320.85H-31.5V320.563L-31.7474 320.419L-32 320.85ZM-63.9564 225.443L-63.4951 225.636L-63.1787 224.88L-63.9959 224.945L-63.9564 225.443ZM-134.542 199.339L-134.105 199.095L-134.105 199.095L-134.542 199.339ZM-50.9599 67.0187L-51.2036 66.5821L-51.2036 66.5821L-50.9599 67.0187ZM58.4849 39.387L58.4318 39.8842L58.617 39.9039L58.77 39.7978L58.4849 39.387ZM61.5043 37.3952L61.7696 37.819L61.8508 37.7682L61.9074 37.691L61.5043 37.3952ZM185.815 45.0296L185.379 45.2739L185.59 45.6504L185.993 45.4969L185.815 45.0296ZM272.609 50.9835L272.245 51.3253L272.245 51.3254L272.609 50.9835ZM283.885 104.307L283.393 104.218L283.248 105.013L284.024 104.788L283.885 104.307ZM373.978 95.1672L373.913 95.6629L373.93 95.6651L373.947 95.6662L373.978 95.1672ZM399.046 101.076L398.851 101.536L398.864 101.542L398.877 101.547L399.046 101.076ZM413.781 107.87L413.529 108.302L413.777 108.447L414.027 108.306L413.781 107.87ZM415.626 106.833L415.382 106.397L415.382 106.397L415.626 106.833ZM642.005 104.35L641.568 104.594L641.568 104.594L642.005 104.35ZM649.668 141.865L649.169 141.829L650.12 142.079L649.668 141.865ZM766.313 143.178L765.856 143.381L766.157 144.058L766.672 143.526L766.313 143.178ZM855.897 134.692L855.609 135.1L855.951 135.342L856.249 135.047L855.897 134.692ZM1037.17 127.796L1036.84 128.177L1037.15 128.435L1037.46 128.197L1037.17 127.796ZM1118.7 101.323L1118.69 101.823L1119.18 101.828L1119.2 101.341L1118.7 101.323ZM1177.11 68.9947L1176.86 69.4276L1177.34 69.7047L1177.57 69.1995L1177.11 68.9947ZM1177.55 68.0396L1178 68.2516L1178 68.2515L1177.55 68.0396ZM1351.08 32.9629L1350.92 33.4369L1351.25 33.547L1351.47 33.2789L1351.08 32.9629ZM1490.73 145.749C1503.08 130.342 1510.47 110.783 1510.47 89.5H1509.47C1509.47 110.547 1502.16 129.887 1489.95 145.124L1490.73 145.749ZM1499.68 196.787C1502.03 180.422 1498.77 162.804 1490.79 145.23L1489.88 145.643C1497.8 163.086 1501.01 180.511 1498.69 196.645L1499.68 196.787ZM1607.06 455.515C1628.67 428.872 1627.34 387.619 1607.89 341.351C1588.44 295.055 1550.8 243.589 1499.53 196.348L1498.85 197.084C1550.05 244.254 1587.58 295.606 1606.97 341.738C1626.37 387.898 1627.54 428.682 1606.29 454.885L1607.06 455.515ZM1471.86 474.239C1501.8 482.697 1529.35 485.707 1552.53 482.762C1575.72 479.818 1594.57 470.912 1607.06 455.515L1606.29 454.885C1594 470.03 1575.42 478.849 1552.41 481.77C1529.4 484.693 1501.99 481.711 1472.14 473.277L1471.86 474.239ZM1471.5 473.758V712H1472.5V473.758H1471.5ZM1472 711.5H-32V712.5H1472V711.5ZM-31.5 712V320.85H-32.5V712H-31.5ZM-70.3437 254.898C-70.3437 283.208 -55.0381 307.944 -32.2526 321.282L-31.7474 320.419C-54.2391 307.253 -69.3437 282.839 -69.3437 254.898H-70.3437ZM-64.4176 225.25C-68.2352 234.374 -70.3437 244.39 -70.3437 254.898H-69.3437C-69.3437 244.525 -67.2624 234.64 -63.4951 225.636L-64.4176 225.25ZM-134.978 199.583C-123.646 219.88 -96.7831 228.547 -63.9169 225.942L-63.9959 224.945C-96.7315 227.54 -123.064 218.871 -134.105 199.095L-134.978 199.583ZM-51.2036 66.5821C-84.4102 85.1214 -110.407 109.239 -125.585 133.267C-140.752 157.278 -145.177 181.315 -134.978 199.583L-134.105 199.095C-144.042 181.298 -139.824 157.682 -124.74 133.801C-109.667 109.939 -83.8058 85.9293 -50.7161 67.4552L-51.2036 66.5821ZM58.5379 38.8898C27.7992 35.611 -12.3668 44.8994 -51.2036 66.5821L-50.7161 67.4552C-12.0074 45.8441 27.9514 36.6329 58.4318 39.8842L58.5379 38.8898ZM61.2389 36.9714C60.2092 37.6163 59.1959 38.2848 58.1997 38.9763L58.77 39.7978C59.7532 39.1152 60.7533 38.4554 61.7696 37.819L61.2389 36.9714ZM121.203 6.63055C96.53 6.63055 74.6582 18.6252 61.1012 37.0994L61.9074 37.691C75.2842 19.4625 96.8619 7.63055 121.203 7.63055V6.63055ZM186.251 44.7853C173.504 22.0203 149.151 6.63055 121.203 6.63055V7.63055C148.775 7.63055 172.801 22.8119 185.379 45.2739L186.251 44.7853ZM272.974 50.6416C255.069 31.5322 222.127 30.6729 185.637 44.5623L185.993 45.4969C222.389 31.6434 254.779 32.6845 272.245 51.3253L272.974 50.6416ZM284.377 104.397C288.362 82.5379 284.995 63.4706 272.974 50.6416L272.245 51.3254C283.968 63.8374 287.346 82.5332 283.393 104.218L284.377 104.397ZM374.044 94.6715C347.887 91.2097 316.668 94.281 283.746 103.827L284.024 104.788C316.848 95.27 347.924 92.2234 373.913 95.6629L374.044 94.6715ZM399.242 100.616C391.411 97.2867 382.915 95.2191 374.009 94.6681L373.947 95.6662C382.738 96.21 391.123 98.2507 398.851 101.536L399.242 100.616ZM414.032 107.438C409.476 104.786 404.521 102.509 399.215 100.605L398.877 101.547C404.132 103.432 409.03 105.684 413.529 108.302L414.032 107.438ZM415.382 106.397C414.765 106.742 414.149 107.088 413.535 107.435L414.027 108.306C414.64 107.959 415.254 107.614 415.87 107.27L415.382 106.397ZM642.442 104.106C627.747 77.7863 594.893 65.0002 553.85 65.4504C512.785 65.9009 463.39 79.5938 415.382 106.397L415.87 107.27C463.761 80.5322 512.993 66.8987 553.861 66.4504C594.751 66.0018 627.137 78.7443 641.568 104.594L642.442 104.106ZM650.166 141.902C651.17 128.205 648.738 115.384 642.442 104.106L641.568 104.594C647.756 115.677 650.161 128.298 649.169 141.829L650.166 141.902ZM707.69 104.566C681.849 104.566 659.552 119.735 649.216 141.652L650.12 142.079C660.298 120.499 682.25 105.566 707.69 105.566V104.566ZM766.77 142.975C756.718 120.348 734.047 104.566 707.69 104.566V105.566C733.638 105.566 755.959 121.102 765.856 143.381L766.77 142.975ZM816.062 121.588C796.395 121.588 778.629 129.732 765.953 142.83L766.672 143.526C779.167 130.614 796.677 122.588 816.062 122.588V121.588ZM856.185 134.283C844.839 126.285 830.998 121.588 816.062 121.588V122.588C830.785 122.588 844.426 127.218 855.609 135.1L856.185 134.283ZM950.291 95.3942C913.352 95.3942 879.884 110.261 855.546 134.336L856.249 135.047C880.408 111.15 913.626 96.3942 950.291 96.3942V95.3942ZM1037.49 127.415C1013.99 107.444 983.547 95.3942 950.291 95.3942V96.3942C983.301 96.3942 1013.52 108.354 1036.84 128.177L1037.49 127.415ZM1117.23 100.815C1087.11 100.815 1059.3 110.697 1036.87 127.395L1037.46 128.197C1059.73 111.623 1087.34 101.815 1117.23 101.815V100.815ZM1118.7 100.823C1118.21 100.818 1117.72 100.815 1117.23 100.815V101.815C1117.72 101.815 1118.21 101.818 1118.69 101.823L1118.7 100.823ZM1157.64 63.2889C1136.33 63.2889 1118.96 80.1797 1118.2 101.305L1119.2 101.341C1119.94 80.7518 1136.87 64.2889 1157.64 64.2889V63.2889ZM1177.36 68.5618C1171.56 65.2081 1164.82 63.2889 1157.64 63.2889V64.2889C1164.64 64.2889 1171.21 66.1594 1176.86 69.4276L1177.36 68.5618ZM1177.1 67.8276C1176.95 68.1475 1176.8 68.4683 1176.66 68.7899L1177.57 69.1995C1177.71 68.8828 1177.86 68.5668 1178 68.2516L1177.1 67.8276ZM1351.24 32.4889C1312.54 19.4949 1274.62 16.377 1243.58 22.4729C1212.53 28.5682 1188.3 43.892 1177.1 67.8276L1178 68.2515C1189.03 44.6974 1212.92 29.5108 1243.77 23.4542C1274.61 17.3981 1312.35 20.4867 1350.92 33.4369L1351.24 32.4889ZM1420.47 -0.5C1392.33 -0.5 1367.2 12.4183 1350.7 32.6468L1351.47 33.2789C1367.79 13.2732 1392.64 0.5 1420.47 0.5V-0.5ZM1510.47 89.5C1510.47 39.7944 1470.17 -0.5 1420.47 -0.5V0.5C1469.62 0.5 1509.47 40.3467 1509.47 89.5H1510.47Z" fill="black"/>
</g>
<defs>
<clipPath id="clip0_780_49586">
<rect width="1440" height="659" fill="black"/>
</clipPath>
</defs>
</svg>
